<?xml version="1.0" encoding="UTF-8"?>
<!DOCTYPE svg PUBLIC "-//W3C//DTD SVG 1.1//EN" "http://www.w3.org/Graphics/SVG/1.1/DTD/svg11.dtd">
<svg xmlns="http://www.w3.org/2000/svg" version="1.1" width="80px" height="16px" style="shape-rendering:geometricPrecision; text-rendering:geometricPrecision; image-rendering:optimizeQuality; fill-rule:evenodd; clip-rule:evenodd" xmlns:xlink="http://www.w3.org/1999/xlink">
<g><path style="opacity:1" fill="#fef4f3" d="M 2.5,3.5 C 8.85319,3.45255 9.01986,4.11922 3,5.5C 2.11439,8.44022 2.94772,9.44022 5.5,8.5C 4.39149,6.7859 5.05815,6.11923 7.5,6.5C 7.5,7.83333 7.5,9.16667 7.5,10.5C 1.23772,10.9442 -0.428942,8.61083 2.5,3.5 Z"/></g>
<g><path style="opacity:1" fill="#fef4f3" d="M 10.5,3.5 C 15.1813,3.87567 16.5146,6.209 14.5,10.5C 12.8333,7.83333 11.1667,7.83333 9.5,10.5C 8.15439,7.90043 8.48772,5.5671 10.5,3.5 Z M 11.5,4.5 C 13.6246,5.36758 13.7913,6.36758 12,7.5C 10.3167,6.82352 10.1501,5.82352 11.5,4.5 Z"/></g>
<g><path style="opacity:1" fill="#fef4f3" d="M 16.5,3.5 C 18.0174,3.51056 19.1841,4.17723 20,5.5C 20.6891,4.64332 21.5224,3.97665 22.5,3.5C 23.8333,5.83333 23.8333,8.16667 22.5,10.5C 21.7492,9.62402 21.2492,8.62402 21,7.5C 20.3333,8.83333 19.6667,8.83333 19,7.5C 18.7508,8.62402 18.2508,9.62402 17.5,10.5C 16.5258,8.25731 16.1924,5.92397 16.5,3.5 Z"/></g>
<g><path style="opacity:1" fill="#fef4f3" d="M 25.5,3.5 C 27.5273,3.33788 29.5273,3.50454 31.5,4C 27.0684,4.62276 26.7351,5.62276 30.5,7C 26.7351,8.37724 27.0684,9.37724 31.5,10C 29.5273,10.4955 27.5273,10.6621 25.5,10.5C 25.5,8.16667 25.5,5.83333 25.5,3.5 Z"/></g>
<g><path style="opacity:1" fill="#fef4f3" d="M 48.5,3.5 C 54.1581,2.67937 55.8248,4.84604 53.5,10C 47.741,11.1387 46.0744,8.972 48.5,3.5 Z M 49.5,4.5 C 50.5,4.5 51.5,4.5 52.5,4.5C 52.5,6.16667 52.5,7.83333 52.5,9.5C 51.5,9.5 50.5,9.5 49.5,9.5C 49.5,7.83333 49.5,6.16667 49.5,4.5 Z"/></g>
<g><path style="opacity:1" fill="#fef4f3" d="M 55.5,3.5 C 57.0931,4.34794 58.2597,5.68127 59,7.5C 59.9234,6.24119 60.7568,4.90785 61.5,3.5C 62.9832,6.53818 62.1499,8.87152 59,10.5C 56.259,8.93259 55.0923,6.59926 55.5,3.5 Z"/></g>
<g><path style="opacity:1" fill="#fef4f3" d="M 64.5,3.5 C 66.5273,3.33788 68.5273,3.50454 70.5,4C 66.0684,4.62276 65.7351,5.62276 69.5,7C 65.7351,8.37724 66.0684,9.37724 70.5,10C 68.5273,10.4955 66.5273,10.6621 64.5,10.5C 64.5,8.16667 64.5,5.83333 64.5,3.5 Z"/></g>
<g><path style="opacity:1" fill="#fef4f3" d="M 71.5,3.5 C 73.5273,3.33788 75.5273,3.50454 77.5,4C 78.9255,5.71413 78.5922,7.04746 76.5,8C 77.1667,8.66667 77.8333,9.33333 78.5,10C 76.6332,10.7112 75.1332,10.2112 74,8.5C 73.6924,9.30806 73.1924,9.97473 72.5,10.5C 71.5258,8.25731 71.1924,5.92397 71.5,3.5 Z M 73.5,4.5 C 76.9571,4.66721 77.2904,5.66721 74.5,7.5C 73.6143,6.67504 73.281,5.67504 73.5,4.5 Z"/></g>
</svg>
