<?xml version="1.0" encoding="UTF-8"?>
<!DOCTYPE svg PUBLIC "-//W3C//DTD SVG 1.1//EN" "http://www.w3.org/Graphics/SVG/1.1/DTD/svg11.dtd">
<svg xmlns="http://www.w3.org/2000/svg" version="1.1" width="48px" height="16px" style="shape-rendering:geometricPrecision; text-rendering:geometricPrecision; image-rendering:optimizeQuality; fill-rule:evenodd; clip-rule:evenodd" xmlns:xlink="http://www.w3.org/1999/xlink">
<g><path style="opacity:1" fill="#fefffc" d="M 0.5,3.5 C 2.5273,3.33788 4.5273,3.50454 6.5,4C 7.9255,5.71413 7.59217,7.04746 5.5,8C 6.16667,8.66667 6.83333,9.33333 7.5,10C 5.63318,10.7112 4.13318,10.2112 3,8.5C 2.69238,9.30806 2.19238,9.97473 1.5,10.5C 0.525774,8.25731 0.192441,5.92397 0.5,3.5 Z M 2.5,4.5 C 5.95707,4.66721 6.2904,5.66721 3.5,7.5C 2.61432,6.67504 2.28099,5.67504 2.5,4.5 Z"/></g>
<g><path style="opacity:1" fill="#fefffc" d="M 9.5,3.5 C 11.5273,3.33788 13.5273,3.50454 15.5,4C 11.0684,4.62276 10.7351,5.62276 14.5,7C 10.7351,8.37724 11.0684,9.37724 15.5,10C 13.5273,10.4955 11.5273,10.6621 9.5,10.5C 9.5,8.16667 9.5,5.83333 9.5,3.5 Z"/></g>
<g><path style="opacity:1" fill="#fefffc" d="M 18.5,3.5 C 23.1813,3.87567 24.5146,6.209 22.5,10.5C 20.8333,7.83333 19.1667,7.83333 17.5,10.5C 16.1544,7.90043 16.4877,5.5671 18.5,3.5 Z M 19.5,4.5 C 21.6246,5.36758 21.7913,6.36758 20,7.5C 18.3167,6.82352 18.1501,5.82352 19.5,4.5 Z"/></g>
<g><path style="opacity:1" fill="#fefffc" d="M 24.5,3.5 C 27.8852,2.78962 30.2186,3.95629 31.5,7C 30.2186,10.0437 27.8852,11.2104 24.5,10.5C 24.5,8.16667 24.5,5.83333 24.5,3.5 Z M 26.5,4.5 C 29.9563,5.53625 30.2896,7.20291 27.5,9.5C 26.5481,7.95467 26.2148,6.28801 26.5,4.5 Z"/></g>
<g><path style="opacity:1" fill="#fefffc" d="M 33.5,3.5 C 34.8589,4.00654 35.8589,5.00654 36.5,6.5C 37.1667,5.5 37.8333,4.5 38.5,3.5C 38.8333,4 39.1667,4.5 39.5,5C 36.7999,11.9749 34.7999,11.4749 33.5,3.5 Z"/></g>
<g><path style="opacity:1" fill="#fefffc" d="M 43.5,3.5 C 44.675,3.28099 45.675,3.61432 46.5,4.5C 42.8981,10.139 41.8981,9.80569 43.5,3.5 Z"/></g>
<g><path style="opacity:1" fill="#fefffc" d="M 41.5,9.5 C 42.8333,10.1667 42.8333,10.1667 41.5,9.5 Z"/></g>
</svg>
