<?xml version="1.0" encoding="UTF-8"?>
<!DOCTYPE svg PUBLIC "-//W3C//DTD SVG 1.1//EN" "http://www.w3.org/Graphics/SVG/1.1/DTD/svg11.dtd">
<svg xmlns="http://www.w3.org/2000/svg" version="1.1" width="700px" height="700px" style="shape-rendering:geometricPrecision; text-rendering:geometricPrecision; image-rendering:optimizeQuality; fill-rule:evenodd; clip-rule:evenodd" xmlns:xlink="http://www.w3.org/1999/xlink">
<g><path style="opacity:0.998" fill="#e7f0f7" d="M 422.5,4.5 C 422.168,42.6703 422.501,80.6703 423.5,118.5C 425.634,127.303 430.967,133.303 439.5,136.5C 439.611,137.117 439.944,137.617 440.5,138C 458.83,138.5 477.164,138.667 495.5,138.5C 495.5,154.833 495.5,171.167 495.5,187.5C 487.989,194.688 481.989,203.021 477.5,212.5C 475.755,214.033 474.755,216.033 474.5,218.5C 472.446,221.008 471.446,224.008 471.5,227.5C 467.914,241.288 467.581,255.288 470.5,269.5C 470.41,272.152 471.076,274.485 472.5,276.5C 475.392,284.839 479.059,292.839 483.5,300.5C 477.899,327.589 469.233,353.589 457.5,378.5C 353.499,378.333 249.499,378.5 145.5,379C 141.101,382.72 140.434,386.887 143.5,391.5C 144.5,392.167 145.5,392.833 146.5,393.5C 247.333,394.333 348.333,394.833 449.5,395C 439.509,415.479 427.842,434.979 414.5,453.5C 324.668,454.167 235.001,454.833 145.5,455.5C 144.449,456.222 143.782,457.222 143.5,458.5C 141.8,462.546 142.466,466.213 145.5,469.5C 230.16,471.497 315.16,472.164 400.5,471.5C 382.875,493.126 363.541,513.126 342.5,531.5C 276.832,531.333 211.166,531.5 145.5,532C 144.619,532.708 143.953,533.542 143.5,534.5C 142.883,534.611 142.383,534.944 142,535.5C 141.333,538.167 141.333,540.833 142,543.5C 142.383,544.056 142.883,544.389 143.5,544.5C 144.5,545.167 145.5,545.833 146.5,546.5C 204.665,547.333 262.999,547.833 321.5,548C 289.343,571.244 255.01,590.577 218.5,606C 194.704,607.115 171.038,607.949 147.5,608.5C 145.973,608.427 144.973,609.094 144.5,610.5C 143.883,610.611 143.383,610.944 143,611.5C 142.037,615.149 142.537,618.482 144.5,621.5C 144.842,622.338 145.508,622.672 146.5,622.5C 146.5,623.167 146.833,623.5 147.5,623.5C 148.263,624.268 149.263,624.768 150.5,625C 132.712,628.995 114.712,631.495 96.5,632.5C 96.3333,428.833 96.5,225.166 97,21.5C 101.139,14.6941 106.639,9.1941 113.5,5C 216.499,4.5 319.499,4.33334 422.5,4.5 Z"/></g>
<g><path style="opacity:1" fill="#acbadf" d="M 439.5,136.5 C 430.967,133.303 425.634,127.303 423.5,118.5C 423.167,81.494 423.5,44.494 424.5,7.5C 467.711,50.7208 511.044,93.8874 554.5,137C 516.125,137.821 477.792,137.654 439.5,136.5 Z"/></g>
<g><path style="opacity:1" fill="#808385" d="M 240.5,45.5 C 232.066,45.2142 223.733,45.8809 215.5,47.5C 215.611,46.8826 215.944,46.3826 216.5,46C 224.628,44.3762 232.628,44.2096 240.5,45.5 Z"/></g>
<g><path style="opacity:1" fill="#474747" d="M 240.5,45.5 C 248.432,46.2563 255.765,48.5896 262.5,52.5C 261.503,52.4701 260.836,52.9701 260.5,54C 265.633,68.2016 265.633,82.3683 260.5,96.5C 260.863,97.1835 261.196,97.8501 261.5,98.5C 239.497,98.3334 217.497,98.5 195.5,99C 194.944,99.3826 194.611,99.8826 194.5,100.5C 189.29,102.911 185.957,106.911 184.5,112.5C 184.167,112.5 183.833,112.5 183.5,112.5C 182.833,122.833 182.167,133.167 181.5,143.5C 176.261,136.686 172.928,129.019 171.5,120.5C 170.218,111.169 170.218,101.836 171.5,92.5C 176.241,73.7621 187.241,60.0955 204.5,51.5C 207.947,50.917 210.947,49.5837 213.5,47.5C 214.167,47.5 214.833,47.5 215.5,47.5C 223.733,45.8809 232.066,45.2142 240.5,45.5 Z"/></g>
<g><path style="opacity:1" fill="#85888b" d="M 213.5,47.5 C 210.947,49.5837 207.947,50.917 204.5,51.5C 207.053,49.4163 210.053,48.083 213.5,47.5 Z"/></g>
<g><path style="opacity:1" fill="#414141" d="M 262.5,52.5 C 279.575,60.8885 290.242,74.2219 294.5,92.5C 295.118,99.8174 295.451,107.151 295.5,114.5C 295.5,115.833 295.5,117.167 295.5,118.5C 294.007,121.583 293.007,124.917 292.5,128.5C 290.379,134.075 287.713,139.408 284.5,144.5C 283.67,134.008 283.17,123.341 283,112.5C 282.768,111.263 282.268,110.263 281.5,109.5C 277.821,103.654 272.488,100.32 265.5,99.5C 264.432,98.5655 263.099,98.2322 261.5,98.5C 261.196,97.8501 260.863,97.1835 260.5,96.5C 265.633,82.3683 265.633,68.2016 260.5,54C 260.836,52.9701 261.503,52.4701 262.5,52.5 Z"/></g>
<g><path style="opacity:1" fill="#7e786a" d="M 261.5,98.5 C 263.099,98.2322 264.432,98.5655 265.5,99.5C 241.788,99.1867 218.122,99.52 194.5,100.5C 194.611,99.8826 194.944,99.3826 195.5,99C 217.497,98.5 239.497,98.3334 261.5,98.5 Z"/></g>
<g><path style="opacity:1" fill="#ead7ad" d="M 265.5,99.5 C 272.488,100.32 277.821,103.654 281.5,109.5C 281.5,110.833 281.5,112.167 281.5,113.5C 281.5,124.833 281.5,136.167 281.5,147.5C 279.503,161.985 272.503,173.485 260.5,182C 263.457,182.279 266.123,183.113 268.5,184.5C 264.854,183.717 261.188,183.55 257.5,184C 242.545,192.864 227.212,193.698 211.5,186.5C 211.047,185.542 210.381,184.708 209.5,184C 206.854,183.503 204.187,183.336 201.5,183.5C 201.918,182.778 202.584,182.278 203.5,182C 192.532,172.885 186.198,161.385 184.5,147.5C 184.5,135.833 184.5,124.167 184.5,112.5C 185.957,106.911 189.29,102.911 194.5,100.5C 218.122,99.52 241.788,99.1867 265.5,99.5 Z"/></g>
<g><path style="opacity:1" fill="#84888a" d="M 171.5,92.5 C 170.218,101.836 170.218,111.169 171.5,120.5C 168.877,111.171 168.877,101.838 171.5,92.5 Z"/></g>
<g><path style="opacity:1" fill="#76797b" d="M 294.5,92.5 C 296.519,99.7768 296.852,107.11 295.5,114.5C 295.451,107.151 295.118,99.8174 294.5,92.5 Z"/></g>
<g><path style="opacity:1" fill="#6f6b60" d="M 183.5,112.5 C 183.828,123.679 183.495,134.679 182.5,145.5C 181.662,145.158 181.328,144.492 181.5,143.5C 182.167,133.167 182.833,122.833 183.5,112.5 Z"/></g>
<g><path style="opacity:1" fill="#c1b293" d="M 183.5,112.5 C 183.833,112.5 184.167,112.5 184.5,112.5C 184.5,124.167 184.5,135.833 184.5,147.5C 183.5,147.167 182.833,146.5 182.5,145.5C 183.495,134.679 183.828,123.679 183.5,112.5 Z"/></g>
<g><path style="opacity:1" fill="#c7b897" d="M 281.5,113.5 C 282.167,124.5 282.833,135.5 283.5,146.5C 283.158,147.338 282.492,147.672 281.5,147.5C 281.5,136.167 281.5,124.833 281.5,113.5 Z"/></g>
<g><path style="opacity:1" fill="#7b7466" d="M 281.5,109.5 C 282.268,110.263 282.768,111.263 283,112.5C 283.17,123.341 283.67,134.008 284.5,144.5C 284.167,145.167 283.833,145.833 283.5,146.5C 282.833,135.5 282.167,124.5 281.5,113.5C 281.5,112.167 281.5,110.833 281.5,109.5 Z"/></g>
<g><path style="opacity:1" fill="#878b8e" d="M 295.5,118.5 C 295.196,121.522 294.696,124.522 294,127.5C 293.617,128.056 293.117,128.389 292.5,128.5C 293.007,124.917 294.007,121.583 295.5,118.5 Z"/></g>
<g><path style="opacity:1" fill="#bfcbe3" d="M 422.5,4.5 C 423.675,4.28099 424.675,4.61432 425.5,5.5C 468.521,49.1877 511.854,92.521 555.5,135.5C 555.5,136.5 555.5,137.5 555.5,138.5C 535.5,138.5 515.5,138.5 495.5,138.5C 477.164,138.667 458.83,138.5 440.5,138C 439.944,137.617 439.611,137.117 439.5,136.5C 477.792,137.654 516.125,137.821 554.5,137C 511.044,93.8874 467.711,50.7208 424.5,7.5C 423.5,44.494 423.167,81.494 423.5,118.5C 422.501,80.6703 422.168,42.6703 422.5,4.5 Z"/></g>
<g><path style="opacity:0.999" fill="#ccd4db" d="M 555.5,135.5 C 556.222,135.918 556.722,136.584 557,137.5C 557.5,145.493 557.666,153.493 557.5,161.5C 552.118,163.218 546.452,164.051 540.5,164C 539.584,164.278 538.918,164.778 538.5,165.5C 535.513,165.998 532.513,166.498 529.5,167C 526.929,168.454 524.262,169.62 521.5,170.5C 519.033,170.755 517.033,171.755 515.5,173.5C 508.022,176.973 501.355,181.64 495.5,187.5C 495.5,171.167 495.5,154.833 495.5,138.5C 515.5,138.5 535.5,138.5 555.5,138.5C 555.5,137.5 555.5,136.5 555.5,135.5 Z"/></g>
<g><path style="opacity:0.994" fill="#475da9" d="M 557.5,162.5 C 573.105,162.477 587.439,166.477 600.5,174.5C 600.5,175.833 601.167,176.5 602.5,176.5C 626.279,191.264 640.112,212.597 644,240.5C 646.443,268.341 638.277,292.341 619.5,312.5C 618.5,312.5 617.5,312.5 616.5,312.5C 616.5,313.5 616.5,314.5 616.5,315.5C 599.921,330.952 580.254,338.952 557.5,339.5C 536.232,338.439 517.232,331.606 500.5,319C 494.231,313.237 488.564,307.071 483.5,300.5C 479.059,292.839 475.392,284.839 472.5,276.5C 472.59,273.848 471.924,271.515 470.5,269.5C 467.581,255.288 467.914,241.288 471.5,227.5C 472.946,224.746 473.946,221.746 474.5,218.5C 476.245,216.967 477.245,214.967 477.5,212.5C 481.989,203.021 487.989,194.688 495.5,187.5C 501.355,181.64 508.022,176.973 515.5,173.5C 517.967,173.245 519.967,172.245 521.5,170.5C 524.262,169.62 526.929,168.454 529.5,167C 532.513,166.498 535.513,165.998 538.5,165.5C 545.236,165.342 551.569,164.342 557.5,162.5 Z"/></g>
<g><path style="opacity:0.737" fill="#6f81b8" d="M 557.5,161.5 C 557.5,161.833 557.5,162.167 557.5,162.5C 551.569,164.342 545.236,165.342 538.5,165.5C 538.918,164.778 539.584,164.278 540.5,164C 546.452,164.051 552.118,163.218 557.5,161.5 Z"/></g>
<g><path style="opacity:1" fill="#7b8bbc" d="M 521.5,170.5 C 519.967,172.245 517.967,173.245 515.5,173.5C 517.033,171.755 519.033,170.755 521.5,170.5 Z"/></g>
<g><path style="opacity:0.396" fill="#2530d4" d="M 600.5,174.5 C 601.5,174.833 602.167,175.5 602.5,176.5C 601.167,176.5 600.5,175.833 600.5,174.5 Z"/></g>
<g><path style="opacity:1" fill="#f59f51" d="M 201.5,183.5 C 204.187,183.336 206.854,183.503 209.5,184C 210.381,184.708 211.047,185.542 211.5,186.5C 209.772,185.621 207.939,184.954 206,184.5C 202.542,185.286 199.042,185.62 195.5,185.5C 197.302,184.542 199.302,183.875 201.5,183.5 Z"/></g>
<g><path style="opacity:1" fill="#f2b37a" d="M 195.5,185.5 C 193.064,186.871 190.397,187.871 187.5,188.5C 189.617,186.345 192.284,185.345 195.5,185.5 Z"/></g>
<g><path style="opacity:1" fill="#f68721" d="M 268.5,184.5 C 274.773,186.589 280.773,189.256 286.5,192.5C 300.678,219.642 298.011,244.975 278.5,268.5C 269.07,277.382 258.07,283.382 245.5,286.5C 216.174,287.5 186.841,287.833 157.5,287.5C 155.584,282.911 153.917,278.244 152.5,273.5C 144.803,249.734 147.97,227.734 162,207.5C 169.053,199.074 177.553,192.741 187.5,188.5C 190.397,187.871 193.064,186.871 195.5,185.5C 199.042,185.62 202.542,185.286 206,184.5C 207.939,184.954 209.772,185.621 211.5,186.5C 227.212,193.698 242.545,192.864 257.5,184C 261.188,183.55 264.854,183.717 268.5,184.5 Z"/></g>
<g><path style="opacity:1" fill="#da771e" d="M 286.5,192.5 C 298.103,199.43 306.436,209.097 311.5,221.5C 311.427,223.027 312.094,224.027 313.5,224.5C 314.248,227.905 315.248,231.238 316.5,234.5C 316.721,243.866 316.387,253.199 315.5,262.5C 313.207,271.425 311.207,280.425 309.5,289.5C 308.003,295.637 305.003,300.97 300.5,305.5C 297.644,307.093 294.644,308.427 291.5,309.5C 251.143,309.81 210.809,309.477 170.5,308.5C 164.719,305.384 160.719,300.717 158.5,294.5C 158.326,292.139 157.993,289.806 157.5,287.5C 186.841,287.833 216.174,287.5 245.5,286.5C 258.07,283.382 269.07,277.382 278.5,268.5C 298.011,244.975 300.678,219.642 286.5,192.5 Z"/></g>
<g><path style="opacity:1" fill="#8999c9" d="M 477.5,212.5 C 477.245,214.967 476.245,216.967 474.5,218.5C 474.755,216.033 475.755,214.033 477.5,212.5 Z"/></g>
<g><path style="opacity:1" fill="#e0a979" d="M 311.5,221.5 C 312.906,221.973 313.573,222.973 313.5,224.5C 312.094,224.027 311.427,223.027 311.5,221.5 Z"/></g>
<g><path style="opacity:1" fill="#8697c8" d="M 585.5,224.5 C 583.097,224.448 580.764,224.781 578.5,225.5C 579.312,224.007 580.645,223.34 582.5,223.5C 583.726,223.52 584.726,223.853 585.5,224.5 Z"/></g>
<g><path style="opacity:1" fill="#a7b4d8" d="M 474.5,218.5 C 473.946,221.746 472.946,224.746 471.5,227.5C 471.446,224.008 472.446,221.008 474.5,218.5 Z"/></g>
<g><path style="opacity:1" fill="#e3ecf5" d="M 585.5,224.5 C 589.783,227.578 590.617,231.578 588,236.5C 574.471,250.363 560.638,263.863 546.5,277C 544.167,277.667 541.833,277.667 539.5,277C 533.301,271.136 527.468,264.969 522,258.5C 521.348,250.652 524.848,247.652 532.5,249.5C 536.167,252.833 539.833,256.167 543.5,259.5C 555.187,248.145 566.854,236.812 578.5,225.5C 580.764,224.781 583.097,224.448 585.5,224.5 Z"/></g>
<g><path style="opacity:1" fill="#df9e63" d="M 316.5,234.5 C 317.657,242.99 317.824,251.657 317,260.5C 316.722,261.416 316.222,262.082 315.5,262.5C 316.387,253.199 316.721,243.866 316.5,234.5 Z"/></g>
<g><path style="opacity:1" fill="#8898c8" d="M 470.5,269.5 C 471.924,271.515 472.59,273.848 472.5,276.5C 471.076,274.485 470.41,272.152 470.5,269.5 Z"/></g>
<g><path style="opacity:1" fill="#e9dfd5" d="M 152.5,273.5 C 153.917,278.244 155.584,282.911 157.5,287.5C 157.993,289.806 158.326,292.139 158.5,294.5C 156.807,289.944 154.807,285.444 152.5,281C 153.151,278.637 153.151,276.137 152.5,273.5 Z"/></g>
<g><path style="opacity:1" fill="#e7dace" d="M 309.5,289.5 C 308.415,293.76 307.748,298.094 307.5,302.5C 304.962,303.043 302.628,304.043 300.5,305.5C 305.003,300.97 308.003,295.637 309.5,289.5 Z"/></g>
<g><path style="opacity:0.996" fill="#ccd4da" d="M 483.5,300.5 C 488.564,307.071 494.231,313.237 500.5,319C 517.232,331.606 536.232,338.439 557.5,339.5C 557.667,449.834 557.5,560.167 557,670.5C 556.217,681.729 550.717,689.729 540.5,694.5C 398.168,695.667 255.835,695.833 113.5,695C 106.639,690.806 101.139,685.306 97,678.5C 96.5001,663.17 96.3334,647.837 96.5,632.5C 114.712,631.495 132.712,628.995 150.5,625C 149.263,624.768 148.263,624.268 147.5,623.5C 186.155,624.142 224.822,624.475 263.5,624.5C 299.84,624.5 335.84,623.833 371.5,622.5C 376.925,620.37 378.259,617.037 375.5,612.5C 374.833,611.167 373.833,610.167 372.5,609.5C 297.669,608.501 222.669,608.167 147.5,608.5C 171.038,607.949 194.704,607.115 218.5,606C 255.01,590.577 289.343,571.244 321.5,548C 262.999,547.833 204.665,547.333 146.5,546.5C 266.5,546.667 386.5,546.5 506.5,546C 511.143,543.928 512.643,540.428 511,535.5C 509.855,534.364 508.688,533.364 507.5,532.5C 452.669,531.501 397.669,531.168 342.5,531.5C 363.541,513.126 382.875,493.126 400.5,471.5C 315.833,470.833 231.167,470.167 146.5,469.5C 266.834,469.667 387.167,469.5 507.5,469C 511.378,466.437 512.378,462.937 510.5,458.5C 509.482,457.807 508.482,457.141 507.5,456.5C 387.001,455.5 266.334,455.167 145.5,455.5C 235.001,454.833 324.668,454.167 414.5,453.5C 427.842,434.979 439.509,415.479 449.5,395C 348.333,394.833 247.333,394.333 146.5,393.5C 267.001,393.833 387.334,393.5 507.5,392.5C 511.252,390.206 512.419,386.872 511,382.5C 509.729,381.117 508.229,380.117 506.5,379.5C 490.342,378.504 474.009,378.17 457.5,378.5C 469.233,353.589 477.899,327.589 483.5,300.5 Z"/></g>
<g><path style="opacity:1" fill="#e3bd9b" d="M 170.5,308.5 C 210.809,309.477 251.143,309.81 291.5,309.5C 252.335,310.665 213.002,310.831 173.5,310C 172.263,309.768 171.263,309.268 170.5,308.5 Z"/></g>
<g><path style="opacity:0.127" fill="#2d3ac8" d="M 619.5,312.5 C 618.5,313.5 617.5,314.5 616.5,315.5C 616.5,314.5 616.5,313.5 616.5,312.5C 617.5,312.5 618.5,312.5 619.5,312.5 Z"/></g>
<g><path style="opacity:1" fill="#898d90" d="M 457.5,378.5 C 474.009,378.17 490.342,378.504 506.5,379.5C 386.5,379.333 266.5,379.5 146.5,380C 142.581,382.689 141.581,386.189 143.5,390.5C 143.5,390.833 143.5,391.167 143.5,391.5C 140.434,386.887 141.101,382.72 145.5,379C 249.499,378.5 353.499,378.333 457.5,378.5 Z"/></g>
<g><path style="opacity:1" fill="#464646" d="M 506.5,379.5 C 508.229,380.117 509.729,381.117 511,382.5C 512.419,386.872 511.252,390.206 507.5,392.5C 387.166,392.667 266.833,392.5 146.5,392C 145.756,390.961 144.756,390.461 143.5,390.5C 141.581,386.189 142.581,382.689 146.5,380C 266.5,379.5 386.5,379.333 506.5,379.5 Z"/></g>
<g><path style="opacity:1" fill="#646668" d="M 143.5,391.5 C 143.5,391.167 143.5,390.833 143.5,390.5C 144.756,390.461 145.756,390.961 146.5,392C 266.833,392.5 387.166,392.667 507.5,392.5C 387.334,393.5 267.001,393.833 146.5,393.5C 145.5,392.833 144.5,392.167 143.5,391.5 Z"/></g>
<g><path style="opacity:1" fill="#595a5b" d="M 145.5,455.5 C 266.334,455.167 387.001,455.5 507.5,456.5C 387.5,456.333 267.5,456.5 147.5,457C 146.099,457.41 144.766,457.91 143.5,458.5C 143.782,457.222 144.449,456.222 145.5,455.5 Z"/></g>
<g><path style="opacity:1" fill="#464646" d="M 507.5,456.5 C 508.482,457.141 509.482,457.807 510.5,458.5C 512.378,462.937 511.378,466.437 507.5,469C 387.167,469.5 266.834,469.667 146.5,469.5C 146.167,469.5 145.833,469.5 145.5,469.5C 142.466,466.213 141.8,462.546 143.5,458.5C 144.766,457.91 146.099,457.41 147.5,457C 267.5,456.5 387.5,456.333 507.5,456.5 Z"/></g>
<g><path style="opacity:1" fill="#dae2e9" d="M 145.5,469.5 C 145.833,469.5 146.167,469.5 146.5,469.5C 231.167,470.167 315.833,470.833 400.5,471.5C 315.16,472.164 230.16,471.497 145.5,469.5 Z"/></g>
<g><path style="opacity:1" fill="#909497" d="M 342.5,531.5 C 397.669,531.168 452.669,531.501 507.5,532.5C 387.166,532.333 266.833,532.5 146.5,533C 145.756,534.039 144.756,534.539 143.5,534.5C 143.953,533.542 144.619,532.708 145.5,532C 211.166,531.5 276.832,531.333 342.5,531.5 Z"/></g>
<g><path style="opacity:1" fill="#484849" d="M 507.5,532.5 C 508.688,533.364 509.855,534.364 511,535.5C 512.643,540.428 511.143,543.928 506.5,546C 386.5,546.5 266.5,546.667 146.5,546.5C 145.5,545.833 144.5,545.167 143.5,544.5C 142.167,541.167 142.167,537.833 143.5,534.5C 144.756,534.539 145.756,534.039 146.5,533C 266.833,532.5 387.166,532.333 507.5,532.5 Z"/></g>
<g><path style="opacity:1" fill="#94999b" d="M 143.5,534.5 C 142.167,537.833 142.167,541.167 143.5,544.5C 142.883,544.389 142.383,544.056 142,543.5C 141.333,540.833 141.333,538.167 142,535.5C 142.383,534.944 142.883,534.611 143.5,534.5 Z"/></g>
<g><path style="opacity:1" fill="#626465" d="M 147.5,608.5 C 222.669,608.167 297.669,608.501 372.5,609.5C 296.459,609.173 220.459,609.506 144.5,610.5C 144.973,609.094 145.973,608.427 147.5,608.5 Z"/></g>
<g><path style="opacity:1" fill="#454545" d="M 372.5,609.5 C 373.833,610.167 374.833,611.167 375.5,612.5C 375.865,615.746 374.865,618.412 372.5,620.5C 296.503,621.5 220.503,621.833 144.5,621.5C 142.537,618.482 142.037,615.149 143,611.5C 143.383,610.944 143.883,610.611 144.5,610.5C 220.459,609.506 296.459,609.173 372.5,609.5 Z"/></g>
<g><path style="opacity:1" fill="#545555" d="M 375.5,612.5 C 378.259,617.037 376.925,620.37 371.5,622.5C 296.5,622.5 221.5,622.5 146.5,622.5C 145.508,622.672 144.842,622.338 144.5,621.5C 220.503,621.833 296.503,621.5 372.5,620.5C 374.865,618.412 375.865,615.746 375.5,612.5 Z"/></g>
<g><path style="opacity:1" fill="#aeb4b8" d="M 146.5,622.5 C 221.5,622.5 296.5,622.5 371.5,622.5C 335.84,623.833 299.84,624.5 263.5,624.5C 224.822,624.475 186.155,624.142 147.5,623.5C 146.833,623.5 146.5,623.167 146.5,622.5 Z"/></g>
</svg>
