<?xml version="1.0" encoding="UTF-8"?>
<!DOCTYPE svg PUBLIC "-//W3C//DTD SVG 1.1//EN" "http://www.w3.org/Graphics/SVG/1.1/DTD/svg11.dtd">
<svg xmlns="http://www.w3.org/2000/svg" version="1.1" width="752px" height="356px" style="shape-rendering:geometricPrecision; text-rendering:geometricPrecision; image-rendering:optimizeQuality; fill-rule:evenodd; clip-rule:evenodd" xmlns:xlink="http://www.w3.org/1999/xlink">
<g><path style="opacity:1" fill="#c3211b" d="M 67.5,-0.5 C 70.1667,-0.5 72.8333,-0.5 75.5,-0.5C 75.336,5.4877 72.836,6.82103 68,3.5C 67.51,2.20677 67.3433,0.873441 67.5,-0.5 Z"/></g>
<g><path style="opacity:1" fill="#e5a2a1" d="M 224.5,-0.5 C 224.833,-0.5 225.167,-0.5 225.5,-0.5C 225.5,-0.166667 225.5,0.166667 225.5,0.5C 225.167,0.166667 224.833,-0.166667 224.5,-0.5 Z"/></g>
<g><path style="opacity:1" fill="#c9372d" d="M 290.5,-0.5 C 293.5,-0.5 296.5,-0.5 299.5,-0.5C 298.075,0.922032 297.075,2.5887 296.5,4.5C 294.46,2.82296 292.46,1.15629 290.5,-0.5 Z"/></g>
<g><path style="opacity:1" fill="#c73028" d="M 307.5,-0.5 C 309.833,-0.5 312.167,-0.5 314.5,-0.5C 313.19,1.14772 311.857,2.81439 310.5,4.5C 311.689,5.42869 313.022,5.76202 314.5,5.5C 313.207,7.29585 311.707,8.96252 310,10.5C 309.508,9.45104 309.674,8.45104 310.5,7.5C 310.192,6.69194 309.692,6.02527 309,5.5C 302.861,10.9214 304.028,13.9214 312.5,14.5C 311.746,16.4459 310.412,17.2793 308.5,17C 305.167,13.6667 301.833,10.3333 298.5,7C 302.252,5.41613 305.252,2.91613 307.5,-0.5 Z"/></g>
<g><path style="opacity:1" fill="#c3211b" d="M 443.5,-0.5 C 446.167,-0.5 448.833,-0.5 451.5,-0.5C 451.336,5.4877 448.836,6.82103 444,3.5C 443.51,2.20677 443.343,0.873441 443.5,-0.5 Z"/></g>
<g><path style="opacity:1" fill="#e5a2a1" d="M 600.5,-0.5 C 600.833,-0.5 601.167,-0.5 601.5,-0.5C 601.5,-0.166667 601.5,0.166667 601.5,0.5C 601.167,0.166667 600.833,-0.166667 600.5,-0.5 Z"/></g>
<g><path style="opacity:1" fill="#c9372d" d="M 666.5,-0.5 C 669.5,-0.5 672.5,-0.5 675.5,-0.5C 674.075,0.922032 673.075,2.5887 672.5,4.5C 670.46,2.82296 668.46,1.15629 666.5,-0.5 Z"/></g>
<g><path style="opacity:1" fill="#c73028" d="M 683.5,-0.5 C 685.833,-0.5 688.167,-0.5 690.5,-0.5C 689.19,1.14772 687.857,2.81439 686.5,4.5C 687.689,5.42869 689.022,5.76202 690.5,5.5C 689.207,7.29585 687.707,8.96252 686,10.5C 685.508,9.45104 685.674,8.45104 686.5,7.5C 686.192,6.69194 685.692,6.02527 685,5.5C 678.861,10.9214 680.028,13.9214 688.5,14.5C 687.746,16.4459 686.412,17.2793 684.5,17C 681.167,13.6667 677.833,10.3333 674.5,7C 678.252,5.41613 681.252,2.91613 683.5,-0.5 Z"/></g>
<g><path style="opacity:1" fill="#dc7772" d="M 225.5,0.5 C 227.587,1.58457 228.92,3.25124 229.5,5.5C 227.413,4.41543 226.08,2.74876 225.5,0.5 Z"/></g>
<g><path style="opacity:1" fill="#dc7772" d="M 601.5,0.5 C 603.587,1.58457 604.92,3.25124 605.5,5.5C 603.413,4.41543 602.08,2.74876 601.5,0.5 Z"/></g>
<g><path style="opacity:1" fill="#cb3d35" d="M 316.5,-0.5 C 316.833,-0.5 317.167,-0.5 317.5,-0.5C 318.81,1.14772 320.143,2.81439 321.5,4.5C 320.812,5.85493 319.812,6.85493 318.5,7.5C 318.713,4.54915 318.046,1.88248 316.5,-0.5 Z"/></g>
<g><path style="opacity:1" fill="#cb3d35" d="M 692.5,-0.5 C 692.833,-0.5 693.167,-0.5 693.5,-0.5C 694.81,1.14772 696.143,2.81439 697.5,4.5C 696.812,5.85493 695.812,6.85493 694.5,7.5C 694.713,4.54915 694.046,1.88248 692.5,-0.5 Z"/></g>
<g><path style="opacity:1" fill="#d97271" d="M 296.5,4.5 C 297.833,5.16667 297.833,5.16667 296.5,4.5 Z"/></g>
<g><path style="opacity:1" fill="#cd4645" d="M 314.5,4.5 C 315.833,5.16667 315.833,5.16667 314.5,4.5 Z"/></g>
<g><path style="opacity:1" fill="#d97271" d="M 672.5,4.5 C 673.833,5.16667 673.833,5.16667 672.5,4.5 Z"/></g>
<g><path style="opacity:1" fill="#cd4645" d="M 690.5,4.5 C 691.833,5.16667 691.833,5.16667 690.5,4.5 Z"/></g>
<g><path style="opacity:1" fill="#d86e6d" d="M 51.5,6.5 C 52.8333,7.16667 52.8333,7.16667 51.5,6.5 Z"/></g>
<g><path style="opacity:1" fill="#d86e6d" d="M 427.5,6.5 C 428.833,7.16667 428.833,7.16667 427.5,6.5 Z"/></g>
<g><path style="opacity:1" fill="#e49e9d" d="M 318.5,7.5 C 317.833,8.16667 317.833,8.16667 318.5,7.5 Z"/></g>
<g><path style="opacity:1" fill="#e49e9d" d="M 694.5,7.5 C 693.833,8.16667 693.833,8.16667 694.5,7.5 Z"/></g>
<g><path style="opacity:1" fill="#c62c23" d="M 51.5,7.5 C 51.369,8.23891 51.5357,8.90558 52,9.5C 55.728,12.899 59.728,15.899 64,18.5C 66.3649,18.0575 68.5316,18.8909 70.5,21C 67.1025,20.0726 64.1025,20.9059 61.5,23.5C 61.6716,22.5084 61.3382,21.8417 60.5,21.5C 56.5,18.5 52.5,15.5 48.5,12.5C 48.1667,12.5 47.8333,12.5 47.5,12.5C 48.604,10.6115 49.9373,8.94478 51.5,7.5 Z"/></g>
<g><path style="opacity:1" fill="#c62c23" d="M 427.5,7.5 C 427.369,8.23891 427.536,8.90558 428,9.5C 431.728,12.899 435.728,15.899 440,18.5C 442.365,18.0575 444.532,18.8909 446.5,21C 443.103,20.0726 440.103,20.9059 437.5,23.5C 437.672,22.5084 437.338,21.8417 436.5,21.5C 432.5,18.5 428.5,15.5 424.5,12.5C 424.167,12.5 423.833,12.5 423.5,12.5C 424.604,10.6115 425.937,8.94478 427.5,7.5 Z"/></g>
<g><path style="opacity:1" fill="#c11914" d="M 229.5,5.5 C 238.713,14.2139 247.046,23.7139 254.5,34C 268.189,38.1151 282.189,40.6151 296.5,41.5C 293.217,60.0365 289.883,78.5365 286.5,97C 294.948,121.059 294.448,144.892 285,168.5C 281.865,173.943 278.365,179.11 274.5,184C 278.62,189.122 283.12,193.956 288,198.5C 290.893,206.613 288.06,211.613 279.5,213.5C 275.312,211.821 271.812,209.155 269,205.5C 268.027,211.712 266.527,217.712 264.5,223.5C 253.284,220.706 242.284,217.206 231.5,213C 223.081,210.878 214.748,211.211 206.5,214C 200.682,216.662 194.849,219.162 189,221.5C 179.832,215.89 169.832,212.89 159,212.5C 155.43,212.544 151.93,213.044 148.5,214C 136.87,218.712 124.87,221.879 112.5,223.5C 111.949,215.911 110.449,208.578 108,201.5C 103.722,207.371 98.2217,209.204 91.5,207C 87.3805,202.785 86.5471,197.951 89,192.5C 94.1544,187.697 99.321,183.031 104.5,178.5C 95.8309,133.488 87.1642,88.4883 78.5,43.5C 90.3425,43.3947 102.009,41.8947 113.5,39C 116.312,37.0227 118.978,34.856 121.5,32.5C 122.814,33.3128 123.981,34.3128 125,35.5C 129.867,30.9677 134.367,26.1344 138.5,21C 151.513,20.1673 164.513,20.334 177.5,21.5C 174.833,24.5 172.167,27.5 169.5,30.5C 176.402,33.8666 182.902,37.8666 189,42.5C 205.783,26.9448 224.783,23.6115 246,32.5C 245.358,30.1928 244.358,27.8595 243,25.5C 238.253,18.9342 233.753,12.2676 229.5,5.5 Z"/></g>
<g><path style="opacity:1" fill="#c11914" d="M 605.5,5.5 C 614.713,14.2139 623.046,23.7139 630.5,34C 644.189,38.1151 658.189,40.6151 672.5,41.5C 669.217,60.0365 665.883,78.5365 662.5,97C 670.948,121.059 670.448,144.892 661,168.5C 657.865,173.943 654.365,179.11 650.5,184C 654.62,189.122 659.12,193.956 664,198.5C 666.893,206.613 664.06,211.613 655.5,213.5C 651.312,211.821 647.812,209.155 645,205.5C 644.027,211.712 642.527,217.712 640.5,223.5C 629.284,220.706 618.284,217.206 607.5,213C 599.081,210.878 590.748,211.211 582.5,214C 576.682,216.662 570.849,219.162 565,221.5C 555.832,215.89 545.832,212.89 535,212.5C 531.43,212.544 527.93,213.044 524.5,214C 512.87,218.712 500.87,221.879 488.5,223.5C 487.949,215.911 486.449,208.578 484,201.5C 479.722,207.371 474.222,209.204 467.5,207C 463.38,202.785 462.547,197.951 465,192.5C 470.154,187.697 475.321,183.031 480.5,178.5C 471.831,133.488 463.164,88.4883 454.5,43.5C 466.343,43.3947 478.009,41.8947 489.5,39C 492.312,37.0227 494.978,34.856 497.5,32.5C 498.814,33.3128 499.981,34.3128 501,35.5C 505.867,30.9677 510.367,26.1344 514.5,21C 527.513,20.1673 540.513,20.334 553.5,21.5C 550.833,24.5 548.167,27.5 545.5,30.5C 552.402,33.8666 558.902,37.8666 565,42.5C 581.783,26.9448 600.783,23.6115 622,32.5C 621.358,30.1928 620.358,27.8595 619,25.5C 614.253,18.9342 609.753,12.2676 605.5,5.5 Z"/></g>
<g><path style="opacity:1" fill="#df8b8a" d="M 312.5,13.5 C 313.833,14.1667 313.833,14.1667 312.5,13.5 Z"/></g>
<g><path style="opacity:1" fill="#df8b8a" d="M 688.5,13.5 C 689.833,14.1667 689.833,14.1667 688.5,13.5 Z"/></g>
<g><path style="opacity:1" fill="#d76a69" d="M 43.5,17.5 C 42.8333,18.1667 42.8333,18.1667 43.5,17.5 Z"/></g>
<g><path style="opacity:1" fill="#ce4640" d="M 47.5,12.5 C 47.8333,12.5 48.1667,12.5 48.5,12.5C 47.2003,13.601 46.7003,14.9343 47,16.5C 50.7274,19.7241 53.8941,23.3908 56.5,27.5C 58.8329,26.1678 60.1663,24.1678 60.5,21.5C 61.3382,21.8417 61.6716,22.5084 61.5,23.5C 60.5604,25.6125 59.3937,27.6125 58,29.5C 57.6948,31.5568 57.6948,33.5568 58,35.5C 57,34.5 56,33.5 55,32.5C 54.3302,25.0053 50.4969,20.0053 43.5,17.5C 44.1237,15.246 45.457,13.5794 47.5,12.5 Z"/></g>
<g><path style="opacity:1" fill="#d76a69" d="M 419.5,17.5 C 418.833,18.1667 418.833,18.1667 419.5,17.5 Z"/></g>
<g><path style="opacity:1" fill="#ce4640" d="M 423.5,12.5 C 423.833,12.5 424.167,12.5 424.5,12.5C 423.2,13.601 422.7,14.9343 423,16.5C 426.727,19.7241 429.894,23.3908 432.5,27.5C 434.833,26.1678 436.166,24.1678 436.5,21.5C 437.338,21.8417 437.672,22.5084 437.5,23.5C 436.56,25.6125 435.394,27.6125 434,29.5C 433.695,31.5568 433.695,33.5568 434,35.5C 433,34.5 432,33.5 431,32.5C 430.33,25.0053 426.497,20.0053 419.5,17.5C 420.124,15.246 421.457,13.5794 423.5,12.5 Z"/></g>
<g><path style="opacity:1" fill="#c62c21" d="M 324.5,19.5 C 331.281,21.681 331.781,24.681 326,28.5C 321.067,26.0334 320.567,23.0334 324.5,19.5 Z"/></g>
<g><path style="opacity:1" fill="#c62c21" d="M 700.5,19.5 C 707.281,21.681 707.781,24.681 702,28.5C 697.067,26.0334 696.567,23.0334 700.5,19.5 Z"/></g>
<g><path style="opacity:1" fill="#d45954" d="M 46.5,32.5 C 42.7316,33.7866 39.0649,33.7866 35.5,32.5C 44.2324,33.8928 45.899,31.7261 40.5,26C 36.8119,26.1359 36.6453,24.6359 40,21.5C 42.1782,25.1943 44.3448,28.8609 46.5,32.5 Z"/></g>
<g><path style="opacity:1" fill="#d45954" d="M 422.5,32.5 C 418.732,33.7866 415.065,33.7866 411.5,32.5C 420.232,33.8928 421.899,31.7261 416.5,26C 412.812,26.1359 412.645,24.6359 416,21.5C 418.178,25.1943 420.345,28.8609 422.5,32.5 Z"/></g>
<g><path style="opacity:1" fill="#db7978" d="M 34.5,30.5 C 35.8333,31.1667 35.8333,31.1667 34.5,30.5 Z"/></g>
<g><path style="opacity:1" fill="#fefdfd" d="M 214.5,30.5 C 226.594,30.0845 238.261,32.0845 249.5,36.5C 262.443,57.4947 270.943,80.1613 275,104.5C 277.358,125.66 273.691,145.66 264,164.5C 262.959,166.585 261.459,168.252 259.5,169.5C 236.847,147.347 214.347,125.014 192,102.5C 191.167,82.8249 191.334,63.1582 192.5,43.5C 198.973,37.6012 206.306,33.2678 214.5,30.5 Z"/></g>
<g><path style="opacity:1" fill="#db7978" d="M 410.5,30.5 C 411.833,31.1667 411.833,31.1667 410.5,30.5 Z"/></g>
<g><path style="opacity:1" fill="#fefdfd" d="M 590.5,30.5 C 602.594,30.0845 614.261,32.0845 625.5,36.5C 638.443,57.4947 646.943,80.1613 651,104.5C 653.358,125.66 649.691,145.66 640,164.5C 638.959,166.585 637.459,168.252 635.5,169.5C 612.847,147.347 590.347,125.014 568,102.5C 567.167,82.8249 567.334,63.1582 568.5,43.5C 574.973,37.6012 582.306,33.2678 590.5,30.5 Z"/></g>
<g><path style="opacity:1" fill="#c4251c" d="M 34.5,31.5 C 34.5,32.1667 34.8333,32.5 35.5,32.5C 39.0649,33.7866 42.7316,33.7866 46.5,32.5C 47.6737,33.5137 48.3404,34.847 48.5,36.5C 44.1667,36.5 39.8333,36.5 35.5,36.5C 33.9705,37.0668 32.4705,37.7334 31,38.5C 31.5965,35.9734 32.7631,33.6401 34.5,31.5 Z"/></g>
<g><path style="opacity:1" fill="#fefdfd" d="M 165.5,33.5 C 173.398,35.1989 180.232,38.8656 186,44.5C 186.667,61.8333 186.667,79.1667 186,96.5C 172.5,83 159,69.5 145.5,56C 152.375,48.6289 159.041,41.1289 165.5,33.5 Z"/></g>
<g><path style="opacity:1" fill="#c4251c" d="M 410.5,31.5 C 410.5,32.1667 410.833,32.5 411.5,32.5C 415.065,33.7866 418.732,33.7866 422.5,32.5C 423.674,33.5137 424.34,34.847 424.5,36.5C 420.167,36.5 415.833,36.5 411.5,36.5C 409.97,37.0668 408.47,37.7334 407,38.5C 407.596,35.9734 408.763,33.6401 410.5,31.5 Z"/></g>
<g><path style="opacity:1" fill="#fefdfd" d="M 541.5,33.5 C 549.398,35.1989 556.232,38.8656 562,44.5C 562.667,61.8333 562.667,79.1667 562,96.5C 548.5,83 535,69.5 521.5,56C 528.375,48.6289 535.041,41.1289 541.5,33.5 Z"/></g>
<g><path style="opacity:1" fill="#c8352b" d="M 333.5,35.5 C 336.518,35.3354 339.518,35.502 342.5,36C 346.008,39.1709 348.674,42.8375 350.5,47C 348.413,47.7922 346.579,48.9588 345,50.5C 348.104,39.3009 344.27,36.4676 333.5,42C 329.339,47.0713 330.339,51.0713 336.5,54C 331.243,53.2291 328.576,50.0624 328.5,44.5C 328.377,40.4052 330.044,37.4052 333.5,35.5 Z"/></g>
<g><path style="opacity:1" fill="#c8352b" d="M 709.5,35.5 C 712.518,35.3354 715.518,35.502 718.5,36C 722.008,39.1709 724.674,42.8375 726.5,47C 724.413,47.7922 722.579,48.9588 721,50.5C 724.104,39.3009 720.27,36.4676 709.5,42C 705.339,47.0713 706.339,51.0713 712.5,54C 707.243,53.2291 704.576,50.0624 704.5,44.5C 704.377,40.4052 706.044,37.4052 709.5,35.5 Z"/></g>
<g><path style="opacity:1" fill="#dc7a79" d="M 35.5,36.5 C 39.8333,36.5 44.1667,36.5 48.5,36.5C 49.5,36.8333 50.1667,37.5 50.5,38.5C 50.1667,38.5 49.8333,38.5 49.5,38.5C 44.7305,37.8829 40.0638,37.2162 35.5,36.5 Z"/></g>
<g><path style="opacity:1" fill="#dc7a79" d="M 411.5,36.5 C 415.833,36.5 420.167,36.5 424.5,36.5C 425.5,36.8333 426.167,37.5 426.5,38.5C 426.167,38.5 425.833,38.5 425.5,38.5C 420.731,37.8829 416.064,37.2162 411.5,36.5 Z"/></g>
<g><path style="opacity:1" fill="#fefcfc" d="M 257.5,39.5 C 257.735,38.9033 258.235,38.5699 259,38.5C 269.942,41.6603 281.108,43.3269 292.5,43.5C 290.002,59.1562 287.502,74.8229 285,90.5C 278.391,71.9385 269.225,54.9385 257.5,39.5 Z"/></g>
<g><path style="opacity:1" fill="#fefcfc" d="M 633.5,39.5 C 633.735,38.9033 634.235,38.5699 635,38.5C 645.942,41.6603 657.108,43.3269 668.5,43.5C 666.002,59.1562 663.502,74.8229 661,90.5C 654.391,71.9385 645.225,54.9385 633.5,39.5 Z"/></g>
<g><path style="opacity:1" fill="#c52820" d="M 49.5,38.5 C 49.8333,38.5 50.1667,38.5 50.5,38.5C 51.1667,42.5 49.5,44.1667 45.5,43.5C 45.5,42.5 45.5,41.5 45.5,40.5C 47.4832,40.8432 48.8166,40.1765 49.5,38.5 Z"/></g>
<g><path style="opacity:1" fill="#c52820" d="M 425.5,38.5 C 425.833,38.5 426.167,38.5 426.5,38.5C 427.167,42.5 425.5,44.1667 421.5,43.5C 421.5,42.5 421.5,41.5 421.5,40.5C 423.483,40.8432 424.817,40.1765 425.5,38.5 Z"/></g>
<g><path style="opacity:1" fill="#fefdfd" d="M 107.5,42.5 C 109.857,42.3367 112.19,42.5034 114.5,43C 115.517,44.0495 115.684,45.2161 115,46.5C 108.031,54.4697 100.698,62.1364 93,69.5C 98.8532,76.8495 105.687,83.5162 113.5,89.5C 120.655,82.1768 127.655,74.6768 134.5,67C 135.5,66.3333 136.5,66.3333 137.5,67C 153.301,84.4686 169.467,101.635 186,118.5C 186.5,141.164 186.667,163.831 186.5,186.5C 177.809,183.655 169.809,179.488 162.5,174C 153.912,167.289 146.078,159.789 139,151.5C 136,154.5 133,157.5 130,160.5C 126.402,156.596 123.069,156.93 120,161.5C 118.288,168.716 114.122,174.049 107.5,177.5C 98.5255,133.606 90.1922,89.6057 82.5,45.5C 91.1397,45.8671 99.473,44.8671 107.5,42.5 Z"/></g>
<g><path style="opacity:1" fill="#fefdfd" d="M 483.5,42.5 C 485.857,42.3367 488.19,42.5034 490.5,43C 491.517,44.0495 491.684,45.2161 491,46.5C 484.031,54.4697 476.698,62.1364 469,69.5C 474.853,76.8495 481.687,83.5162 489.5,89.5C 496.655,82.1768 503.655,74.6768 510.5,67C 511.5,66.3333 512.5,66.3333 513.5,67C 529.301,84.4686 545.467,101.635 562,118.5C 562.5,141.164 562.667,163.831 562.5,186.5C 553.809,183.655 545.809,179.488 538.5,174C 529.912,167.289 522.078,159.789 515,151.5C 512,154.5 509,157.5 506,160.5C 502.402,156.596 499.069,156.93 496,161.5C 494.288,168.716 490.122,174.049 483.5,177.5C 474.526,133.606 466.192,89.6057 458.5,45.5C 467.14,45.8671 475.473,44.8671 483.5,42.5 Z"/></g>
<g><path style="opacity:1" fill="#c73026" d="M 23.5,53.5 C 23.996,48.1473 26.6627,44.4806 31.5,42.5C 36.8091,44.3852 37.8091,47.7185 34.5,52.5C 37.2544,54.2526 39.921,55.2526 42.5,55.5C 41.4227,57.9123 40.256,60.2457 39,62.5C 38.6905,61.2341 38.1905,60.0674 37.5,59C 32.9133,56.8699 28.2467,55.0366 23.5,53.5 Z M 27.5,46.5 C 30.5993,46.0923 32.9326,47.259 34.5,50C 33.8742,50.7504 33.3742,51.5838 33,52.5C 30.7497,51.2921 28.583,49.9587 26.5,48.5C 26.8627,47.8165 27.1961,47.1499 27.5,46.5 Z"/></g>
<g><path style="opacity:1" fill="#c73026" d="M 399.5,53.5 C 399.996,48.1473 402.663,44.4806 407.5,42.5C 412.809,44.3852 413.809,47.7185 410.5,52.5C 413.254,54.2526 415.921,55.2526 418.5,55.5C 417.423,57.9123 416.256,60.2457 415,62.5C 414.691,61.2341 414.191,60.0674 413.5,59C 408.913,56.8699 404.247,55.0366 399.5,53.5 Z M 403.5,46.5 C 406.599,46.0923 408.933,47.259 410.5,50C 409.874,50.7504 409.374,51.5838 409,52.5C 406.75,51.2921 404.583,49.9587 402.5,48.5C 402.863,47.8165 403.196,47.1499 403.5,46.5 Z"/></g>
<g><path style="opacity:1" fill="#d66665" d="M 23.5,53.5 C 22.8333,54.1667 22.8333,54.1667 23.5,53.5 Z"/></g>
<g><path style="opacity:1" fill="#d66665" d="M 399.5,53.5 C 398.833,54.1667 398.833,54.1667 399.5,53.5 Z"/></g>
<g><path style="opacity:1" fill="#c73025" d="M 354.5,59.5 C 356.326,66.7878 353.326,71.1211 345.5,72.5C 339.377,71.377 336.044,67.7104 335.5,61.5C 337.925,52.9239 343.258,50.4239 351.5,54C 353.607,55.2635 354.607,57.0968 354.5,59.5 Z M 354.5,59.5 C 353.448,63.5567 350.782,66.0567 346.5,67C 344.167,67.6667 341.833,67.6667 339.5,67C 337.006,64.7564 337.006,62.4231 339.5,60C 343.186,57.5454 347.186,56.5454 351.5,57C 352.691,57.6979 353.691,58.5313 354.5,59.5 Z"/></g>
<g><path style="opacity:1" fill="#c73025" d="M 730.5,59.5 C 732.326,66.7878 729.326,71.1211 721.5,72.5C 715.377,71.377 712.044,67.7104 711.5,61.5C 713.925,52.9239 719.258,50.4239 727.5,54C 729.607,55.2635 730.607,57.0968 730.5,59.5 Z M 730.5,59.5 C 729.448,63.5567 726.782,66.0567 722.5,67C 720.167,67.6667 717.833,67.6667 715.5,67C 713.006,64.7564 713.006,62.4231 715.5,60C 719.186,57.5454 723.186,56.5454 727.5,57C 728.691,57.6979 729.691,58.5313 730.5,59.5 Z"/></g>
<g><path style="opacity:1" fill="#c83329" d="M 19.5,74.5 C 17.8967,74.6882 16.5634,74.1882 15.5,73C 17.8634,68.41 19.53,63.5767 20.5,58.5C 26.2607,58.87 26.5941,59.87 21.5,61.5C 20.1207,62.8626 20.2874,63.8626 22,64.5C 27.2845,66.6745 32.4512,68.0079 37.5,68.5C 36.5682,70.7954 35.7348,73.1287 35,75.5C 34.5,74.3333 33.6667,73.5 32.5,73C 28.1292,71.5987 23.7959,70.0987 19.5,68.5C 18.3058,70.5156 18.3058,72.5156 19.5,74.5 Z"/></g>
<g><path style="opacity:1" fill="#c83329" d="M 395.5,74.5 C 393.897,74.6882 392.563,74.1882 391.5,73C 393.863,68.41 395.53,63.5767 396.5,58.5C 402.261,58.87 402.594,59.87 397.5,61.5C 396.121,62.8626 396.287,63.8626 398,64.5C 403.285,66.6745 408.451,68.0079 413.5,68.5C 412.568,70.7954 411.735,73.1287 411,75.5C 410.5,74.3333 409.667,73.5 408.5,73C 404.129,71.5987 399.796,70.0987 395.5,68.5C 394.306,70.5156 394.306,72.5156 395.5,74.5 Z"/></g>
<g><path style="opacity:1" fill="#db7a79" d="M 19.5,74.5 C 20.8333,75.1667 20.8333,75.1667 19.5,74.5 Z"/></g>
<g><path style="opacity:1" fill="#db7a79" d="M 395.5,74.5 C 396.833,75.1667 396.833,75.1667 395.5,74.5 Z"/></g>
<g><path style="opacity:1" fill="#c62d24" d="M 341.5,97.5 C 343.137,96.0256 344.137,94.1923 344.5,92C 343.089,87.2066 342.255,82.3732 342,77.5C 342.893,78.0814 343.893,78.4148 345,78.5C 349.496,77.4172 353.996,76.4172 358.5,75.5C 358.351,74.448 358.517,73.448 359,72.5C 360.164,75.4812 360.831,78.4812 361,81.5C 356.125,80.579 351.292,81.079 346.5,83C 343.934,85.2759 344.1,87.4425 347,89.5C 351.479,88.2554 355.979,87.0887 360.5,86C 361.126,85.2496 361.626,84.4162 362,83.5C 362.995,86.1262 363.328,88.7929 363,91.5C 362.439,90.9781 361.772,90.6448 361,90.5C 356.521,91.7446 352.021,92.9113 347.5,94C 346.55,96.9101 344.55,98.0768 341.5,97.5 Z"/></g>
<g><path style="opacity:1" fill="#c62d24" d="M 717.5,97.5 C 719.137,96.0256 720.137,94.1923 720.5,92C 719.089,87.2066 718.255,82.3732 718,77.5C 718.893,78.0814 719.893,78.4148 721,78.5C 725.496,77.4172 729.996,76.4172 734.5,75.5C 734.351,74.448 734.517,73.448 735,72.5C 736.164,75.4812 736.831,78.4812 737,81.5C 732.125,80.579 727.292,81.079 722.5,83C 719.934,85.2759 720.1,87.4425 723,89.5C 727.479,88.2554 731.979,87.0887 736.5,86C 737.126,85.2496 737.626,84.4162 738,83.5C 738.995,86.1262 739.328,88.7929 739,91.5C 738.439,90.9781 737.772,90.6448 737,90.5C 732.521,91.7446 728.021,92.9113 723.5,94C 722.55,96.9101 720.55,98.0768 717.5,97.5 Z"/></g>
<g><path style="opacity:1" fill="#c4251d" d="M 18.5,88.5 C 24.7286,88.0267 26.3953,90.36 23.5,95.5C 17.8045,96.4458 16.1378,94.1125 18.5,88.5 Z"/></g>
<g><path style="opacity:1" fill="#c4251d" d="M 394.5,88.5 C 400.729,88.0267 402.395,90.36 399.5,95.5C 393.805,96.4458 392.138,94.1125 394.5,88.5 Z"/></g>
<g><path style="opacity:1" fill="#e6a5a4" d="M 341.5,97.5 C 340.833,98.1667 340.833,98.1667 341.5,97.5 Z"/></g>
<g><path style="opacity:1" fill="#e6a5a4" d="M 717.5,97.5 C 716.833,98.1667 716.833,98.1667 717.5,97.5 Z"/></g>
<g><path style="opacity:1" fill="#c9362b" d="M 363.5,96.5 C 364.82,99.2799 365.32,102.28 365,105.5C 364.044,104.106 362.711,103.439 361,103.5C 358.5,104 356,104.5 353.5,105C 356.226,107.03 359.226,108.53 362.5,109.5C 363.647,109.182 364.481,108.516 365,107.5C 365.673,110.521 366.007,113.521 366,116.5C 365.044,115.106 363.711,114.439 362,114.5C 357.856,115.164 353.689,115.664 349.5,116C 349,116.5 348.5,117 348,117.5C 347.327,114.479 346.993,111.479 347,108.5C 347.368,109.91 348.201,110.91 349.5,111.5C 352.777,110.746 356.11,110.246 359.5,110C 355.921,108.294 352.421,106.461 349,104.5C 348.085,105.328 347.419,106.328 347,107.5C 346.465,104.439 346.132,101.439 346,98.5C 346.739,99.5742 347.739,100.241 349,100.5C 353.127,99.7608 357.294,99.2608 361.5,99C 362.756,98.5831 363.423,97.7498 363.5,96.5 Z"/></g>
<g><path style="opacity:1" fill="#c9362b" d="M 739.5,96.5 C 740.82,99.2799 741.32,102.28 741,105.5C 740.044,104.106 738.711,103.439 737,103.5C 734.5,104 732,104.5 729.5,105C 732.226,107.03 735.226,108.53 738.5,109.5C 739.647,109.182 740.481,108.516 741,107.5C 741.673,110.521 742.007,113.521 742,116.5C 741.044,115.106 739.711,114.439 738,114.5C 733.856,115.164 729.689,115.664 725.5,116C 725,116.5 724.5,117 724,117.5C 723.327,114.479 722.993,111.479 723,108.5C 723.368,109.91 724.201,110.91 725.5,111.5C 728.777,110.746 732.11,110.246 735.5,110C 731.921,108.294 728.421,106.461 725,104.5C 724.085,105.328 723.419,106.328 723,107.5C 722.465,104.439 722.132,101.439 722,98.5C 722.739,99.5742 723.739,100.241 725,100.5C 729.127,99.7608 733.294,99.2608 737.5,99C 738.756,98.5831 739.423,97.7498 739.5,96.5 Z"/></g>
<g><path style="opacity:1" fill="#d76463" d="M 26.5,113.5 C 27.8333,112.167 27.8333,110.833 26.5,109.5C 26.7828,108.711 27.2828,108.044 28,107.5C 28.6667,110.5 28.6667,113.5 28,116.5C 27.4867,115.473 26.9867,114.473 26.5,113.5 Z"/></g>
<g><path style="opacity:1" fill="#d76463" d="M 402.5,113.5 C 403.833,112.167 403.833,110.833 402.5,109.5C 402.783,108.711 403.283,108.044 404,107.5C 404.667,110.5 404.667,113.5 404,116.5C 403.487,115.473 402.987,114.473 402.5,113.5 Z"/></g>
<g><path style="opacity:1" fill="#c62e25" d="M 26.5,109.5 C 27.8333,110.833 27.8333,112.167 26.5,113.5C 24.1432,113.337 21.8098,113.503 19.5,114C 21.9066,116.285 24.4066,118.451 27,120.5C 27.4955,122.473 27.6621,124.473 27.5,126.5C 25.1766,124.35 22.6766,122.35 20,120.5C 12.4114,125.127 8.9114,122.794 9.5,113.5C 9.66667,111.167 9.83333,108.833 10,106.5C 15.1797,108.512 20.6797,109.512 26.5,109.5 Z M 10.5,113.5 C 13.1667,113.5 15.8333,113.5 18.5,113.5C 18.4651,118.378 16.1318,119.711 11.5,117.5C 10.7542,116.264 10.4208,114.93 10.5,113.5 Z"/></g>
<g><path style="opacity:1" fill="#c62e25" d="M 402.5,109.5 C 403.833,110.833 403.833,112.167 402.5,113.5C 400.143,113.337 397.81,113.503 395.5,114C 397.907,116.285 400.407,118.451 403,120.5C 403.495,122.473 403.662,124.473 403.5,126.5C 401.177,124.35 398.677,122.35 396,120.5C 388.411,125.127 384.911,122.794 385.5,113.5C 385.667,111.167 385.833,108.833 386,106.5C 391.18,108.512 396.68,109.512 402.5,109.5 Z M 386.5,113.5 C 389.167,113.5 391.833,113.5 394.5,113.5C 394.465,118.378 392.132,119.711 387.5,117.5C 386.754,116.264 386.421,114.93 386.5,113.5 Z"/></g>
<g><path style="opacity:1" fill="#fefdfc" d="M 191.5,124.5 C 209.466,142.634 227.299,160.967 245,179.5C 245.507,180.996 245.007,182.163 243.5,183C 226.945,190.69 209.779,192.523 192,188.5C 191.5,167.169 191.333,145.836 191.5,124.5 Z"/></g>
<g><path style="opacity:1" fill="#c9362d" d="M 350.5,143.5 C 347.95,143.116 346.617,141.616 346.5,139C 347.123,135.519 347.623,132.019 348,128.5C 349.333,129.833 350.667,129.833 352,128.5C 352.497,126.19 352.663,123.857 352.5,121.5C 350.856,121.286 349.356,121.62 348,122.5C 347.219,121.056 347.386,119.723 348.5,118.5C 354.293,121.23 359.96,124.23 365.5,127.5C 360.244,130.089 354.911,132.589 349.5,135C 350.38,136.356 350.714,137.856 350.5,139.5C 349.448,139.351 348.448,139.517 347.5,140C 348.71,141.039 349.71,142.206 350.5,143.5 Z M 353.5,123.5 C 360.167,124.833 360.167,126.167 353.5,127.5C 353.5,126.167 353.5,124.833 353.5,123.5 Z"/></g>
<g><path style="opacity:1" fill="#fefdfc" d="M 567.5,124.5 C 585.466,142.634 603.299,160.967 621,179.5C 621.507,180.996 621.007,182.163 619.5,183C 602.945,190.69 585.779,192.523 568,188.5C 567.5,167.169 567.333,145.836 567.5,124.5 Z"/></g>
<g><path style="opacity:1" fill="#c9362d" d="M 726.5,143.5 C 723.95,143.116 722.617,141.616 722.5,139C 723.123,135.519 723.623,132.019 724,128.5C 725.333,129.833 726.667,129.833 728,128.5C 728.497,126.19 728.663,123.857 728.5,121.5C 726.856,121.286 725.356,121.62 724,122.5C 723.219,121.056 723.386,119.723 724.5,118.5C 730.293,121.23 735.96,124.23 741.5,127.5C 736.244,130.089 730.911,132.589 725.5,135C 726.38,136.356 726.714,137.856 726.5,139.5C 725.448,139.351 724.448,139.517 723.5,140C 724.71,141.039 725.71,142.206 726.5,143.5 Z M 729.5,123.5 C 736.167,124.833 736.167,126.167 729.5,127.5C 729.5,126.167 729.5,124.833 729.5,123.5 Z"/></g>
<g><path style="opacity:1" fill="#c9372c" d="M 27.5,126.5 C 28.6378,129.304 28.8045,132.304 28,135.5C 27.3109,134.643 26.4776,133.977 25.5,133.5C 22.557,134.244 19.557,134.744 16.5,135C 19.9121,136.455 23.0788,138.288 26,140.5C 27,139.833 28,139.167 29,138.5C 29.6667,141.5 29.6667,144.5 29,147.5C 28.5917,145.59 27.4251,144.59 25.5,144.5C 21.1965,145.21 16.8632,145.71 12.5,146C 11.8742,146.75 11.3742,147.584 11,148.5C 10.3333,145.5 10.3333,142.5 11,139.5C 14.7436,140.626 18.577,140.793 22.5,140C 19.3272,137.913 15.9939,136.079 12.5,134.5C 11.5224,134.977 10.6891,135.643 10,136.5C 9.33333,133.5 9.33333,130.5 10,127.5C 10.3678,128.91 11.2011,129.91 12.5,130.5C 17.1133,129.721 21.78,129.221 26.5,129C 27.2524,128.329 27.5858,127.496 27.5,126.5 Z"/></g>
<g><path style="opacity:1" fill="#c9372c" d="M 403.5,126.5 C 404.638,129.304 404.805,132.304 404,135.5C 403.311,134.643 402.478,133.977 401.5,133.5C 398.557,134.244 395.557,134.744 392.5,135C 395.912,136.455 399.079,138.288 402,140.5C 403,139.833 404,139.167 405,138.5C 405.667,141.5 405.667,144.5 405,147.5C 404.592,145.59 403.425,144.59 401.5,144.5C 397.196,145.21 392.863,145.71 388.5,146C 387.874,146.75 387.374,147.584 387,148.5C 386.333,145.5 386.333,142.5 387,139.5C 390.744,140.626 394.577,140.793 398.5,140C 395.327,137.913 391.994,136.079 388.5,134.5C 387.522,134.977 386.689,135.643 386,136.5C 385.333,133.5 385.333,130.5 386,127.5C 386.368,128.91 387.201,129.91 388.5,130.5C 393.113,129.721 397.78,129.221 402.5,129C 403.252,128.329 403.586,127.496 403.5,126.5 Z"/></g>
<g><path style="opacity:1" fill="#c9382e" d="M 350.5,143.5 C 353.508,143.701 356.508,144.034 359.5,144.5C 361.32,144.351 362.82,143.684 364,142.5C 364.25,147.514 363.916,152.514 363,157.5C 362.5,156.333 361.667,155.5 360.5,155C 356.661,154.541 352.828,154.041 349,153.5C 347.342,153.675 346.009,154.342 345,155.5C 344.542,152.442 344.876,149.442 346,146.5C 347.098,147.967 348.598,148.801 350.5,149C 354.528,149.392 358.528,149.892 362.5,150.5C 362.762,149.022 362.429,147.689 361.5,146.5C 357.594,145.956 353.927,144.956 350.5,143.5 Z"/></g>
<g><path style="opacity:1" fill="#c9382e" d="M 726.5,143.5 C 729.508,143.701 732.508,144.034 735.5,144.5C 737.32,144.351 738.82,143.684 740,142.5C 740.25,147.514 739.916,152.514 739,157.5C 738.5,156.333 737.667,155.5 736.5,155C 732.661,154.541 728.828,154.041 725,153.5C 723.342,153.675 722.009,154.342 721,155.5C 720.542,152.442 720.876,149.442 722,146.5C 723.098,147.967 724.598,148.801 726.5,149C 730.528,149.392 734.528,149.892 738.5,150.5C 738.762,149.022 738.429,147.689 737.5,146.5C 733.594,145.956 729.927,144.956 726.5,143.5 Z"/></g>
<g><path style="opacity:1" fill="#e39897" d="M 343.5,156.5 C 344.833,157.167 344.833,157.167 343.5,156.5 Z"/></g>
<g><path style="opacity:1" fill="#e39897" d="M 719.5,156.5 C 720.833,157.167 720.833,157.167 719.5,156.5 Z"/></g>
<g><path style="opacity:1" fill="#c83229" d="M 26.5,150.5 C 26.56,149.957 26.8933,149.624 27.5,149.5C 34.1389,155.248 34.1389,161.081 27.5,167C 17.4345,168.921 12.7679,164.921 13.5,155C 12.8333,154.333 12.1667,153.667 11.5,153C 13.4473,152.009 15.4473,151.675 17.5,152C 12.8087,157.364 13.8087,161.198 20.5,163.5C 23.9919,162.839 27.1586,161.506 30,159.5C 31.3359,155.438 30.1692,152.438 26.5,150.5 Z"/></g>
<g><path style="opacity:1" fill="#c83229" d="M 402.5,150.5 C 402.56,149.957 402.893,149.624 403.5,149.5C 410.139,155.248 410.139,161.081 403.5,167C 393.435,168.921 388.768,164.921 389.5,155C 388.833,154.333 388.167,153.667 387.5,153C 389.447,152.009 391.447,151.675 393.5,152C 388.809,157.364 389.809,161.198 396.5,163.5C 399.992,162.839 403.159,161.506 406,159.5C 407.336,155.438 406.169,152.438 402.5,150.5 Z"/></g>
<g><path style="opacity:1" fill="#c8342a" d="M 343.5,157.5 C 343.611,158.117 343.944,158.617 344.5,159C 349.918,161.242 355.418,162.075 361,161.5C 360.831,164.519 360.164,167.519 359,170.5C 358.517,169.552 358.351,168.552 358.5,167.5C 355.211,166.452 351.878,165.952 348.5,166C 350.907,168.702 353.407,171.202 356,173.5C 356.945,173.095 357.612,172.428 358,171.5C 358.138,174.621 357.471,177.621 356,180.5C 355.626,179.584 355.126,178.75 354.5,178C 350.195,176.732 345.862,175.565 341.5,174.5C 340.558,174.608 339.725,174.941 339,175.5C 338.82,172.691 339.487,170.024 341,167.5C 341.374,168.416 341.874,169.25 342.5,170C 345.43,170.606 348.263,171.44 351,172.5C 349.763,169.224 347.597,166.391 344.5,164C 343.551,163.383 342.718,163.549 342,164.5C 341.725,161.942 342.225,159.608 343.5,157.5 Z"/></g>
<g><path style="opacity:1" fill="#c8342a" d="M 719.5,157.5 C 719.611,158.117 719.944,158.617 720.5,159C 725.918,161.242 731.418,162.075 737,161.5C 736.831,164.519 736.164,167.519 735,170.5C 734.517,169.552 734.351,168.552 734.5,167.5C 731.211,166.452 727.878,165.952 724.5,166C 726.907,168.702 729.407,171.202 732,173.5C 732.945,173.095 733.612,172.428 734,171.5C 734.138,174.621 733.471,177.621 732,180.5C 731.626,179.584 731.126,178.75 730.5,178C 726.195,176.732 721.862,175.565 717.5,174.5C 716.558,174.608 715.725,174.941 715,175.5C 714.82,172.691 715.487,170.024 717,167.5C 717.374,168.416 717.874,169.25 718.5,170C 721.43,170.606 724.263,171.44 727,172.5C 725.763,169.224 723.597,166.391 720.5,164C 719.551,163.383 718.718,163.549 718,164.5C 717.725,161.942 718.225,159.608 719.5,157.5 Z"/></g>
<g><path style="opacity:1" fill="#fefcfc" d="M 135.5,170.5 C 144.1,178.468 153.1,185.968 162.5,193C 169.847,197.675 177.514,201.842 185.5,205.5C 186.66,209.459 186.827,213.459 186,217.5C 175.376,210.969 163.876,208.469 151.5,210C 139.733,214.424 127.733,217.924 115.5,220.5C 113.481,212.25 112.315,203.917 112,195.5C 115.308,189.05 119.474,183.217 124.5,178C 129.176,176.85 132.842,174.35 135.5,170.5 Z"/></g>
<g><path style="opacity:1" fill="#fefcfc" d="M 511.5,170.5 C 520.1,178.468 529.1,185.968 538.5,193C 545.847,197.675 553.514,201.842 561.5,205.5C 562.66,209.459 562.827,213.459 562,217.5C 551.376,210.969 539.876,208.469 527.5,210C 515.733,214.424 503.733,217.924 491.5,220.5C 489.481,212.25 488.315,203.917 488,195.5C 491.308,189.05 495.474,183.217 500.5,178C 505.176,176.85 508.842,174.35 511.5,170.5 Z"/></g>
<g><path style="opacity:1" fill="#c9382e" d="M 30.5,168.5 C 32.7569,167.197 34.5902,167.864 36,170.5C 39.7901,180.774 36.2901,185.941 25.5,186C 23.4127,185.208 21.5793,184.041 20,182.5C 18.456,179.095 17.2893,175.595 16.5,172C 18.4473,171.009 20.4473,170.675 22.5,171C 18.5,174.333 18.5,177.667 22.5,181C 27.3434,182.214 31.51,181.047 35,177.5C 36.5779,172.843 35.0779,169.843 30.5,168.5 Z"/></g>
<g><path style="opacity:1" fill="#c9382e" d="M 406.5,168.5 C 408.757,167.197 410.59,167.864 412,170.5C 415.79,180.774 412.29,185.941 401.5,186C 399.413,185.208 397.579,184.041 396,182.5C 394.456,179.095 393.289,175.595 392.5,172C 394.447,171.009 396.447,170.675 398.5,171C 394.5,174.333 394.5,177.667 398.5,181C 403.343,182.214 407.51,181.047 411,177.5C 412.578,172.843 411.078,169.843 406.5,168.5 Z"/></g>
<g><path style="opacity:1" fill="#c73128" d="M 337.5,177.5 C 339.657,178.053 339.49,179.053 337,180.5C 335.76,183.906 336.927,185.573 340.5,185.5C 342.58,185.314 344.08,184.314 345,182.5C 344.471,187.643 346.638,189.476 351.5,188C 352.022,187.439 352.355,186.772 352.5,186C 348.286,181.106 348.953,180.439 354.5,184C 353.793,186.52 352.96,189.02 352,191.5C 347.557,194.806 344.557,193.806 343,188.5C 338.217,191.883 335.384,190.716 334.5,185C 334.548,182.078 335.548,179.578 337.5,177.5 Z"/></g>
<g><path style="opacity:1" fill="#c73128" d="M 713.5,177.5 C 715.657,178.053 715.49,179.053 713,180.5C 711.76,183.906 712.927,185.573 716.5,185.5C 718.58,185.314 720.08,184.314 721,182.5C 720.471,187.643 722.638,189.476 727.5,188C 728.022,187.439 728.355,186.772 728.5,186C 724.286,181.106 724.953,180.439 730.5,184C 729.793,186.52 728.96,189.02 728,191.5C 723.557,194.806 720.557,193.806 719,188.5C 714.217,191.883 711.384,190.716 710.5,185C 710.548,182.078 711.548,179.578 713.5,177.5 Z"/></g>
<g><path style="opacity:1" fill="#d86e6d" d="M 329.5,195.5 C 328.833,196.167 328.833,196.167 329.5,195.5 Z"/></g>
<g><path style="opacity:1" fill="#d86e6d" d="M 705.5,195.5 C 704.833,196.167 704.833,196.167 705.5,195.5 Z"/></g>
<g><path style="opacity:1" fill="#c62e25" d="M 29.5,202.5 C 28.8826,202.389 28.3826,202.056 28,201.5C 26.2842,191.549 30.4509,187.049 40.5,188C 46.0248,190.919 47.8581,195.419 46,201.5C 42.4876,207.169 37.6543,208.669 31.5,206C 30.1772,205.184 29.5106,204.017 29.5,202.5 Z M 29.5,202.5 C 28.1885,199.584 28.8552,197.084 31.5,195C 35.3027,191.841 39.4693,191.008 44,192.5C 45.1734,196.305 44.0067,199.139 40.5,201C 37.0125,203.295 33.3458,203.795 29.5,202.5 Z"/></g>
<g><path style="opacity:1" fill="#fdf6f6" d="M 258.5,196.5 C 262.171,197.329 264.838,199.496 266.5,203C 265.337,208.479 264.337,213.979 263.5,219.5C 260.09,219.543 256.757,219.043 253.5,218C 245.122,214.986 236.789,211.986 228.5,209C 239.403,206.707 249.403,202.54 258.5,196.5 Z"/></g>
<g><path style="opacity:1" fill="#c62e25" d="M 405.5,202.5 C 404.883,202.389 404.383,202.056 404,201.5C 402.284,191.549 406.451,187.049 416.5,188C 422.025,190.919 423.858,195.419 422,201.5C 418.488,207.169 413.654,208.669 407.5,206C 406.177,205.184 405.511,204.017 405.5,202.5 Z M 405.5,202.5 C 404.189,199.584 404.855,197.084 407.5,195C 411.303,191.841 415.469,191.008 420,192.5C 421.173,196.305 420.007,199.139 416.5,201C 413.013,203.295 409.346,203.795 405.5,202.5 Z"/></g>
<g><path style="opacity:1" fill="#fdf6f6" d="M 634.5,196.5 C 638.171,197.329 640.838,199.496 642.5,203C 641.337,208.479 640.337,213.979 639.5,219.5C 636.09,219.543 632.757,219.043 629.5,218C 621.122,214.986 612.789,211.986 604.5,209C 615.403,206.707 625.403,202.54 634.5,196.5 Z"/></g>
<g><path style="opacity:1" fill="#d55c56" d="M 344.5,201.5 C 341.833,202.833 339.167,202.833 336.5,201.5C 338.199,201.66 339.866,201.494 341.5,201C 337.856,198.344 333.856,196.511 329.5,195.5C 329.709,194.078 330.209,192.745 331,191.5C 331.465,192.931 332.299,194.097 333.5,195C 337.23,197.193 340.897,199.36 344.5,201.5 Z"/></g>
<g><path style="opacity:1" fill="#d55c56" d="M 720.5,201.5 C 717.833,202.833 715.167,202.833 712.5,201.5C 714.199,201.66 715.866,201.494 717.5,201C 713.856,198.344 709.856,196.511 705.5,195.5C 705.709,194.078 706.209,192.745 707,191.5C 707.465,192.931 708.299,194.097 709.5,195C 713.23,197.193 716.897,199.36 720.5,201.5 Z"/></g>
<g><path style="opacity:1" fill="#d76b6a" d="M 346.5,200.5 C 347.833,201.167 347.833,201.167 346.5,200.5 Z"/></g>
<g><path style="opacity:1" fill="#d76b6a" d="M 722.5,200.5 C 723.833,201.167 723.833,201.167 722.5,200.5 Z"/></g>
<g><path style="opacity:1" fill="#c62d23" d="M 336.5,201.5 C 339.167,202.833 341.833,202.833 344.5,201.5C 345.167,201.5 345.833,201.5 346.5,201.5C 346.249,203.17 345.582,204.67 344.5,206C 340.134,206.363 335.801,206.363 331.5,206C 332.823,206.816 333.489,207.983 333.5,209.5C 330.713,207.28 328.38,204.614 326.5,201.5C 329.77,200.808 333.103,200.808 336.5,201.5 Z"/></g>
<g><path style="opacity:1" fill="#c62d23" d="M 712.5,201.5 C 715.167,202.833 717.833,202.833 720.5,201.5C 721.167,201.5 721.833,201.5 722.5,201.5C 722.249,203.17 721.582,204.67 720.5,206C 716.134,206.363 711.801,206.363 707.5,206C 708.823,206.816 709.489,207.983 709.5,209.5C 706.713,207.28 704.38,204.614 702.5,201.5C 705.77,200.808 709.103,200.808 712.5,201.5 Z"/></g>
<g><path style="opacity:1" fill="#e49e9d" d="M 323.5,205.5 C 324.833,206.167 324.833,206.167 323.5,205.5 Z"/></g>
<g><path style="opacity:1" fill="#e49e9d" d="M 699.5,205.5 C 700.833,206.167 700.833,206.167 699.5,205.5 Z"/></g>
<g><path style="opacity:1" fill="#fcf1f0" d="M 191.5,207.5 C 197.415,208.792 203.415,209.626 209.5,210C 203.487,212.09 197.654,214.59 192,217.5C 191.502,214.183 191.335,210.85 191.5,207.5 Z"/></g>
<g><path style="opacity:1" fill="#c8342a" d="M 323.5,206.5 C 326.944,209.796 330.944,211.963 335.5,213C 334.177,212.184 333.511,211.017 333.5,209.5C 336.002,211.17 338.002,213.336 339.5,216C 337.959,217.579 336.792,219.413 336,221.5C 332.241,217.275 327.574,214.275 322,212.5C 321.228,212.645 320.561,212.978 320,213.5C 320.085,210.664 321.251,208.331 323.5,206.5 Z"/></g>
<g><path style="opacity:1" fill="#fcf1f0" d="M 567.5,207.5 C 573.415,208.792 579.415,209.626 585.5,210C 579.487,212.09 573.654,214.59 568,217.5C 567.502,214.183 567.335,210.85 567.5,207.5 Z"/></g>
<g><path style="opacity:1" fill="#c8342a" d="M 699.5,206.5 C 702.944,209.796 706.944,211.963 711.5,213C 710.177,212.184 709.511,211.017 709.5,209.5C 712.002,211.17 714.002,213.336 715.5,216C 713.959,217.579 712.792,219.413 712,221.5C 708.241,217.275 703.574,214.275 698,212.5C 697.228,212.645 696.561,212.978 696,213.5C 696.085,210.664 697.251,208.331 699.5,206.5 Z"/></g>
<g><path style="opacity:1" fill="#c83429" d="M 42.5,224.5 C 39.8742,221.422 37.8742,217.922 36.5,214C 37.2251,209.916 39.5584,208.582 43.5,210C 45.5524,210.93 47.0524,212.43 48,214.5C 50.7215,213.155 52.7215,211.155 54,208.5C 55.9343,211.034 57.2677,213.701 58,216.5C 57.3333,215.833 56.6667,215.167 56,214.5C 51.1649,217.489 46.6649,220.822 42.5,224.5 Z M 41.5,213.5 C 43.4286,213.231 45.0953,213.731 46.5,215C 44.4732,216.879 42.1398,218.046 39.5,218.5C 39.3915,216.486 40.0582,214.82 41.5,213.5 Z"/></g>
<g><path style="opacity:1" fill="#c83429" d="M 418.5,224.5 C 415.874,221.422 413.874,217.922 412.5,214C 413.225,209.916 415.558,208.582 419.5,210C 421.552,210.93 423.052,212.43 424,214.5C 426.722,213.155 428.722,211.155 430,208.5C 431.934,211.034 433.268,213.701 434,216.5C 433.333,215.833 432.667,215.167 432,214.5C 427.165,217.489 422.665,220.822 418.5,224.5 Z M 417.5,213.5 C 419.429,213.231 421.095,213.731 422.5,215C 420.473,216.879 418.14,218.046 415.5,218.5C 415.392,216.486 416.058,214.82 417.5,213.5 Z"/></g>
<g><path style="opacity:1" fill="#df8a89" d="M 42.5,224.5 C 43.8333,225.167 43.8333,225.167 42.5,224.5 Z"/></g>
<g><path style="opacity:1" fill="#c52820" d="M 318.5,224.5 C 324.951,224.092 326.618,226.592 323.5,232C 317.785,232.401 316.119,229.901 318.5,224.5 Z"/></g>
<g><path style="opacity:1" fill="#df8a89" d="M 418.5,224.5 C 419.833,225.167 419.833,225.167 418.5,224.5 Z"/></g>
<g><path style="opacity:1" fill="#c52820" d="M 694.5,224.5 C 700.951,224.092 702.618,226.592 699.5,232C 693.785,232.401 692.119,229.901 694.5,224.5 Z"/></g>
<g><path style="opacity:1" fill="#c52920" d="M 57.5,228.5 C 61.0602,227.891 63.0602,229.391 63.5,233C 61.9269,236.452 59.4269,237.286 56,235.5C 55.1668,232.829 55.6668,230.496 57.5,228.5 Z"/></g>
<g><path style="opacity:1" fill="#c52920" d="M 433.5,228.5 C 437.06,227.891 439.06,229.391 439.5,233C 437.927,236.452 435.427,237.286 432,235.5C 431.167,232.829 431.667,230.496 433.5,228.5 Z"/></g>
<g><path style="opacity:1" fill="#c01310" d="M 303.5,244.5 C 313.167,244.5 322.833,244.5 332.5,244.5C 332.5,249.167 332.5,253.833 332.5,258.5C 346.921,255.784 357.421,260.784 364,273.5C 369.689,289.19 368.355,304.19 360,318.5C 352.668,326.777 343.501,329.777 332.5,327.5C 332.5,332.833 332.5,338.167 332.5,343.5C 322.833,343.5 313.167,343.5 303.5,343.5C 303.5,338.167 303.5,332.833 303.5,327.5C 288.284,330.312 277.784,324.645 272,310.5C 266.888,296.063 267.888,282.063 275,268.5C 282.483,259.745 291.983,256.412 303.5,258.5C 303.5,253.833 303.5,249.167 303.5,244.5 Z M 302.5,278.5 C 303.833,287.833 303.833,297.167 302.5,306.5C 295.744,304.336 293.078,299.669 294.5,292.5C 294.463,288.744 294.963,285.078 296,281.5C 297.734,279.549 299.901,278.549 302.5,278.5 Z M 332.5,278.5 C 335.505,278.253 338.005,279.253 340,281.5C 342.924,288.011 343.258,294.678 341,301.5C 339.009,304.58 336.175,306.246 332.5,306.5C 332.5,297.167 332.5,287.833 332.5,278.5 Z"/></g>
<g><path style="opacity:1" fill="#c01310" d="M 679.5,244.5 C 689.167,244.5 698.833,244.5 708.5,244.5C 708.5,249.167 708.5,253.833 708.5,258.5C 722.921,255.784 733.421,260.784 740,273.5C 745.689,289.19 744.355,304.19 736,318.5C 728.668,326.777 719.501,329.777 708.5,327.5C 708.5,332.833 708.5,338.167 708.5,343.5C 698.833,343.5 689.167,343.5 679.5,343.5C 679.5,338.167 679.5,332.833 679.5,327.5C 664.284,330.312 653.784,324.645 648,310.5C 642.888,296.063 643.888,282.063 651,268.5C 658.483,259.745 667.983,256.412 679.5,258.5C 679.5,253.833 679.5,249.167 679.5,244.5 Z M 678.5,278.5 C 679.833,287.833 679.833,297.167 678.5,306.5C 671.744,304.336 669.078,299.669 670.5,292.5C 670.463,288.744 670.963,285.078 672,281.5C 673.734,279.549 675.901,278.549 678.5,278.5 Z M 708.5,278.5 C 711.505,278.253 714.005,279.253 716,281.5C 718.924,288.011 719.258,294.678 717,301.5C 715.009,304.58 712.175,306.246 708.5,306.5C 708.5,297.167 708.5,287.833 708.5,278.5 Z"/></g>
<g><path style="opacity:1" fill="#c01310" d="M 11.5,254.5 C 21.1667,254.5 30.8333,254.5 40.5,254.5C 40.3335,266.171 40.5001,277.838 41,289.5C 46.7723,278.289 52.2723,266.956 57.5,255.5C 67.8333,254.167 78.1667,254.167 88.5,255.5C 80.9498,268.549 73.6164,281.716 66.5,295C 75.2396,311.146 84.2396,327.146 93.5,343C 82.1667,343.667 70.8333,343.667 59.5,343C 53.4614,330.423 47.2947,317.923 41,305.5C 40.5001,318.162 40.3334,330.829 40.5,343.5C 30.8333,343.5 21.1667,343.5 11.5,343.5C 11.5,313.833 11.5,284.167 11.5,254.5 Z"/></g>
<g><path style="opacity:1" fill="#c0130f" d="M 123.5,253.5 C 141.151,253.176 158.818,253.509 176.5,254.5C 176.5,284.167 176.5,313.833 176.5,343.5C 166.833,343.5 157.167,343.5 147.5,343.5C 147.5,321.5 147.5,299.5 147.5,277.5C 141.167,277.5 134.833,277.5 128.5,277.5C 128.5,299.5 128.5,321.5 128.5,343.5C 119.167,343.5 109.833,343.5 100.5,343.5C 100.5,313.833 100.5,284.167 100.5,254.5C 108.352,254.825 116.018,254.492 123.5,253.5 Z"/></g>
<g><path style="opacity:1" fill="#bf100e" d="M 187.5,254.5 C 206.836,254.333 226.17,254.5 245.5,255C 252.732,257.899 257.565,263.066 260,270.5C 265.179,286.641 261.679,300.474 249.5,312C 247.043,313.562 244.376,314.562 241.5,315C 232.84,315.5 224.173,315.666 215.5,315.5C 215.5,324.833 215.5,334.167 215.5,343.5C 206.167,343.5 196.833,343.5 187.5,343.5C 187.5,313.833 187.5,284.167 187.5,254.5 Z M 215.5,272.5 C 222.451,271.428 228.285,273.428 233,278.5C 233.667,281.833 233.667,285.167 233,288.5C 232.535,289.931 231.701,291.097 230.5,292C 225.716,294.032 220.716,294.866 215.5,294.5C 215.5,287.167 215.5,279.833 215.5,272.5 Z"/></g>
<g><path style="opacity:1" fill="#c01310" d="M 387.5,254.5 C 397.167,254.5 406.833,254.5 416.5,254.5C 416.333,266.171 416.5,277.838 417,289.5C 422.772,278.289 428.272,266.956 433.5,255.5C 443.833,254.167 454.167,254.167 464.5,255.5C 456.95,268.549 449.616,281.716 442.5,295C 451.24,311.146 460.24,327.146 469.5,343C 458.167,343.667 446.833,343.667 435.5,343C 429.461,330.423 423.295,317.923 417,305.5C 416.5,318.162 416.333,330.829 416.5,343.5C 406.833,343.5 397.167,343.5 387.5,343.5C 387.5,313.833 387.5,284.167 387.5,254.5 Z"/></g>
<g><path style="opacity:1" fill="#c0130f" d="M 499.5,253.5 C 517.151,253.176 534.818,253.509 552.5,254.5C 552.5,284.167 552.5,313.833 552.5,343.5C 542.833,343.5 533.167,343.5 523.5,343.5C 523.5,321.5 523.5,299.5 523.5,277.5C 517.167,277.5 510.833,277.5 504.5,277.5C 504.5,299.5 504.5,321.5 504.5,343.5C 495.167,343.5 485.833,343.5 476.5,343.5C 476.5,313.833 476.5,284.167 476.5,254.5C 484.352,254.825 492.018,254.492 499.5,253.5 Z"/></g>
<g><path style="opacity:1" fill="#bf100e" d="M 563.5,254.5 C 582.836,254.333 602.17,254.5 621.5,255C 628.732,257.899 633.565,263.066 636,270.5C 641.179,286.641 637.679,300.474 625.5,312C 623.043,313.562 620.376,314.562 617.5,315C 608.84,315.5 600.173,315.666 591.5,315.5C 591.5,324.833 591.5,334.167 591.5,343.5C 582.167,343.5 572.833,343.5 563.5,343.5C 563.5,313.833 563.5,284.167 563.5,254.5 Z M 591.5,272.5 C 598.451,271.428 604.285,273.428 609,278.5C 609.667,281.833 609.667,285.167 609,288.5C 608.535,289.931 607.701,291.097 606.5,292C 601.716,294.032 596.716,294.866 591.5,294.5C 591.5,287.167 591.5,279.833 591.5,272.5 Z"/></g>
<g><path style="opacity:1" fill="#df8786" d="M 302.5,278.5 C 302.56,277.957 302.893,277.624 303.5,277.5C 304.833,287.5 304.833,297.5 303.5,307.5C 302.893,307.376 302.56,307.043 302.5,306.5C 303.833,297.167 303.833,287.833 302.5,278.5 Z"/></g>
<g><path style="opacity:1" fill="#df8786" d="M 678.5,278.5 C 678.56,277.957 678.893,277.624 679.5,277.5C 680.833,287.5 680.833,297.5 679.5,307.5C 678.893,307.376 678.56,307.043 678.5,306.5C 679.833,297.167 679.833,287.833 678.5,278.5 Z"/></g>
</svg>
