<?xml version="1.0" encoding="UTF-8"?>
<!DOCTYPE svg PUBLIC "-//W3C//DTD SVG 1.1//EN" "http://www.w3.org/Graphics/SVG/1.1/DTD/svg11.dtd">
<svg xmlns="http://www.w3.org/2000/svg" version="1.1" width="1103px" height="700px" style="shape-rendering:geometricPrecision; text-rendering:geometricPrecision; image-rendering:optimizeQuality; fill-rule:evenodd; clip-rule:evenodd" xmlns:xlink="http://www.w3.org/1999/xlink">
<g><path style="opacity:0.967" fill="#304fa5" d="M 248.5,-0.5 C 261.167,-0.5 273.833,-0.5 286.5,-0.5C 300.802,1.71462 314.136,6.71462 326.5,14.5C 327.36,19.255 326.36,23.5883 323.5,27.5C 319.917,24.4331 315.917,21.9331 311.5,20C 302.39,16.778 293.057,14.4447 283.5,13C 246.226,10.4679 209.893,15.1346 174.5,27C 135.376,39.5636 99.0424,57.3969 65.5,80.5C 67.5078,74.9643 70.1744,69.7976 73.5,65C 126.522,29.1634 184.855,7.33006 248.5,-0.5 Z"/></g>
<g><path style="opacity:0.967" fill="#304fa5" d="M 799.5,-0.5 C 812.167,-0.5 824.833,-0.5 837.5,-0.5C 851.802,1.71462 865.136,6.71462 877.5,14.5C 878.36,19.255 877.36,23.5883 874.5,27.5C 870.917,24.4331 866.917,21.9331 862.5,20C 853.39,16.778 844.057,14.4447 834.5,13C 797.226,10.4679 760.893,15.1346 725.5,27C 686.376,39.5636 650.042,57.3969 616.5,80.5C 618.508,74.9643 621.174,69.7976 624.5,65C 677.522,29.1634 735.855,7.33006 799.5,-0.5 Z"/></g>
<g><path style="opacity:0.995" fill="#fdfefe" d="M 323.5,27.5 C 321.167,35.5 318.833,43.5 316.5,51.5C 313.095,55.03 311.429,59.3633 311.5,64.5C 335.182,63.2907 358.849,61.7907 382.5,60C 418.545,55.9163 452.545,62.2497 484.5,79C 517.804,99.1023 538.137,128.269 545.5,166.5C 545.89,169.839 546.39,173.173 547,176.5C 547.383,177.056 547.883,177.389 548.5,177.5C 552.481,206.166 552.481,234.832 548.5,263.5C 550.862,192.72 518.529,146.22 451.5,124C 423.314,116.447 394.648,113.78 365.5,116C 340.872,118.386 316.205,120.219 291.5,121.5C 295.903,108.066 300.236,94.5659 304.5,81C 304.355,80.228 304.022,79.5613 303.5,79C 277.405,68.9364 250.405,65.6031 222.5,69C 157.964,75.785 98.9645,97.285 45.5,133.5C 52.5596,115.989 59.2262,98.3221 65.5,80.5C 99.0424,57.3969 135.376,39.5636 174.5,27C 209.893,15.1346 246.226,10.4679 283.5,13C 293.057,14.4447 302.39,16.778 311.5,20C 315.917,21.9331 319.917,24.4331 323.5,27.5 Z"/></g>
<g><path style="opacity:0.995" fill="#fdfefe" d="M 874.5,27.5 C 872.167,35.5 869.833,43.5 867.5,51.5C 864.095,55.03 862.429,59.3633 862.5,64.5C 886.182,63.2907 909.849,61.7907 933.5,60C 969.545,55.9163 1003.54,62.2497 1035.5,79C 1068.8,99.1023 1089.14,128.269 1096.5,166.5C 1096.89,169.839 1097.39,173.173 1098,176.5C 1098.38,177.056 1098.88,177.389 1099.5,177.5C 1100.56,185.964 1101.56,194.297 1102.5,202.5C 1102.5,214.167 1102.5,225.833 1102.5,237.5C 1101.6,246.04 1100.6,254.707 1099.5,263.5C 1101.86,192.72 1069.53,146.22 1002.5,124C 974.314,116.447 945.648,113.78 916.5,116C 891.872,118.386 867.205,120.219 842.5,121.5C 846.903,108.066 851.236,94.5659 855.5,81C 855.355,80.228 855.022,79.5613 854.5,79C 828.405,68.9364 801.405,65.6031 773.5,69C 708.964,75.785 649.964,97.285 596.5,133.5C 603.56,115.989 610.226,98.3221 616.5,80.5C 650.042,57.3969 686.376,39.5636 725.5,27C 760.893,15.1346 797.226,10.4679 834.5,13C 844.057,14.4447 853.39,16.778 862.5,20C 866.917,21.9331 870.917,24.4331 874.5,27.5 Z"/></g>
<g><path style="opacity:0.965" fill="#304fa4" d="M 546.5,166.5 C 546.167,166.5 545.833,166.5 545.5,166.5C 538.137,128.269 517.804,99.1023 484.5,79C 452.545,62.2497 418.545,55.9163 382.5,60C 358.849,61.7907 335.182,63.2907 311.5,64.5C 311.429,59.3633 313.095,55.03 316.5,51.5C 348.132,48.5762 379.799,46.5762 411.5,45.5C 457.9,45.4533 495.4,63.4533 524,99.5C 538.1,119.544 545.6,141.877 546.5,166.5 Z"/></g>
<g><path style="opacity:0.965" fill="#304fa4" d="M 1097.5,166.5 C 1097.17,166.5 1096.83,166.5 1096.5,166.5C 1089.14,128.269 1068.8,99.1023 1035.5,79C 1003.54,62.2497 969.545,55.9163 933.5,60C 909.849,61.7907 886.182,63.2907 862.5,64.5C 862.429,59.3633 864.095,55.03 867.5,51.5C 899.132,48.5762 930.799,46.5762 962.5,45.5C 1008.9,45.4533 1046.4,63.4533 1075,99.5C 1089.1,119.544 1096.6,141.877 1097.5,166.5 Z"/></g>
<g><path style="opacity:0.999" fill="#0aadee" d="M 548.5,263.5 C 548.07,281.156 546.07,298.49 542.5,315.5C 537.877,239.023 497.877,192.856 422.5,177C 398.991,172.95 375.324,171.617 351.5,173C 324.486,175.126 297.486,177.292 270.5,179.5C 274.458,165.459 279.125,151.626 284.5,138C 284.167,137.5 283.833,137 283.5,136.5C 273.116,132.99 262.45,130.823 251.5,130C 199.751,125.393 149.751,132.726 101.5,152C 73.3441,162.741 47.0107,176.574 22.5,193.5C 30.5934,173.536 38.2601,153.536 45.5,133.5C 98.9645,97.285 157.964,75.785 222.5,69C 250.405,65.6031 277.405,68.9364 303.5,79C 304.022,79.5613 304.355,80.228 304.5,81C 300.236,94.5659 295.903,108.066 291.5,121.5C 316.205,120.219 340.872,118.386 365.5,116C 394.648,113.78 423.314,116.447 451.5,124C 518.529,146.22 550.862,192.72 548.5,263.5 Z"/></g>
<g><path style="opacity:0.999" fill="#0aadee" d="M 1099.5,263.5 C 1099.07,281.156 1097.07,298.49 1093.5,315.5C 1088.88,239.023 1048.88,192.856 973.5,177C 949.991,172.95 926.324,171.617 902.5,173C 875.486,175.126 848.486,177.292 821.5,179.5C 825.458,165.459 830.125,151.626 835.5,138C 835.167,137.5 834.833,137 834.5,136.5C 824.116,132.99 813.45,130.823 802.5,130C 750.751,125.393 700.751,132.726 652.5,152C 624.344,162.741 598.011,176.574 573.5,193.5C 581.593,173.536 589.26,153.536 596.5,133.5C 649.964,97.285 708.964,75.785 773.5,69C 801.405,65.6031 828.405,68.9364 854.5,79C 855.022,79.5613 855.355,80.228 855.5,81C 851.236,94.5659 846.903,108.066 842.5,121.5C 867.205,120.219 891.872,118.386 916.5,116C 945.648,113.78 974.314,116.447 1002.5,124C 1069.53,146.22 1101.86,192.72 1099.5,263.5 Z"/></g>
<g><path style="opacity:0.993" fill="#ec1b2e" d="M 542.5,315.5 C 539.001,368.026 515.334,408.526 471.5,437C 465.224,440.092 458.724,442.592 452,444.5C 450.392,444.026 450.226,443.359 451.5,442.5C 489.283,420.968 509.283,388.302 511.5,344.5C 510.013,298.991 488.679,266.824 447.5,248C 420.236,237.214 391.903,231.547 362.5,231C 348.814,230.385 335.148,230.719 321.5,232C 301.5,234 281.5,236 261.5,238C 251.167,238.667 240.833,238.667 230.5,238C 220.636,236.438 218.136,231.271 223,222.5C 225.5,218.667 228.667,215.5 232.5,213C 239.701,208.302 247.035,203.802 254.5,199.5C 249.139,195.877 243.139,193.71 236.5,193C 213.691,190.534 191.025,191.534 168.5,196C 109.239,208.141 52.906,228.308 -0.5,256.5C -0.5,255.167 -0.5,253.833 -0.5,252.5C 8.12729,233.298 15.794,213.631 22.5,193.5C 47.0107,176.574 73.3441,162.741 101.5,152C 149.751,132.726 199.751,125.393 251.5,130C 262.45,130.823 273.116,132.99 283.5,136.5C 283.833,137 284.167,137.5 284.5,138C 279.125,151.626 274.458,165.459 270.5,179.5C 297.486,177.292 324.486,175.126 351.5,173C 375.324,171.617 398.991,172.95 422.5,177C 497.877,192.856 537.877,239.023 542.5,315.5 Z"/></g>
<g><path style="opacity:0.993" fill="#ec1b2e" d="M 1093.5,315.5 C 1090,368.026 1066.33,408.526 1022.5,437C 1016.22,440.092 1009.72,442.592 1003,444.5C 1001.39,444.026 1001.23,443.359 1002.5,442.5C 1040.28,420.968 1060.28,388.302 1062.5,344.5C 1061.28,304.847 1043.95,274.681 1010.5,254C 985.113,240.902 958.113,233.569 929.5,232C 919.844,231.292 910.177,230.792 900.5,230.5C 871.085,232.008 841.752,234.508 812.5,238C 800.775,238.912 789.108,238.579 777.5,237C 773.693,236.195 771.693,233.861 771.5,230C 773.033,222.604 777.033,216.937 783.5,213C 790.701,208.302 798.035,203.802 805.5,199.5C 800.139,195.877 794.139,193.71 787.5,193C 764.691,190.534 742.025,191.534 719.5,196C 660.376,208.04 604.209,228.207 551,256.5C 550.333,255.167 550.333,253.833 551,252.5C 559.195,233.078 566.695,213.411 573.5,193.5C 598.011,176.574 624.344,162.741 652.5,152C 700.751,132.726 750.751,125.393 802.5,130C 813.45,130.823 824.116,132.99 834.5,136.5C 834.833,137 835.167,137.5 835.5,138C 830.125,151.626 825.458,165.459 821.5,179.5C 848.486,177.292 875.486,175.126 902.5,173C 926.324,171.617 949.991,172.95 973.5,177C 1048.88,192.856 1088.88,239.023 1093.5,315.5 Z"/></g>
<g><path style="opacity:0.992" fill="#8893c9" d="M 545.5,166.5 C 545.833,166.5 546.167,166.5 546.5,166.5C 547.402,169.997 548.069,173.663 548.5,177.5C 547.883,177.389 547.383,177.056 547,176.5C 546.39,173.173 545.89,169.839 545.5,166.5 Z"/></g>
<g><path style="opacity:0.992" fill="#8893c9" d="M 1096.5,166.5 C 1096.83,166.5 1097.17,166.5 1097.5,166.5C 1098.4,169.997 1099.07,173.663 1099.5,177.5C 1098.88,177.389 1098.38,177.056 1098,176.5C 1097.39,173.173 1096.89,169.839 1096.5,166.5 Z"/></g>
<g><path style="opacity:0.916" fill="#fbfbfd" d="M 156.5,246.5 C 189.55,248.076 222.217,252.576 254.5,260C 262.137,261.097 269.804,261.93 277.5,262.5C 282.01,262.498 286.343,261.665 290.5,260C 293.319,256.195 295.486,252.029 297,247.5C 329.898,253.141 361.565,262.808 392,276.5C 407.857,270.953 420.357,275.286 429.5,289.5C 439.378,292.954 448.711,297.454 457.5,303C 461.369,306.583 464.369,310.75 466.5,315.5C 475.718,318.442 484.718,321.942 493.5,326C 497.26,331.618 497.426,337.451 494,343.5C 489.308,352.192 482.642,358.858 474,363.5C 471.054,373.446 464.554,379.613 454.5,382C 448.5,382.333 442.5,382.667 436.5,383C 429.775,388.031 422.442,392.031 414.5,395C 403.517,398.06 392.517,400.727 381.5,403C 385.494,416.638 389.494,430.305 393.5,444C 394.93,446.192 396.597,448.192 398.5,450C 405.381,452.377 412.381,454.377 419.5,456C 425.77,459.947 430.27,465.447 433,472.5C 435.29,478.661 436.79,484.995 437.5,491.5C 414.831,491.667 392.164,491.5 369.5,491C 346.75,476.585 329.25,457.418 317,433.5C 311.28,438.718 306.113,444.384 301.5,450.5C 303.003,452.422 305.003,453.588 307.5,454C 311.469,454.853 315.469,455.519 319.5,456C 321.624,457.122 323.457,458.622 325,460.5C 329.843,470.277 331.676,480.611 330.5,491.5C 308.497,491.667 286.497,491.5 264.5,491C 255.555,487.943 248.055,482.777 242,475.5C 241.501,480.823 241.334,486.156 241.5,491.5C 219.497,491.667 197.497,491.5 175.5,491C 168.051,487.359 161.884,482.193 157,475.5C 149.667,462.833 142.333,450.167 135,437.5C 129.464,439.684 124.297,442.517 119.5,446C 116.903,448.317 116.07,451.15 117,454.5C 126.112,459.381 130.612,467.048 130.5,477.5C 130.341,482.118 129.674,486.618 128.5,491C 107.833,491.667 87.1667,491.667 66.5,491C 54.8833,474.704 50.05,456.537 52,436.5C 52.9123,427.36 54.5789,418.36 57,409.5C 61.8114,396.377 67.3114,383.543 73.5,371C 70.7451,368.444 67.7451,366.11 64.5,364C 59.353,322.294 73.6864,288.96 107.5,264C 122.488,254.062 138.821,248.229 156.5,246.5 Z M 230.5,424.5 C 233.833,424.5 237.167,424.5 240.5,424.5C 239.015,437.111 238.182,449.778 238,462.5C 236.878,460.376 235.378,458.543 233.5,457C 227.933,455.29 222.433,453.456 217,451.5C 216.333,448.5 216.333,445.5 217,442.5C 219.13,437.387 220.297,432.054 220.5,426.5C 224.04,426.247 227.373,425.581 230.5,424.5 Z"/></g>
<g><path style="opacity:0.916" fill="#fbfbfd" d="M 707.5,246.5 C 740.55,248.076 773.217,252.576 805.5,260C 813.137,261.097 820.804,261.93 828.5,262.5C 833.01,262.498 837.343,261.665 841.5,260C 844.319,256.195 846.486,252.029 848,247.5C 880.898,253.141 912.565,262.808 943,276.5C 958.857,270.953 971.357,275.286 980.5,289.5C 990.378,292.954 999.711,297.454 1008.5,303C 1012.37,306.583 1015.37,310.75 1017.5,315.5C 1026.72,318.442 1035.72,321.942 1044.5,326C 1048.26,331.618 1048.43,337.451 1045,343.5C 1040.31,352.192 1033.64,358.858 1025,363.5C 1022.05,373.446 1015.55,379.613 1005.5,382C 999.5,382.333 993.5,382.667 987.5,383C 980.775,388.031 973.442,392.031 965.5,395C 954.517,398.06 943.517,400.727 932.5,403C 936.494,416.638 940.494,430.305 944.5,444C 945.93,446.192 947.597,448.192 949.5,450C 956.381,452.377 963.381,454.377 970.5,456C 976.77,459.947 981.27,465.447 984,472.5C 986.29,478.661 987.79,484.995 988.5,491.5C 965.831,491.667 943.164,491.5 920.5,491C 897.75,476.585 880.25,457.418 868,433.5C 862.28,438.718 857.113,444.384 852.5,450.5C 854.003,452.422 856.003,453.588 858.5,454C 862.469,454.853 866.469,455.519 870.5,456C 872.624,457.122 874.457,458.622 876,460.5C 880.843,470.277 882.676,480.611 881.5,491.5C 859.497,491.667 837.497,491.5 815.5,491C 806.555,487.943 799.055,482.777 793,475.5C 792.501,480.823 792.334,486.156 792.5,491.5C 770.497,491.667 748.497,491.5 726.5,491C 719.051,487.359 712.884,482.193 708,475.5C 700.667,462.833 693.333,450.167 686,437.5C 680.464,439.684 675.297,442.517 670.5,446C 667.903,448.317 667.07,451.15 668,454.5C 677.112,459.381 681.612,467.048 681.5,477.5C 681.341,482.118 680.674,486.618 679.5,491C 658.833,491.667 638.167,491.667 617.5,491C 605.883,474.704 601.05,456.537 603,436.5C 603.912,427.36 605.579,418.36 608,409.5C 612.811,396.377 618.311,383.543 624.5,371C 621.745,368.444 618.745,366.11 615.5,364C 610.353,322.294 624.686,288.96 658.5,264C 673.488,254.062 689.821,248.229 707.5,246.5 Z M 781.5,424.5 C 784.833,424.5 788.167,424.5 791.5,424.5C 790.015,437.111 789.182,449.778 789,462.5C 787.878,460.376 786.378,458.543 784.5,457C 778.933,455.29 773.433,453.456 768,451.5C 767.333,448.5 767.333,445.5 768,442.5C 770.13,437.387 771.297,432.054 771.5,426.5C 775.04,426.247 778.373,425.581 781.5,424.5 Z"/></g>
<g><path style="opacity:1" fill="#304fa4" d="M 426.5,480.5 C 408.53,482.487 390.197,483.154 371.5,482.5C 351.257,468.759 335.424,451.092 324,429.5C 326.005,420.333 330.505,412.5 337.5,406C 334.788,405.262 332.455,405.929 330.5,408C 317.602,420.229 305.436,433.062 294,446.5C 292.142,453.617 294.642,458.451 301.5,461C 306.775,462.657 312.108,463.99 317.5,465C 319.829,468.481 321.162,472.315 321.5,476.5C 321.5,478.5 321.5,480.5 321.5,482.5C 303.167,482.5 284.833,482.5 266.5,482.5C 258.648,480.147 252.481,475.481 248,468.5C 245.411,450.973 246.245,433.64 250.5,416.5C 238.713,415.471 227.047,416.304 215.5,419C 212.951,426.023 210.785,433.19 209,440.5C 208.104,445.949 208.437,451.282 210,456.5C 211.731,458.617 213.898,460.117 216.5,461C 220.929,461.681 225.263,462.681 229.5,464C 232.149,468.096 233.483,472.596 233.5,477.5C 233.5,479.167 233.5,480.833 233.5,482.5C 215.167,482.5 196.833,482.5 178.5,482.5C 171.669,479.51 166.169,474.843 162,468.5C 153.333,453.167 144.667,437.833 136,422.5C 118.098,394.913 116.098,395.913 130,425.5C 130.667,426.833 130.667,428.167 130,429.5C 121.53,432.978 114.53,438.311 109,445.5C 106.712,451.198 107.379,456.531 111,461.5C 114.136,463.32 117.136,465.32 120,467.5C 121.271,472.754 121.771,478.087 121.5,483.5C 104.487,483.833 87.4869,483.499 70.5,482.5C 60.9363,465.737 57.7696,447.737 61,428.5C 64.3112,409.877 70.9779,392.544 81,376.5C 84.2068,367.912 81.3735,362.579 72.5,360.5C 69.4213,313.821 89.088,280.655 131.5,261C 146.098,255.932 161.098,254.265 176.5,256C 185.516,256.854 194.516,257.854 203.5,259C 222.705,263.301 242.038,266.967 261.5,270C 271.97,271.096 282.303,270.429 292.5,268C 296.719,265.283 300.052,261.783 302.5,257.5C 333.256,263.274 362.923,272.607 391.5,285.5C 405.978,279.436 416.645,283.436 423.5,297.5C 433.175,300.504 442.509,304.338 451.5,309C 456.224,312.122 458.89,316.455 459.5,322C 469.038,324.77 478.372,328.103 487.5,332C 488.83,335.368 488.33,338.535 486,341.5C 480.042,350.398 471.875,356.232 461.5,359C 463.885,359.055 465.219,360.222 465.5,362.5C 464.129,366.043 462.129,369.21 459.5,372C 450.872,373.045 442.205,373.878 433.5,374.5C 428.54,378.988 422.873,382.488 416.5,385C 406.607,388.848 396.44,391.681 386,393.5C 384.289,393.561 382.956,392.894 382,391.5C 379.333,386.833 376.667,382.167 374,377.5C 371.667,378.5 370,380.167 369,382.5C 368.304,386.905 368.637,391.239 370,395.5C 376.344,409.212 380.677,423.546 383,438.5C 383.803,447.299 387.97,453.799 395.5,458C 403.144,460.493 410.811,462.826 418.5,465C 422.887,469.274 425.554,474.441 426.5,480.5 Z M 230.5,424.5 C 227.373,425.581 224.04,426.247 220.5,426.5C 220.297,432.054 219.13,437.387 217,442.5C 216.333,445.5 216.333,448.5 217,451.5C 222.433,453.456 227.933,455.29 233.5,457C 235.378,458.543 236.878,460.376 238,462.5C 238.182,449.778 239.015,437.111 240.5,424.5C 237.167,424.5 233.833,424.5 230.5,424.5 Z"/></g>
<g><path style="opacity:1" fill="#304fa4" d="M 977.5,480.5 C 959.53,482.487 941.197,483.154 922.5,482.5C 902.257,468.759 886.424,451.092 875,429.5C 877.005,420.333 881.505,412.5 888.5,406C 885.788,405.262 883.455,405.929 881.5,408C 868.602,420.229 856.436,433.062 845,446.5C 843.142,453.617 845.642,458.451 852.5,461C 857.775,462.657 863.108,463.99 868.5,465C 870.829,468.481 872.162,472.315 872.5,476.5C 872.5,478.5 872.5,480.5 872.5,482.5C 854.167,482.5 835.833,482.5 817.5,482.5C 809.648,480.147 803.481,475.481 799,468.5C 796.411,450.973 797.245,433.64 801.5,416.5C 789.713,415.471 778.047,416.304 766.5,419C 763.951,426.023 761.785,433.19 760,440.5C 759.104,445.949 759.437,451.282 761,456.5C 762.731,458.617 764.898,460.117 767.5,461C 771.929,461.681 776.263,462.681 780.5,464C 783.149,468.096 784.483,472.596 784.5,477.5C 784.5,479.167 784.5,480.833 784.5,482.5C 766.167,482.5 747.833,482.5 729.5,482.5C 722.669,479.51 717.169,474.843 713,468.5C 704.333,453.167 695.667,437.833 687,422.5C 669.098,394.913 667.098,395.913 681,425.5C 681.667,426.833 681.667,428.167 681,429.5C 672.53,432.978 665.53,438.311 660,445.5C 657.712,451.198 658.379,456.531 662,461.5C 665.136,463.32 668.136,465.32 671,467.5C 672.271,472.754 672.771,478.087 672.5,483.5C 655.487,483.833 638.487,483.499 621.5,482.5C 611.936,465.737 608.77,447.737 612,428.5C 615.311,409.877 621.978,392.544 632,376.5C 635.207,367.912 632.373,362.579 623.5,360.5C 620.421,313.821 640.088,280.655 682.5,261C 697.098,255.932 712.098,254.265 727.5,256C 736.516,256.854 745.516,257.854 754.5,259C 773.705,263.301 793.038,266.967 812.5,270C 822.97,271.096 833.303,270.429 843.5,268C 847.719,265.283 851.052,261.783 853.5,257.5C 884.256,263.274 913.923,272.607 942.5,285.5C 956.978,279.436 967.645,283.436 974.5,297.5C 984.175,300.504 993.509,304.338 1002.5,309C 1007.22,312.122 1009.89,316.455 1010.5,322C 1020.04,324.77 1029.37,328.103 1038.5,332C 1039.83,335.368 1039.33,338.535 1037,341.5C 1031.04,350.398 1022.87,356.232 1012.5,359C 1014.89,359.055 1016.22,360.222 1016.5,362.5C 1015.13,366.043 1013.13,369.21 1010.5,372C 1001.87,373.045 993.205,373.878 984.5,374.5C 979.54,378.988 973.873,382.488 967.5,385C 957.607,388.848 947.44,391.681 937,393.5C 935.289,393.561 933.956,392.894 933,391.5C 930.333,386.833 927.667,382.167 925,377.5C 922.667,378.5 921,380.167 920,382.5C 919.304,386.905 919.637,391.239 921,395.5C 927.344,409.212 931.677,423.546 934,438.5C 934.803,447.299 938.97,453.799 946.5,458C 954.144,460.493 961.811,462.826 969.5,465C 973.887,469.274 976.554,474.441 977.5,480.5 Z M 781.5,424.5 C 778.373,425.581 775.04,426.247 771.5,426.5C 771.297,432.054 770.13,437.387 768,442.5C 767.333,445.5 767.333,448.5 768,451.5C 773.433,453.456 778.933,455.29 784.5,457C 786.378,458.543 787.878,460.376 789,462.5C 789.182,449.778 790.015,437.111 791.5,424.5C 788.167,424.5 784.833,424.5 781.5,424.5 Z"/></g>
<g><path style="opacity:1" fill="#fdfdfe" d="M 160.5,277.5 C 172.539,277.192 184.539,277.692 196.5,279C 222.518,283.479 248.518,288.146 274.5,293C 284.679,294.161 294.679,293.494 304.5,291C 310.44,288.727 314.773,284.727 317.5,279C 344.115,283.372 369.448,291.872 393.5,304.5C 398.173,295.027 404.34,294.027 412,301.5C 413.039,303.746 414.206,305.913 415.5,308C 426.815,310.712 437.481,314.879 447.5,320.5C 448.246,321.736 448.579,323.07 448.5,324.5C 442.491,324.334 436.491,324.501 430.5,325C 426.209,329.71 426.876,333.544 432.5,336.5C 436.44,335.196 440.107,333.363 443.5,331C 454.117,329.732 464.45,330.899 474.5,334.5C 473.981,342.232 469.981,347.732 462.5,351C 453.486,351.332 444.486,351.332 435.5,351C 431.205,352.961 428.872,356.295 428.5,361C 419.018,363.832 409.351,365.832 399.5,367C 394.161,368.753 388.994,370.919 384,373.5C 381.813,370.987 379.313,368.82 376.5,367C 371.713,364.583 367.046,362.083 362.5,359.5C 366.08,353.42 371.08,348.92 377.5,346C 362.563,343.989 348.563,346.989 335.5,355C 299.415,377.284 276.082,409.117 265.5,450.5C 261.854,442.804 260.187,434.638 260.5,426C 263.035,394.276 272.702,364.942 289.5,338C 285.798,338.176 282.465,339.51 279.5,342C 269.619,350.373 262.286,360.54 257.5,372.5C 249.033,373.774 241.033,372.274 233.5,368C 224.45,360.615 215.116,353.615 205.5,347C 204.207,346.51 202.873,346.343 201.5,346.5C 206.166,358.737 207.666,371.403 206,384.5C 204.252,402.769 199.418,420.103 191.5,436.5C 181.004,402.672 163.671,372.839 139.5,347C 127.24,339.437 113.907,336.604 99.5,338.5C 105.497,303.836 125.83,283.503 160.5,277.5 Z"/></g>
<g><path style="opacity:1" fill="#fdfdfe" d="M 711.5,277.5 C 723.539,277.192 735.539,277.692 747.5,279C 773.518,283.479 799.518,288.146 825.5,293C 835.679,294.161 845.679,293.494 855.5,291C 861.44,288.727 865.773,284.727 868.5,279C 895.115,283.372 920.448,291.872 944.5,304.5C 949.173,295.027 955.34,294.027 963,301.5C 964.039,303.746 965.206,305.913 966.5,308C 977.815,310.712 988.481,314.879 998.5,320.5C 999.246,321.736 999.579,323.07 999.5,324.5C 993.491,324.334 987.491,324.501 981.5,325C 977.209,329.71 977.876,333.544 983.5,336.5C 987.44,335.196 991.107,333.363 994.5,331C 1005.12,329.732 1015.45,330.899 1025.5,334.5C 1024.98,342.232 1020.98,347.732 1013.5,351C 1004.49,351.332 995.486,351.332 986.5,351C 982.205,352.961 979.872,356.295 979.5,361C 970.018,363.832 960.351,365.832 950.5,367C 945.161,368.753 939.994,370.919 935,373.5C 932.813,370.987 930.313,368.82 927.5,367C 922.713,364.583 918.046,362.083 913.5,359.5C 917.08,353.42 922.08,348.92 928.5,346C 913.563,343.989 899.563,346.989 886.5,355C 850.415,377.284 827.082,409.117 816.5,450.5C 812.854,442.804 811.187,434.638 811.5,426C 814.035,394.276 823.702,364.942 840.5,338C 836.798,338.176 833.465,339.51 830.5,342C 820.619,350.373 813.286,360.54 808.5,372.5C 800.033,373.774 792.033,372.274 784.5,368C 775.45,360.615 766.116,353.615 756.5,347C 755.207,346.51 753.873,346.343 752.5,346.5C 757.166,358.737 758.666,371.403 757,384.5C 755.252,402.769 750.418,420.103 742.5,436.5C 732.004,402.672 714.671,372.839 690.5,347C 678.24,339.437 664.907,336.604 650.5,338.5C 656.497,303.836 676.83,283.503 711.5,277.5 Z"/></g>
<g><path style="opacity:1" fill="#5f76b8" d="M 233.5,477.5 C 234.461,479.265 234.795,481.265 234.5,483.5C 215.659,483.83 196.993,483.497 178.5,482.5C 196.833,482.5 215.167,482.5 233.5,482.5C 233.5,480.833 233.5,479.167 233.5,477.5 Z"/></g>
<g><path style="opacity:1" fill="#5d75b8" d="M 321.5,476.5 C 322.468,478.607 322.802,480.941 322.5,483.5C 303.659,483.83 284.993,483.497 266.5,482.5C 284.833,482.5 303.167,482.5 321.5,482.5C 321.5,480.5 321.5,478.5 321.5,476.5 Z"/></g>
<g><path style="opacity:1" fill="#5b74b7" d="M 426.5,480.5 C 427.404,481.209 427.737,482.209 427.5,483.5C 408.659,483.83 389.993,483.497 371.5,482.5C 390.197,483.154 408.53,482.487 426.5,480.5 Z"/></g>
<g><path style="opacity:1" fill="#5f76b8" d="M 784.5,477.5 C 785.461,479.265 785.795,481.265 785.5,483.5C 766.659,483.83 747.993,483.497 729.5,482.5C 747.833,482.5 766.167,482.5 784.5,482.5C 784.5,480.833 784.5,479.167 784.5,477.5 Z"/></g>
<g><path style="opacity:1" fill="#5d75b8" d="M 872.5,476.5 C 873.468,478.607 873.802,480.941 873.5,483.5C 854.659,483.83 835.993,483.497 817.5,482.5C 835.833,482.5 854.167,482.5 872.5,482.5C 872.5,480.5 872.5,478.5 872.5,476.5 Z"/></g>
<g><path style="opacity:1" fill="#5b74b7" d="M 977.5,480.5 C 978.404,481.209 978.737,482.209 978.5,483.5C 959.659,483.83 940.993,483.497 922.5,482.5C 941.197,483.154 959.53,482.487 977.5,480.5 Z"/></g>
<g><path style="opacity:0.483" fill="#f6f7fb" d="M 37.5,520.5 C 57.8333,520.5 78.1667,520.5 98.5,520.5C 98.5,527.5 98.5,534.5 98.5,541.5C 87.5,541.5 76.5,541.5 65.5,541.5C 65.5,543.5 65.5,545.5 65.5,547.5C 74.1667,547.5 82.8333,547.5 91.5,547.5C 91.7889,553.245 91.2889,558.912 90,564.5C 89.1667,565.333 88.3333,566.167 87.5,567C 80.1742,567.5 72.8409,567.666 65.5,567.5C 65.5,569.167 65.5,570.833 65.5,572.5C 76.5,572.5 87.5,572.5 98.5,572.5C 98.5,580.167 98.5,587.833 98.5,595.5C 77.9242,595.827 57.4242,595.493 37,594.5C 36.1772,569.761 36.3439,545.094 37.5,520.5 Z"/></g>
<g><path style="opacity:0.511" fill="#f1f3f8" d="M 121.5,520.5 C 139.833,520.5 158.167,520.5 176.5,520.5C 176.5,537.833 176.5,555.167 176.5,572.5C 179.5,572.5 182.5,572.5 185.5,572.5C 185.5,583.5 185.5,594.5 185.5,605.5C 176.833,605.5 168.167,605.5 159.5,605.5C 159.5,602.167 159.5,598.833 159.5,595.5C 148.5,595.5 137.5,595.5 126.5,595.5C 126.5,598.833 126.5,602.167 126.5,605.5C 118.167,605.5 109.833,605.5 101.5,605.5C 101.5,594.167 101.5,582.833 101.5,571.5C 108.995,571.522 113.828,567.855 116,560.5C 119.468,547.392 121.301,534.059 121.5,520.5 Z M 143.5,542.5 C 145.167,542.5 146.833,542.5 148.5,542.5C 148.5,552.167 148.5,561.833 148.5,571.5C 144.774,571.823 141.107,571.489 137.5,570.5C 140.65,561.415 142.65,552.081 143.5,542.5 Z"/></g>
<g><path style="opacity:0.473" fill="#fafafc" d="M 192.5,520.5 C 201.167,520.5 209.833,520.5 218.5,520.5C 218.333,532.838 218.5,545.171 219,557.5C 226.553,545.561 234.719,534.061 243.5,523C 245.392,522.027 247.392,521.36 249.5,521C 255.825,520.5 262.158,520.334 268.5,520.5C 268.5,545.5 268.5,570.5 268.5,595.5C 259.5,595.5 250.5,595.5 241.5,595.5C 241.667,584.495 241.5,573.495 241,562.5C 233.777,572.057 226.944,581.891 220.5,592C 218.043,593.562 215.376,594.562 212.5,595C 205.586,595.811 198.752,595.645 192,594.5C 191.177,569.761 191.344,545.094 192.5,520.5 Z"/></g>
<g><path style="opacity:0.442" fill="#f6f7fb" d="M 276.5,520.5 C 285.833,520.5 295.167,520.5 304.5,520.5C 304.5,528.833 304.5,537.167 304.5,545.5C 310.833,545.5 317.167,545.5 323.5,545.5C 323.5,537.167 323.5,528.833 323.5,520.5C 332.833,520.5 342.167,520.5 351.5,520.5C 351.333,544.502 351.5,568.502 352,592.5C 360.807,568.578 369.307,544.578 377.5,520.5C 389.5,520.5 401.5,520.5 413.5,520.5C 421.018,541.88 428.851,563.213 437,584.5C 440.27,578.96 443.27,573.293 446,567.5C 447.833,564.333 450.333,561.833 453.5,560C 442.086,555.675 437.586,547.508 440,535.5C 444.13,526.34 451.296,521.506 461.5,521C 476.496,520.5 491.496,520.333 506.5,520.5C 506.5,545.5 506.5,570.5 506.5,595.5C 497.827,595.666 489.16,595.5 480.5,595C 480,594.5 479.5,594 479,593.5C 481.174,560.213 476.841,559.547 466,591.5C 464.786,593.049 463.286,594.215 461.5,595C 444.5,595.667 427.5,595.667 410.5,595C 408.74,590.555 407.073,586.055 405.5,581.5C 399.167,580.167 392.833,580.167 386.5,581.5C 385.24,586.046 383.906,590.546 382.5,595C 362.503,595.5 342.503,595.667 322.5,595.5C 322.5,586.5 322.5,577.5 322.5,568.5C 316.5,568.5 310.5,568.5 304.5,568.5C 304.5,577.5 304.5,586.5 304.5,595.5C 295.167,595.5 285.833,595.5 276.5,595.5C 276.5,570.5 276.5,545.5 276.5,520.5 Z M 469.5,539.5 C 472.833,539.5 476.167,539.5 479.5,539.5C 479.5,543.167 479.5,546.833 479.5,550.5C 474.758,550.864 470.592,549.53 467,546.5C 466.333,545.167 466.333,543.833 467,542.5C 468.045,541.627 468.878,540.627 469.5,539.5 Z M 395.5,545.5 C 397.073,550.6 398.74,555.767 400.5,561C 397.167,561.667 393.833,561.667 390.5,561C 392.554,555.95 394.22,550.783 395.5,545.5 Z"/></g>
<g><path style="opacity:0.483" fill="#f6f7fb" d="M 588.5,520.5 C 608.833,520.5 629.167,520.5 649.5,520.5C 649.5,527.5 649.5,534.5 649.5,541.5C 638.5,541.5 627.5,541.5 616.5,541.5C 616.5,543.5 616.5,545.5 616.5,547.5C 625.167,547.5 633.833,547.5 642.5,547.5C 642.789,553.245 642.289,558.912 641,564.5C 640.167,565.333 639.333,566.167 638.5,567C 631.174,567.5 623.841,567.666 616.5,567.5C 616.5,569.167 616.5,570.833 616.5,572.5C 627.5,572.5 638.5,572.5 649.5,572.5C 649.5,580.167 649.5,587.833 649.5,595.5C 628.924,595.827 608.424,595.493 588,594.5C 587.177,569.761 587.344,545.094 588.5,520.5 Z"/></g>
<g><path style="opacity:0.511" fill="#f1f3f8" d="M 672.5,520.5 C 690.833,520.5 709.167,520.5 727.5,520.5C 727.5,537.833 727.5,555.167 727.5,572.5C 730.5,572.5 733.5,572.5 736.5,572.5C 736.5,583.5 736.5,594.5 736.5,605.5C 727.833,605.5 719.167,605.5 710.5,605.5C 710.5,602.167 710.5,598.833 710.5,595.5C 699.5,595.5 688.5,595.5 677.5,595.5C 677.5,598.833 677.5,602.167 677.5,605.5C 669.167,605.5 660.833,605.5 652.5,605.5C 652.5,594.167 652.5,582.833 652.5,571.5C 659.995,571.522 664.828,567.855 667,560.5C 670.468,547.392 672.301,534.059 672.5,520.5 Z M 694.5,542.5 C 696.167,542.5 697.833,542.5 699.5,542.5C 699.5,552.167 699.5,561.833 699.5,571.5C 695.774,571.823 692.107,571.489 688.5,570.5C 691.65,561.415 693.65,552.081 694.5,542.5 Z"/></g>
<g><path style="opacity:0.473" fill="#fafafc" d="M 743.5,520.5 C 752.167,520.5 760.833,520.5 769.5,520.5C 769.333,532.838 769.5,545.171 770,557.5C 777.553,545.561 785.719,534.061 794.5,523C 796.392,522.027 798.392,521.36 800.5,521C 806.825,520.5 813.158,520.334 819.5,520.5C 819.5,545.5 819.5,570.5 819.5,595.5C 810.5,595.5 801.5,595.5 792.5,595.5C 792.667,584.495 792.5,573.495 792,562.5C 784.777,572.057 777.944,581.891 771.5,592C 769.043,593.562 766.376,594.562 763.5,595C 756.586,595.811 749.752,595.645 743,594.5C 742.177,569.761 742.344,545.094 743.5,520.5 Z"/></g>
<g><path style="opacity:0.442" fill="#f6f7fb" d="M 827.5,520.5 C 836.833,520.5 846.167,520.5 855.5,520.5C 855.5,528.833 855.5,537.167 855.5,545.5C 861.833,545.5 868.167,545.5 874.5,545.5C 874.5,537.167 874.5,528.833 874.5,520.5C 883.833,520.5 893.167,520.5 902.5,520.5C 902.333,544.502 902.5,568.502 903,592.5C 911.807,568.578 920.307,544.578 928.5,520.5C 940.5,520.5 952.5,520.5 964.5,520.5C 972.018,541.88 979.851,563.213 988,584.5C 991.27,578.96 994.27,573.293 997,567.5C 998.833,564.333 1001.33,561.833 1004.5,560C 993.086,555.675 988.586,547.508 991,535.5C 995.13,526.34 1002.3,521.506 1012.5,521C 1027.5,520.5 1042.5,520.333 1057.5,520.5C 1057.5,545.5 1057.5,570.5 1057.5,595.5C 1048.83,595.666 1040.16,595.5 1031.5,595C 1031,594.5 1030.5,594 1030,593.5C 1032.17,560.213 1027.84,559.547 1017,591.5C 1015.79,593.049 1014.29,594.215 1012.5,595C 995.5,595.667 978.5,595.667 961.5,595C 959.74,590.555 958.073,586.055 956.5,581.5C 950.167,580.167 943.833,580.167 937.5,581.5C 936.24,586.046 934.906,590.546 933.5,595C 913.503,595.5 893.503,595.667 873.5,595.5C 873.5,586.5 873.5,577.5 873.5,568.5C 867.5,568.5 861.5,568.5 855.5,568.5C 855.5,577.5 855.5,586.5 855.5,595.5C 846.167,595.5 836.833,595.5 827.5,595.5C 827.5,570.5 827.5,545.5 827.5,520.5 Z M 1020.5,539.5 C 1023.83,539.5 1027.17,539.5 1030.5,539.5C 1030.5,543.167 1030.5,546.833 1030.5,550.5C 1025.76,550.864 1021.59,549.53 1018,546.5C 1017.33,545.167 1017.33,543.833 1018,542.5C 1019.04,541.627 1019.88,540.627 1020.5,539.5 Z M 946.5,545.5 C 948.073,550.6 949.74,555.767 951.5,561C 948.167,561.667 944.833,561.667 941.5,561C 943.554,555.95 945.22,550.783 946.5,545.5 Z"/></g>
<g><path style="opacity:1" fill="#5a72b6" d="M 175.5,574.5 C 174.503,557.675 174.17,540.675 174.5,523.5C 157.5,523.5 140.5,523.5 123.5,523.5C 123.813,527.042 123.479,530.375 122.5,533.5C 122.5,529.833 122.5,526.167 122.5,522.5C 140.167,522.5 157.833,522.5 175.5,522.5C 175.5,539.833 175.5,557.167 175.5,574.5 Z"/></g>
<g><path style="opacity:1" fill="#5a72b6" d="M 726.5,574.5 C 725.503,557.675 725.17,540.675 725.5,523.5C 708.5,523.5 691.5,523.5 674.5,523.5C 674.813,527.042 674.479,530.375 673.5,533.5C 673.5,529.833 673.5,526.167 673.5,522.5C 691.167,522.5 708.833,522.5 726.5,522.5C 726.5,539.833 726.5,557.167 726.5,574.5 Z"/></g>
<g><path style="opacity:1" fill="#2f4fa4" d="M 39.5,522.5 C 58.5,522.5 77.5,522.5 96.5,522.5C 96.5,528.5 96.5,534.5 96.5,540.5C 85.5,540.5 74.5,540.5 63.5,540.5C 63.5,543.5 63.5,546.5 63.5,549.5C 72.1667,549.5 80.8333,549.5 89.5,549.5C 89.91,554.667 89.2433,559.667 87.5,564.5C 79.5277,565.498 71.5277,565.831 63.5,565.5C 63.5,568.5 63.5,571.5 63.5,574.5C 74.5,574.5 85.5,574.5 96.5,574.5C 96.5,580.5 96.5,586.5 96.5,592.5C 77.5,592.5 58.5,592.5 39.5,592.5C 39.5,569.167 39.5,545.833 39.5,522.5 Z"/></g>
<g><path style="opacity:1" fill="#2f4fa4" d="M 175.5,574.5 C 178.167,574.5 180.833,574.5 183.5,574.5C 183.5,584.167 183.5,593.833 183.5,603.5C 176.167,603.5 168.833,603.5 161.5,603.5C 161.5,600.167 161.5,596.833 161.5,593.5C 149.5,593.5 137.5,593.5 125.5,593.5C 124.521,596.625 124.187,599.958 124.5,603.5C 117.5,603.5 110.5,603.5 103.5,603.5C 103.5,593.5 103.5,583.5 103.5,573.5C 109.199,573.234 113.365,570.567 116,565.5C 119.563,555.127 121.729,544.46 122.5,533.5C 123.479,530.375 123.813,527.042 123.5,523.5C 140.5,523.5 157.5,523.5 174.5,523.5C 174.17,540.675 174.503,557.675 175.5,574.5 Z M 143.5,542.5 C 142.65,552.081 140.65,561.415 137.5,570.5C 141.107,571.489 144.774,571.823 148.5,571.5C 148.5,561.833 148.5,552.167 148.5,542.5C 146.833,542.5 145.167,542.5 143.5,542.5 Z"/></g>
<g><path style="opacity:1" fill="#2f4ea4" d="M 266.5,592.5 C 258.833,592.5 251.167,592.5 243.5,592.5C 243.832,580.814 243.499,569.148 242.5,557.5C 241.893,557.624 241.56,557.957 241.5,558.5C 233.935,567.951 227.102,577.951 221,588.5C 218.815,590.54 216.315,591.874 213.5,592.5C 207.167,592.5 200.833,592.5 194.5,592.5C 194.5,569.5 194.5,546.5 194.5,523.5C 201.5,523.5 208.5,523.5 215.5,523.5C 215.167,537.183 215.501,550.85 216.5,564.5C 217.107,564.376 217.44,564.043 217.5,563.5C 225.891,550.27 234.891,537.436 244.5,525C 245.672,524.581 246.672,523.915 247.5,523C 253.825,522.5 260.158,522.334 266.5,522.5C 266.5,545.833 266.5,569.167 266.5,592.5 Z"/></g>
<g><path style="opacity:1" fill="#526cb3" d="M 217.5,563.5 C 217.44,564.043 217.107,564.376 216.5,564.5C 215.501,550.85 215.167,537.183 215.5,523.5C 208.5,523.5 201.5,523.5 194.5,523.5C 194.5,546.5 194.5,569.5 194.5,592.5C 200.833,592.5 207.167,592.5 213.5,592.5C 207.021,593.491 200.354,593.824 193.5,593.5C 193.5,569.833 193.5,546.167 193.5,522.5C 201.167,522.5 208.833,522.5 216.5,522.5C 216.171,536.344 216.504,550.01 217.5,563.5 Z"/></g>
<g><path style="opacity:1" fill="#afbadb" d="M 278.5,522.5 C 278.5,545.833 278.5,569.167 278.5,592.5C 286.5,592.5 294.5,592.5 302.5,592.5C 294.35,593.493 286.017,593.826 277.5,593.5C 277.169,569.661 277.502,545.994 278.5,522.5 Z"/></g>
<g><path style="opacity:1" fill="#2e4ea4" d="M 278.5,522.5 C 286.5,522.5 294.5,522.5 302.5,522.5C 302.5,530.833 302.5,539.167 302.5,547.5C 310.167,547.5 317.833,547.5 325.5,547.5C 325.5,539.167 325.5,530.833 325.5,522.5C 333.5,522.5 341.5,522.5 349.5,522.5C 349.5,545.833 349.5,569.167 349.5,592.5C 341.167,592.5 332.833,592.5 324.5,592.5C 324.5,583.833 324.5,575.167 324.5,566.5C 317.167,566.5 309.833,566.5 302.5,566.5C 302.5,575.167 302.5,583.833 302.5,592.5C 294.5,592.5 286.5,592.5 278.5,592.5C 278.5,569.167 278.5,545.833 278.5,522.5 Z"/></g>
<g><path style="opacity:1" fill="#a8b4d9" d="M 349.5,522.5 C 350.498,545.994 350.831,569.661 350.5,593.5C 341.651,593.826 332.984,593.493 324.5,592.5C 332.833,592.5 341.167,592.5 349.5,592.5C 349.5,569.167 349.5,545.833 349.5,522.5 Z"/></g>
<g><path style="opacity:1" fill="#3150a5" d="M 381.5,592.5 C 372.318,592.827 363.318,592.493 354.5,591.5C 362.561,568.819 370.728,546.152 379,523.5C 389.757,522.347 400.59,522.18 411.5,523C 420.102,544.875 428.435,566.875 436.5,589C 436.097,590.473 435.43,591.806 434.5,593C 426.841,593.5 419.174,593.666 411.5,593.5C 410.167,588.5 408.833,583.5 407.5,578.5C 399.833,578.5 392.167,578.5 384.5,578.5C 383.755,583.227 382.755,587.894 381.5,592.5 Z M 395.5,545.5 C 394.22,550.783 392.554,555.95 390.5,561C 393.833,561.667 397.167,561.667 400.5,561C 398.74,555.767 397.073,550.6 395.5,545.5 Z"/></g>
<g><path style="opacity:1" fill="#2f4fa4" d="M 504.5,522.5 C 504.5,545.833 504.5,569.167 504.5,592.5C 496.5,592.5 488.5,592.5 480.5,592.5C 480.5,583.5 480.5,574.5 480.5,565.5C 477.495,565.253 474.995,566.253 473,568.5C 470.333,575.167 467.667,581.833 465,588.5C 464.502,590.544 463.335,591.878 461.5,592.5C 453.316,592.826 445.316,592.492 437.5,591.5C 440.619,580.426 445.952,570.593 453.5,562C 455.167,561 456.833,560 458.5,559C 442.782,555.608 437.949,546.441 444,531.5C 447.834,527.007 452.667,524.174 458.5,523C 473.83,522.5 489.163,522.333 504.5,522.5 Z M 469.5,539.5 C 468.878,540.627 468.045,541.627 467,542.5C 466.333,543.833 466.333,545.167 467,546.5C 470.592,549.53 474.758,550.864 479.5,550.5C 479.5,546.833 479.5,543.167 479.5,539.5C 476.167,539.5 472.833,539.5 469.5,539.5 Z"/></g>
<g><path style="opacity:1" fill="#a4b1d6" d="M 504.5,522.5 C 505.498,545.994 505.831,569.661 505.5,593.5C 496.983,593.826 488.65,593.493 480.5,592.5C 488.5,592.5 496.5,592.5 504.5,592.5C 504.5,569.167 504.5,545.833 504.5,522.5 Z"/></g>
<g><path style="opacity:1" fill="#2f4fa4" d="M 590.5,522.5 C 609.5,522.5 628.5,522.5 647.5,522.5C 647.5,528.5 647.5,534.5 647.5,540.5C 636.5,540.5 625.5,540.5 614.5,540.5C 614.5,543.5 614.5,546.5 614.5,549.5C 623.167,549.5 631.833,549.5 640.5,549.5C 640.91,554.667 640.243,559.667 638.5,564.5C 630.528,565.498 622.528,565.831 614.5,565.5C 614.5,568.5 614.5,571.5 614.5,574.5C 625.5,574.5 636.5,574.5 647.5,574.5C 647.5,580.5 647.5,586.5 647.5,592.5C 628.5,592.5 609.5,592.5 590.5,592.5C 590.5,569.167 590.5,545.833 590.5,522.5 Z"/></g>
<g><path style="opacity:1" fill="#2f4fa4" d="M 726.5,574.5 C 729.167,574.5 731.833,574.5 734.5,574.5C 734.5,584.167 734.5,593.833 734.5,603.5C 727.167,603.5 719.833,603.5 712.5,603.5C 712.5,600.167 712.5,596.833 712.5,593.5C 700.5,593.5 688.5,593.5 676.5,593.5C 675.521,596.625 675.187,599.958 675.5,603.5C 668.5,603.5 661.5,603.5 654.5,603.5C 654.5,593.5 654.5,583.5 654.5,573.5C 660.199,573.234 664.365,570.567 667,565.5C 670.563,555.127 672.729,544.46 673.5,533.5C 674.479,530.375 674.813,527.042 674.5,523.5C 691.5,523.5 708.5,523.5 725.5,523.5C 725.17,540.675 725.503,557.675 726.5,574.5 Z M 694.5,542.5 C 693.65,552.081 691.65,561.415 688.5,570.5C 692.107,571.489 695.774,571.823 699.5,571.5C 699.5,561.833 699.5,552.167 699.5,542.5C 697.833,542.5 696.167,542.5 694.5,542.5 Z"/></g>
<g><path style="opacity:1" fill="#2f4ea4" d="M 817.5,592.5 C 809.833,592.5 802.167,592.5 794.5,592.5C 794.832,580.814 794.499,569.148 793.5,557.5C 792.893,557.624 792.56,557.957 792.5,558.5C 784.935,567.951 778.102,577.951 772,588.5C 769.815,590.54 767.315,591.874 764.5,592.5C 758.167,592.5 751.833,592.5 745.5,592.5C 745.5,569.5 745.5,546.5 745.5,523.5C 752.5,523.5 759.5,523.5 766.5,523.5C 766.167,537.183 766.501,550.85 767.5,564.5C 768.107,564.376 768.44,564.043 768.5,563.5C 776.891,550.27 785.891,537.436 795.5,525C 796.672,524.581 797.672,523.915 798.5,523C 804.825,522.5 811.158,522.334 817.5,522.5C 817.5,545.833 817.5,569.167 817.5,592.5 Z"/></g>
<g><path style="opacity:1" fill="#526cb3" d="M 768.5,563.5 C 768.44,564.043 768.107,564.376 767.5,564.5C 766.501,550.85 766.167,537.183 766.5,523.5C 759.5,523.5 752.5,523.5 745.5,523.5C 745.5,546.5 745.5,569.5 745.5,592.5C 751.833,592.5 758.167,592.5 764.5,592.5C 758.021,593.491 751.354,593.824 744.5,593.5C 744.5,569.833 744.5,546.167 744.5,522.5C 752.167,522.5 759.833,522.5 767.5,522.5C 767.171,536.344 767.504,550.01 768.5,563.5 Z"/></g>
<g><path style="opacity:1" fill="#afbadb" d="M 829.5,522.5 C 829.5,545.833 829.5,569.167 829.5,592.5C 837.5,592.5 845.5,592.5 853.5,592.5C 845.35,593.493 837.017,593.826 828.5,593.5C 828.169,569.661 828.502,545.994 829.5,522.5 Z"/></g>
<g><path style="opacity:1" fill="#2e4ea4" d="M 829.5,522.5 C 837.5,522.5 845.5,522.5 853.5,522.5C 853.5,530.833 853.5,539.167 853.5,547.5C 861.167,547.5 868.833,547.5 876.5,547.5C 876.5,539.167 876.5,530.833 876.5,522.5C 884.5,522.5 892.5,522.5 900.5,522.5C 900.5,545.833 900.5,569.167 900.5,592.5C 892.167,592.5 883.833,592.5 875.5,592.5C 875.5,583.833 875.5,575.167 875.5,566.5C 868.167,566.5 860.833,566.5 853.5,566.5C 853.5,575.167 853.5,583.833 853.5,592.5C 845.5,592.5 837.5,592.5 829.5,592.5C 829.5,569.167 829.5,545.833 829.5,522.5 Z"/></g>
<g><path style="opacity:1" fill="#a8b4d9" d="M 900.5,522.5 C 901.498,545.994 901.831,569.661 901.5,593.5C 892.651,593.826 883.984,593.493 875.5,592.5C 883.833,592.5 892.167,592.5 900.5,592.5C 900.5,569.167 900.5,545.833 900.5,522.5 Z"/></g>
<g><path style="opacity:1" fill="#3150a5" d="M 932.5,592.5 C 923.318,592.827 914.318,592.493 905.5,591.5C 913.561,568.819 921.728,546.152 930,523.5C 940.757,522.347 951.59,522.18 962.5,523C 971.102,544.875 979.435,566.875 987.5,589C 987.097,590.473 986.43,591.806 985.5,593C 977.841,593.5 970.174,593.666 962.5,593.5C 961.167,588.5 959.833,583.5 958.5,578.5C 950.833,578.5 943.167,578.5 935.5,578.5C 934.755,583.227 933.755,587.894 932.5,592.5 Z M 946.5,545.5 C 945.22,550.783 943.554,555.95 941.5,561C 944.833,561.667 948.167,561.667 951.5,561C 949.74,555.767 948.073,550.6 946.5,545.5 Z"/></g>
<g><path style="opacity:1" fill="#2f4fa4" d="M 1055.5,522.5 C 1055.5,545.833 1055.5,569.167 1055.5,592.5C 1047.5,592.5 1039.5,592.5 1031.5,592.5C 1031.5,583.5 1031.5,574.5 1031.5,565.5C 1028.5,565.253 1026,566.253 1024,568.5C 1021.33,575.167 1018.67,581.833 1016,588.5C 1015.5,590.544 1014.34,591.878 1012.5,592.5C 1004.32,592.826 996.316,592.492 988.5,591.5C 991.619,580.426 996.952,570.593 1004.5,562C 1006.17,561 1007.83,560 1009.5,559C 993.782,555.608 988.949,546.441 995,531.5C 998.834,527.007 1003.67,524.174 1009.5,523C 1024.83,522.5 1040.16,522.333 1055.5,522.5 Z M 1020.5,539.5 C 1019.88,540.627 1019.04,541.627 1018,542.5C 1017.33,543.833 1017.33,545.167 1018,546.5C 1021.59,549.53 1025.76,550.864 1030.5,550.5C 1030.5,546.833 1030.5,543.167 1030.5,539.5C 1027.17,539.5 1023.83,539.5 1020.5,539.5 Z"/></g>
<g><path style="opacity:1" fill="#a4b1d6" d="M 1055.5,522.5 C 1056.5,545.994 1056.83,569.661 1056.5,593.5C 1047.98,593.826 1039.65,593.493 1031.5,592.5C 1039.5,592.5 1047.5,592.5 1055.5,592.5C 1055.5,569.167 1055.5,545.833 1055.5,522.5 Z"/></g>
<g><path style="opacity:0.48" fill="#e7eaf4" d="M 469.5,537.5 C 473.5,537.5 477.5,537.5 481.5,537.5C 481.5,542.5 481.5,547.5 481.5,552.5C 475.117,553.524 469.617,551.857 465,547.5C 463.571,542.783 465.071,539.45 469.5,537.5 Z M 469.5,539.5 C 468.878,540.627 468.045,541.627 467,542.5C 466.333,543.833 466.333,545.167 467,546.5C 470.592,549.53 474.758,550.864 479.5,550.5C 479.5,546.833 479.5,543.167 479.5,539.5C 476.167,539.5 472.833,539.5 469.5,539.5 Z"/></g>
<g><path style="opacity:0.48" fill="#e7eaf4" d="M 1020.5,537.5 C 1024.5,537.5 1028.5,537.5 1032.5,537.5C 1032.5,542.5 1032.5,547.5 1032.5,552.5C 1026.12,553.524 1020.62,551.857 1016,547.5C 1014.57,542.783 1016.07,539.45 1020.5,537.5 Z M 1020.5,539.5 C 1019.88,540.627 1019.04,541.627 1018,542.5C 1017.33,543.833 1017.33,545.167 1018,546.5C 1021.59,549.53 1025.76,550.864 1030.5,550.5C 1030.5,546.833 1030.5,543.167 1030.5,539.5C 1027.17,539.5 1023.83,539.5 1020.5,539.5 Z"/></g>
<g><path style="opacity:0.508" fill="#eef0f7" d="M 395.5,538.5 C 398.454,546.571 400.787,554.904 402.5,563.5C 397.833,563.5 393.167,563.5 388.5,563.5C 390.63,555.109 392.964,546.776 395.5,538.5 Z M 395.5,545.5 C 394.22,550.783 392.554,555.95 390.5,561C 393.833,561.667 397.167,561.667 400.5,561C 398.74,555.767 397.073,550.6 395.5,545.5 Z"/></g>
<g><path style="opacity:0.508" fill="#eef0f7" d="M 946.5,538.5 C 949.454,546.571 951.787,554.904 953.5,563.5C 948.833,563.5 944.167,563.5 939.5,563.5C 941.63,555.109 943.964,546.776 946.5,538.5 Z M 946.5,545.5 C 945.22,550.783 943.554,555.95 941.5,561C 944.833,561.667 948.167,561.667 951.5,561C 949.74,555.767 948.073,550.6 946.5,545.5 Z"/></g>
<g><path style="opacity:0.46" fill="#f3f4f9" d="M 141.5,541.5 C 144.5,541.5 147.5,541.5 150.5,541.5C 150.5,552.167 150.5,562.833 150.5,573.5C 145.125,573.828 139.792,573.495 134.5,572.5C 138.438,562.539 140.772,552.206 141.5,541.5 Z M 143.5,542.5 C 142.65,552.081 140.65,561.415 137.5,570.5C 141.107,571.489 144.774,571.823 148.5,571.5C 148.5,561.833 148.5,552.167 148.5,542.5C 146.833,542.5 145.167,542.5 143.5,542.5 Z"/></g>
<g><path style="opacity:0.46" fill="#f3f4f9" d="M 692.5,541.5 C 695.5,541.5 698.5,541.5 701.5,541.5C 701.5,552.167 701.5,562.833 701.5,573.5C 696.125,573.828 690.792,573.495 685.5,572.5C 689.438,562.539 691.772,552.206 692.5,541.5 Z M 694.5,542.5 C 693.65,552.081 691.65,561.415 688.5,570.5C 692.107,571.489 695.774,571.823 699.5,571.5C 699.5,561.833 699.5,552.167 699.5,542.5C 697.833,542.5 696.167,542.5 694.5,542.5 Z"/></g>
<g><path style="opacity:1" fill="#bac5e1" d="M 302.5,522.5 C 303.492,530.316 303.826,538.316 303.5,546.5C 310.5,546.5 317.5,546.5 324.5,546.5C 324.174,538.316 324.508,530.316 325.5,522.5C 325.5,530.833 325.5,539.167 325.5,547.5C 317.833,547.5 310.167,547.5 302.5,547.5C 302.5,539.167 302.5,530.833 302.5,522.5 Z"/></g>
<g><path style="opacity:1" fill="#bac5e1" d="M 853.5,522.5 C 854.492,530.316 854.826,538.316 854.5,546.5C 861.5,546.5 868.5,546.5 875.5,546.5C 875.174,538.316 875.508,530.316 876.5,522.5C 876.5,530.833 876.5,539.167 876.5,547.5C 868.833,547.5 861.167,547.5 853.5,547.5C 853.5,539.167 853.5,530.833 853.5,522.5 Z"/></g>
<g><path style="opacity:1" fill="#7d91c6" d="M 241.5,558.5 C 241.56,557.957 241.893,557.624 242.5,557.5C 243.499,569.148 243.832,580.814 243.5,592.5C 251.167,592.5 258.833,592.5 266.5,592.5C 258.684,593.492 250.684,593.826 242.5,593.5C 242.828,581.655 242.495,569.988 241.5,558.5 Z"/></g>
<g><path style="opacity:1" fill="#7d91c6" d="M 792.5,558.5 C 792.56,557.957 792.893,557.624 793.5,557.5C 794.499,569.148 794.832,580.814 794.5,592.5C 802.167,592.5 809.833,592.5 817.5,592.5C 809.684,593.492 801.684,593.826 793.5,593.5C 793.828,581.655 793.495,569.988 792.5,558.5 Z"/></g>
<g><path style="opacity:1" fill="#6d83be" d="M 39.5,522.5 C 39.5,545.833 39.5,569.167 39.5,592.5C 58.5,592.5 77.5,592.5 96.5,592.5C 77.3405,593.497 58.0072,593.83 38.5,593.5C 38.1691,569.661 38.5024,545.994 39.5,522.5 Z"/></g>
<g><path style="opacity:1" fill="#798dc4" d="M 354.5,591.5 C 363.318,592.493 372.318,592.827 381.5,592.5C 372.325,593.822 362.992,593.822 353.5,592.5C 353.624,591.893 353.957,591.56 354.5,591.5 Z"/></g>
<g><path style="opacity:1" fill="#7489c2" d="M 437.5,591.5 C 445.316,592.492 453.316,592.826 461.5,592.5C 453.324,593.821 444.991,593.821 436.5,592.5C 436.624,591.893 436.957,591.56 437.5,591.5 Z"/></g>
<g><path style="opacity:1" fill="#6d83be" d="M 590.5,522.5 C 590.5,545.833 590.5,569.167 590.5,592.5C 609.5,592.5 628.5,592.5 647.5,592.5C 628.341,593.497 609.007,593.83 589.5,593.5C 589.169,569.661 589.502,545.994 590.5,522.5 Z"/></g>
<g><path style="opacity:1" fill="#798dc4" d="M 905.5,591.5 C 914.318,592.493 923.318,592.827 932.5,592.5C 923.325,593.822 913.992,593.822 904.5,592.5C 904.624,591.893 904.957,591.56 905.5,591.5 Z"/></g>
<g><path style="opacity:1" fill="#7489c2" d="M 988.5,591.5 C 996.316,592.492 1004.32,592.826 1012.5,592.5C 1004.32,593.821 995.991,593.821 987.5,592.5C 987.624,591.893 987.957,591.56 988.5,591.5 Z"/></g>
<g><path style="opacity:1" fill="#98a7d1" d="M 125.5,593.5 C 125.5,597.167 125.5,600.833 125.5,604.5C 117.981,604.825 110.648,604.492 103.5,603.5C 110.5,603.5 117.5,603.5 124.5,603.5C 124.187,599.958 124.521,596.625 125.5,593.5 Z"/></g>
<g><path style="opacity:1" fill="#98a7d1" d="M 676.5,593.5 C 676.5,597.167 676.5,600.833 676.5,604.5C 668.981,604.825 661.648,604.492 654.5,603.5C 661.5,603.5 668.5,603.5 675.5,603.5C 675.187,599.958 675.521,596.625 676.5,593.5 Z"/></g>
<g><path style="opacity:0.464" fill="#f1f2f8" d="M 161.5,699.5 C 154.167,699.5 146.833,699.5 139.5,699.5C 122.093,694.916 112.26,683.583 110,665.5C 107.628,635.204 121.628,619.204 152,617.5C 175.085,617.592 188.751,628.925 193,651.5C 195.723,676.545 185.223,692.545 161.5,699.5 Z M 147.5,641.5 C 156.741,641.911 161.575,646.911 162,656.5C 163.579,664.102 161.412,670.268 155.5,675C 149.419,676.858 144.919,675.025 142,669.5C 139.524,660.878 140.191,652.545 144,644.5C 145.145,643.364 146.312,642.364 147.5,641.5 Z"/></g>
<g><path style="opacity:0.464" fill="#f1f2f8" d="M 712.5,699.5 C 705.167,699.5 697.833,699.5 690.5,699.5C 673.093,694.916 663.26,683.583 661,665.5C 658.628,635.204 672.628,619.204 703,617.5C 726.085,617.592 739.751,628.925 744,651.5C 746.723,676.545 736.223,692.545 712.5,699.5 Z M 698.5,641.5 C 707.741,641.911 712.575,646.911 713,656.5C 714.579,664.102 712.412,670.268 706.5,675C 700.419,676.858 695.919,675.025 693,669.5C 690.524,660.878 691.191,652.545 695,644.5C 696.145,643.364 697.312,642.364 698.5,641.5 Z"/></g>
<g><path style="opacity:0.506" fill="#f9fafc" d="M 37.5,618.5 C 53.8659,618.151 70.1993,618.651 86.5,620C 104.63,626.079 111.463,638.579 107,657.5C 103.519,668.001 96.3525,674.501 85.5,677C 79.5092,677.499 73.5092,677.666 67.5,677.5C 67.5,684.5 67.5,691.5 67.5,698.5C 57.1667,698.5 46.8333,698.5 36.5,698.5C 36.1761,671.759 36.5094,645.092 37.5,618.5 Z M 67.5,640.5 C 78.176,639.519 81.176,643.852 76.5,653.5C 73.7239,655.13 70.7239,655.797 67.5,655.5C 67.5,650.5 67.5,645.5 67.5,640.5 Z"/></g>
<g><path style="opacity:0.435" fill="#f8f9fc" d="M 344.5,618.5 C 354.167,618.5 363.833,618.5 373.5,618.5C 373.333,630.838 373.5,643.171 374,655.5C 382.743,644.346 391.243,633.012 399.5,621.5C 401.667,620.208 404,619.375 406.5,619C 413.492,618.5 420.492,618.334 427.5,618.5C 426.753,645.16 426.42,671.827 426.5,698.5C 416.833,698.5 407.167,698.5 397.5,698.5C 397.667,686.829 397.5,675.162 397,663.5C 390.117,674.769 382.617,685.602 374.5,696C 373.167,696.667 371.833,697.333 370.5,698C 361.506,698.5 352.506,698.666 343.5,698.5C 343.176,671.759 343.509,645.092 344.5,618.5 Z"/></g>
<g><path style="opacity:0.506" fill="#f9fafc" d="M 588.5,618.5 C 604.866,618.151 621.199,618.651 637.5,620C 655.63,626.079 662.463,638.579 658,657.5C 654.519,668.001 647.352,674.501 636.5,677C 630.509,677.499 624.509,677.666 618.5,677.5C 618.5,684.5 618.5,691.5 618.5,698.5C 608.167,698.5 597.833,698.5 587.5,698.5C 587.176,671.759 587.509,645.092 588.5,618.5 Z M 618.5,640.5 C 629.176,639.519 632.176,643.852 627.5,653.5C 624.724,655.13 621.724,655.797 618.5,655.5C 618.5,650.5 618.5,645.5 618.5,640.5 Z"/></g>
<g><path style="opacity:0.435" fill="#f8f9fc" d="M 895.5,618.5 C 905.167,618.5 914.833,618.5 924.5,618.5C 924.333,630.838 924.5,643.171 925,655.5C 933.743,644.346 942.243,633.012 950.5,621.5C 952.667,620.208 955,619.375 957.5,619C 964.492,618.5 971.492,618.334 978.5,618.5C 977.753,645.16 977.42,671.827 977.5,698.5C 967.833,698.5 958.167,698.5 948.5,698.5C 948.667,686.829 948.5,675.162 948,663.5C 941.117,674.769 933.617,685.602 925.5,696C 924.167,696.667 922.833,697.333 921.5,698C 912.506,698.5 903.506,698.666 894.5,698.5C 894.176,671.759 894.509,645.092 895.5,618.5 Z"/></g>
<g><path style="opacity:1" fill="#304fa4" d="M 142.5,619.5 C 176.292,617.126 192.458,632.793 191,666.5C 188.376,683.123 178.876,693.29 162.5,697C 125.086,701.744 108.253,685.244 112,647.5C 116.959,632.37 127.126,623.036 142.5,619.5 Z M 147.5,641.5 C 146.312,642.364 145.145,643.364 144,644.5C 140.191,652.545 139.524,660.878 142,669.5C 144.919,675.025 149.419,676.858 155.5,675C 161.412,670.268 163.579,664.102 162,656.5C 161.575,646.911 156.741,641.911 147.5,641.5 Z"/></g>
<g><path style="opacity:1" fill="#6c81be" d="M 403.5,621.5 C 410.648,620.508 417.981,620.175 425.5,620.5C 425.829,633.677 425.495,646.677 424.5,659.5C 424.5,646.833 424.5,634.167 424.5,621.5C 417.5,621.5 410.5,621.5 403.5,621.5 Z"/></g>
<g><path style="opacity:1" fill="#304fa4" d="M 693.5,619.5 C 727.292,617.126 743.458,632.793 742,666.5C 739.376,683.123 729.876,693.29 713.5,697C 676.086,701.744 659.253,685.244 663,647.5C 667.959,632.37 678.126,623.036 693.5,619.5 Z M 698.5,641.5 C 697.312,642.364 696.145,643.364 695,644.5C 691.191,652.545 690.524,660.878 693,669.5C 695.919,675.025 700.419,676.858 706.5,675C 712.412,670.268 714.579,664.102 713,656.5C 712.575,646.911 707.741,641.911 698.5,641.5 Z"/></g>
<g><path style="opacity:1" fill="#6c81be" d="M 954.5,621.5 C 961.648,620.508 968.981,620.175 976.5,620.5C 976.829,633.677 976.495,646.677 975.5,659.5C 975.5,646.833 975.5,634.167 975.5,621.5C 968.5,621.5 961.5,621.5 954.5,621.5 Z"/></g>
<g><path style="opacity:1" fill="#6279ba" d="M 82.5,621.5 C 68.1667,621.5 53.8333,621.5 39.5,621.5C 39.5,646.5 39.5,671.5 39.5,696.5C 47.8333,696.5 56.1667,696.5 64.5,696.5C 64.1755,689.313 64.5088,682.313 65.5,675.5C 65.5,682.833 65.5,690.167 65.5,697.5C 56.5,697.5 47.5,697.5 38.5,697.5C 38.5,671.833 38.5,646.167 38.5,620.5C 53.3428,620.171 68.0095,620.504 82.5,621.5 Z"/></g>
<g><path style="opacity:1" fill="#2f4ea4" d="M 82.5,621.5 C 101.87,625.393 109.37,637.06 105,656.5C 102.596,665.237 97.0965,671.071 88.5,674C 80.9048,675.356 73.2382,675.856 65.5,675.5C 64.5088,682.313 64.1755,689.313 64.5,696.5C 56.1667,696.5 47.8333,696.5 39.5,696.5C 39.5,671.5 39.5,646.5 39.5,621.5C 53.8333,621.5 68.1667,621.5 82.5,621.5 Z M 67.5,640.5 C 67.5,645.5 67.5,650.5 67.5,655.5C 70.7239,655.797 73.7239,655.13 76.5,653.5C 81.176,643.852 78.176,639.519 67.5,640.5 Z"/></g>
<g><path style="opacity:1" fill="#8295c8" d="M 346.5,620.5 C 346.5,645.833 346.5,671.167 346.5,696.5C 353.5,696.5 360.5,696.5 367.5,696.5C 360.352,697.492 353.019,697.825 345.5,697.5C 345.169,671.661 345.502,645.995 346.5,620.5 Z"/></g>
<g><path style="opacity:1" fill="#2f4ea4" d="M 346.5,620.5 C 354.833,620.5 363.167,620.5 371.5,620.5C 371.464,634.852 371.297,649.185 371,663.5C 380.721,650.779 390.054,637.779 399,624.5C 400.271,623.117 401.771,622.117 403.5,621.5C 410.5,621.5 417.5,621.5 424.5,621.5C 424.5,634.167 424.5,646.833 424.5,659.5C 424.5,671.833 424.5,684.167 424.5,696.5C 416.5,696.5 408.5,696.5 400.5,696.5C 400.833,683.15 400.499,669.817 399.5,656.5C 398.893,656.624 398.56,656.957 398.5,657.5C 390.444,670.395 381.777,682.895 372.5,695C 370.975,696.009 369.308,696.509 367.5,696.5C 360.5,696.5 353.5,696.5 346.5,696.5C 346.5,671.167 346.5,645.833 346.5,620.5 Z"/></g>
<g><path style="opacity:1" fill="#6279ba" d="M 633.5,621.5 C 619.167,621.5 604.833,621.5 590.5,621.5C 590.5,646.5 590.5,671.5 590.5,696.5C 598.833,696.5 607.167,696.5 615.5,696.5C 615.175,689.313 615.509,682.313 616.5,675.5C 616.5,682.833 616.5,690.167 616.5,697.5C 607.5,697.5 598.5,697.5 589.5,697.5C 589.5,671.833 589.5,646.167 589.5,620.5C 604.343,620.171 619.01,620.504 633.5,621.5 Z"/></g>
<g><path style="opacity:1" fill="#2f4ea4" d="M 633.5,621.5 C 652.87,625.393 660.37,637.06 656,656.5C 653.596,665.237 648.096,671.071 639.5,674C 631.905,675.356 624.238,675.856 616.5,675.5C 615.509,682.313 615.175,689.313 615.5,696.5C 607.167,696.5 598.833,696.5 590.5,696.5C 590.5,671.5 590.5,646.5 590.5,621.5C 604.833,621.5 619.167,621.5 633.5,621.5 Z M 618.5,640.5 C 618.5,645.5 618.5,650.5 618.5,655.5C 621.724,655.797 624.724,655.13 627.5,653.5C 632.176,643.852 629.176,639.519 618.5,640.5 Z"/></g>
<g><path style="opacity:1" fill="#8295c8" d="M 897.5,620.5 C 897.5,645.833 897.5,671.167 897.5,696.5C 904.5,696.5 911.5,696.5 918.5,696.5C 911.352,697.492 904.019,697.825 896.5,697.5C 896.169,671.661 896.502,645.995 897.5,620.5 Z"/></g>
<g><path style="opacity:1" fill="#2f4ea4" d="M 897.5,620.5 C 905.833,620.5 914.167,620.5 922.5,620.5C 922.464,634.852 922.297,649.185 922,663.5C 931.721,650.779 941.054,637.779 950,624.5C 951.271,623.117 952.771,622.117 954.5,621.5C 961.5,621.5 968.5,621.5 975.5,621.5C 975.5,634.167 975.5,646.833 975.5,659.5C 975.5,671.833 975.5,684.167 975.5,696.5C 967.5,696.5 959.5,696.5 951.5,696.5C 951.833,683.15 951.499,669.817 950.5,656.5C 949.893,656.624 949.56,656.957 949.5,657.5C 941.444,670.395 932.777,682.895 923.5,695C 921.975,696.009 920.308,696.509 918.5,696.5C 911.5,696.5 904.5,696.5 897.5,696.5C 897.5,671.167 897.5,645.833 897.5,620.5 Z"/></g>
<g><path style="opacity:0.508" fill="#f1f3f9" d="M 65.5,638.5 C 77.1542,636.322 81.9875,640.989 80,652.5C 76.2193,656.99 71.386,658.657 65.5,657.5C 65.5,651.167 65.5,644.833 65.5,638.5 Z M 67.5,640.5 C 67.5,645.5 67.5,650.5 67.5,655.5C 70.7239,655.797 73.7239,655.13 76.5,653.5C 81.176,643.852 78.176,639.519 67.5,640.5 Z"/></g>
<g><path style="opacity:0.508" fill="#f1f3f9" d="M 616.5,638.5 C 628.154,636.322 632.988,640.989 631,652.5C 627.219,656.99 622.386,658.657 616.5,657.5C 616.5,651.167 616.5,644.833 616.5,638.5 Z M 618.5,640.5 C 618.5,645.5 618.5,650.5 618.5,655.5C 621.724,655.797 624.724,655.13 627.5,653.5C 632.176,643.852 629.176,639.519 618.5,640.5 Z"/></g>
<g><path style="opacity:0.455" fill="#e9ecf5" d="M 146.5,639.5 C 156.687,639.174 162.52,644.174 164,654.5C 165.252,661.987 163.752,668.82 159.5,675C 148.532,680.598 141.699,677.432 139,665.5C 136.6,655.22 139.1,646.554 146.5,639.5 Z M 147.5,641.5 C 146.312,642.364 145.145,643.364 144,644.5C 140.191,652.545 139.524,660.878 142,669.5C 144.919,675.025 149.419,676.858 155.5,675C 161.412,670.268 163.579,664.102 162,656.5C 161.575,646.911 156.741,641.911 147.5,641.5 Z"/></g>
<g><path style="opacity:0.455" fill="#e9ecf5" d="M 697.5,639.5 C 707.687,639.174 713.52,644.174 715,654.5C 716.252,661.987 714.752,668.82 710.5,675C 699.532,680.598 692.699,677.432 690,665.5C 687.6,655.22 690.1,646.554 697.5,639.5 Z M 698.5,641.5 C 697.312,642.364 696.145,643.364 695,644.5C 691.191,652.545 690.524,660.878 693,669.5C 695.919,675.025 700.419,676.858 706.5,675C 712.412,670.268 714.579,664.102 713,656.5C 712.575,646.911 707.741,641.911 698.5,641.5 Z"/></g>
<g><path style="opacity:0.507" fill="#eceef6" d="M 328.5,699.5 C 319.167,699.5 309.833,699.5 300.5,699.5C 273.508,692.242 262.675,674.576 268,646.5C 272.167,633 281,624.167 294.5,620C 309.557,616.938 324.557,617.271 339.5,621C 339.833,621.333 340.167,621.667 340.5,622C 338.817,629.913 336.817,637.746 334.5,645.5C 325.546,643.073 316.546,642.906 307.5,645C 297.369,652.322 296.035,660.988 303.5,671C 308.777,673.918 314.444,675.085 320.5,674.5C 325.52,674.332 330.52,673.999 335.5,673.5C 336.754,681.457 337.254,689.457 337,697.5C 334.061,698.128 331.228,698.795 328.5,699.5 Z"/></g>
<g><path style="opacity:1" fill="#304fa4" d="M 301.5,619.5 C 313.316,619.007 324.983,620.007 336.5,622.5C 336.833,623.5 337.167,624.5 337.5,625.5C 335.855,631.057 334.855,636.723 334.5,642.5C 329.172,642.168 323.838,641.834 318.5,641.5C 299.188,642.791 293.021,652.458 300,670.5C 305.484,675.605 311.984,677.605 319.5,676.5C 324.52,676.332 329.52,675.999 334.5,675.5C 334.773,682.504 335.106,689.504 335.5,696.5C 323.181,697.482 310.848,697.649 298.5,697C 273.558,688.63 264.058,671.464 270,645.5C 273.014,636.624 278.514,629.791 286.5,625C 291.571,623.035 296.571,621.202 301.5,619.5 Z"/></g>
<g><path style="opacity:0.507" fill="#eceef6" d="M 879.5,699.5 C 870.167,699.5 860.833,699.5 851.5,699.5C 824.508,692.242 813.675,674.576 819,646.5C 823.167,633 832,624.167 845.5,620C 860.557,616.938 875.557,617.271 890.5,621C 890.833,621.333 891.167,621.667 891.5,622C 889.817,629.913 887.817,637.746 885.5,645.5C 876.546,643.073 867.546,642.906 858.5,645C 848.369,652.322 847.035,660.988 854.5,671C 859.777,673.918 865.444,675.085 871.5,674.5C 876.52,674.332 881.52,673.999 886.5,673.5C 887.754,681.457 888.254,689.457 888,697.5C 885.061,698.128 882.228,698.795 879.5,699.5 Z"/></g>
<g><path style="opacity:1" fill="#304fa4" d="M 852.5,619.5 C 864.316,619.007 875.983,620.007 887.5,622.5C 887.833,623.5 888.167,624.5 888.5,625.5C 886.855,631.057 885.855,636.723 885.5,642.5C 880.172,642.168 874.838,641.834 869.5,641.5C 850.188,642.791 844.021,652.458 851,670.5C 856.484,675.605 862.984,677.605 870.5,676.5C 875.52,676.332 880.52,675.999 885.5,675.5C 885.773,682.504 886.106,689.504 886.5,696.5C 874.181,697.482 861.848,697.649 849.5,697C 824.558,688.63 815.058,671.464 821,645.5C 824.014,636.624 829.514,629.791 837.5,625C 842.571,623.035 847.571,621.202 852.5,619.5 Z"/></g>
<g><path style="opacity:1" fill="#788cc3" d="M 398.5,657.5 C 398.56,656.957 398.893,656.624 399.5,656.5C 400.499,669.817 400.833,683.15 400.5,696.5C 408.5,696.5 416.5,696.5 424.5,696.5C 416.35,697.493 408.017,697.826 399.5,697.5C 399.829,683.99 399.496,670.656 398.5,657.5 Z"/></g>
<g><path style="opacity:1" fill="#788cc3" d="M 949.5,657.5 C 949.56,656.957 949.893,656.624 950.5,656.5C 951.499,669.817 951.833,683.15 951.5,696.5C 959.5,696.5 967.5,696.5 975.5,696.5C 967.35,697.493 959.017,697.826 950.5,697.5C 950.829,683.99 950.496,670.656 949.5,657.5 Z"/></g>
<g><path style="opacity:0.519" fill="#edeff7" d="M 458.5,618.5 C 474.5,618.5 490.5,618.5 506.5,618.5C 506.5,645.167 506.5,671.833 506.5,698.5C 496.828,698.666 487.161,698.5 477.5,698C 476.68,688.577 476.18,679.077 476,669.5C 474.414,670.376 472.914,671.376 471.5,672.5C 468.569,679.46 465.736,686.46 463,693.5C 462.215,695.286 461.049,696.786 459.5,698C 448.833,698.667 438.167,698.667 427.5,698C 432.128,688.576 436.628,679.076 441,669.5C 443.167,666 446,663.167 449.5,661C 434.932,656.021 430.432,646.188 436,631.5C 437.461,627.74 439.961,624.907 443.5,623C 448.414,620.747 453.414,619.247 458.5,618.5 Z M 467.5,638.5 C 470.833,638.5 474.167,638.5 477.5,638.5C 477.5,642.5 477.5,646.5 477.5,650.5C 474.482,650.665 471.482,650.498 468.5,650C 463.885,648.923 462.385,646.09 464,641.5C 465.145,640.364 466.312,639.364 467.5,638.5 Z"/></g>
<g><path style="opacity:1" fill="#304fa4" d="M 457.5,696.5 C 448.651,696.826 439.984,696.493 431.5,695.5C 434.897,687.483 438.397,679.483 442,671.5C 445.214,666.618 449.381,662.785 454.5,660C 435.934,656.022 431.101,645.522 440,628.5C 444.189,624.822 449.023,622.322 454.5,621C 471.163,620.5 487.83,620.333 504.5,620.5C 504.5,646.167 504.5,671.833 504.5,697.5C 495.833,697.5 487.167,697.5 478.5,697.5C 478.5,687.5 478.5,677.5 478.5,667.5C 474.898,667.467 471.898,668.801 469.5,671.5C 466.362,679.581 463.029,687.581 459.5,695.5C 459.043,696.298 458.376,696.631 457.5,696.5 Z M 467.5,638.5 C 466.312,639.364 465.145,640.364 464,641.5C 462.385,646.09 463.885,648.923 468.5,650C 471.482,650.498 474.482,650.665 477.5,650.5C 477.5,646.5 477.5,642.5 477.5,638.5C 474.167,638.5 470.833,638.5 467.5,638.5 Z"/></g>
<g><path style="opacity:0.544" fill="#e9ecf5" d="M 467.5,636.5 C 471.5,636.5 475.5,636.5 479.5,636.5C 479.5,641.833 479.5,647.167 479.5,652.5C 475.154,652.666 470.821,652.499 466.5,652C 462.139,649.774 460.639,646.274 462,641.5C 463.107,638.887 464.94,637.22 467.5,636.5 Z M 467.5,638.5 C 466.312,639.364 465.145,640.364 464,641.5C 462.385,646.09 463.885,648.923 468.5,650C 471.482,650.498 474.482,650.665 477.5,650.5C 477.5,646.5 477.5,642.5 477.5,638.5C 474.167,638.5 470.833,638.5 467.5,638.5 Z"/></g>
<g><path style="opacity:0.519" fill="#edeff7" d="M 1009.5,618.5 C 1025.5,618.5 1041.5,618.5 1057.5,618.5C 1057.5,645.167 1057.5,671.833 1057.5,698.5C 1047.83,698.666 1038.16,698.5 1028.5,698C 1027.68,688.577 1027.18,679.077 1027,669.5C 1025.41,670.376 1023.91,671.376 1022.5,672.5C 1019.57,679.46 1016.74,686.46 1014,693.5C 1013.22,695.286 1012.05,696.786 1010.5,698C 999.833,698.667 989.167,698.667 978.5,698C 983.128,688.576 987.628,679.076 992,669.5C 994.167,666 997,663.167 1000.5,661C 985.932,656.021 981.432,646.188 987,631.5C 988.461,627.74 990.961,624.907 994.5,623C 999.414,620.747 1004.41,619.247 1009.5,618.5 Z M 1018.5,638.5 C 1021.83,638.5 1025.17,638.5 1028.5,638.5C 1028.5,642.5 1028.5,646.5 1028.5,650.5C 1025.48,650.665 1022.48,650.498 1019.5,650C 1014.88,648.923 1013.38,646.09 1015,641.5C 1016.15,640.364 1017.31,639.364 1018.5,638.5 Z"/></g>
<g><path style="opacity:1" fill="#304fa4" d="M 1008.5,696.5 C 999.651,696.826 990.984,696.493 982.5,695.5C 985.897,687.483 989.397,679.483 993,671.5C 996.214,666.618 1000.38,662.785 1005.5,660C 986.934,656.022 982.101,645.522 991,628.5C 995.189,624.822 1000.02,622.322 1005.5,621C 1022.16,620.5 1038.83,620.333 1055.5,620.5C 1055.5,646.167 1055.5,671.833 1055.5,697.5C 1046.83,697.5 1038.17,697.5 1029.5,697.5C 1029.5,687.5 1029.5,677.5 1029.5,667.5C 1025.9,667.467 1022.9,668.801 1020.5,671.5C 1017.36,679.581 1014.03,687.581 1010.5,695.5C 1010.04,696.298 1009.38,696.631 1008.5,696.5 Z M 1018.5,638.5 C 1017.31,639.364 1016.15,640.364 1015,641.5C 1013.38,646.09 1014.88,648.923 1019.5,650C 1022.48,650.498 1025.48,650.665 1028.5,650.5C 1028.5,646.5 1028.5,642.5 1028.5,638.5C 1025.17,638.5 1021.83,638.5 1018.5,638.5 Z"/></g>
<g><path style="opacity:0.544" fill="#e9ecf5" d="M 1018.5,636.5 C 1022.5,636.5 1026.5,636.5 1030.5,636.5C 1030.5,641.833 1030.5,647.167 1030.5,652.5C 1026.15,652.666 1021.82,652.499 1017.5,652C 1013.14,649.774 1011.64,646.274 1013,641.5C 1014.11,638.887 1015.94,637.22 1018.5,636.5 Z M 1018.5,638.5 C 1017.31,639.364 1016.15,640.364 1015,641.5C 1013.38,646.09 1014.88,648.923 1019.5,650C 1022.48,650.498 1025.48,650.665 1028.5,650.5C 1028.5,646.5 1028.5,642.5 1028.5,638.5C 1025.17,638.5 1021.83,638.5 1018.5,638.5 Z"/></g>
<g><path style="opacity:0.505" fill="#f1f3f9" d="M 257.5,699.5 C 248.167,699.5 238.833,699.5 229.5,699.5C 203.563,693.017 192.397,676.35 196,649.5C 199.377,634.231 208.544,624.398 223.5,620C 238.233,616.872 252.899,617.206 267.5,621C 267.163,629.022 265.83,637.022 263.5,645C 255.64,643.565 247.64,643.231 239.5,644C 228.197,649.527 225.364,658.027 231,669.5C 233.251,671.377 235.751,672.877 238.5,674C 247.189,674.673 255.856,674.507 264.5,673.5C 264.986,681.068 265.986,688.568 267.5,696C 267.095,696.945 266.428,697.612 265.5,698C 262.635,698.183 259.969,698.683 257.5,699.5 Z"/></g>
<g><path style="opacity:1" fill="#3150a5" d="M 230.5,619.5 C 242.013,618.825 253.346,619.825 264.5,622.5C 264.833,623.5 265.167,624.5 265.5,625.5C 264.39,631.16 263.39,636.827 262.5,642.5C 257.509,642.126 252.509,641.792 247.5,641.5C 234.914,641.091 227.914,647.091 226.5,659.5C 227.907,672.554 235.241,678.221 248.5,676.5C 253.193,676.366 257.859,676.032 262.5,675.5C 263.887,682.421 264.553,689.421 264.5,696.5C 250.78,699.13 237.113,698.963 223.5,696C 202.035,687.241 193.535,671.408 198,648.5C 202.843,632.013 213.676,622.346 230.5,619.5 Z"/></g>
<g><path style="opacity:0.505" fill="#f1f3f9" d="M 808.5,699.5 C 799.167,699.5 789.833,699.5 780.5,699.5C 754.563,693.017 743.397,676.35 747,649.5C 750.377,634.231 759.544,624.398 774.5,620C 789.233,616.872 803.899,617.206 818.5,621C 818.163,629.022 816.83,637.022 814.5,645C 806.64,643.565 798.64,643.231 790.5,644C 779.197,649.527 776.364,658.027 782,669.5C 784.251,671.377 786.751,672.877 789.5,674C 798.189,674.673 806.856,674.507 815.5,673.5C 815.986,681.068 816.986,688.568 818.5,696C 818.095,696.945 817.428,697.612 816.5,698C 813.635,698.183 810.969,698.683 808.5,699.5 Z"/></g>
<g><path style="opacity:1" fill="#3150a5" d="M 781.5,619.5 C 793.013,618.825 804.346,619.825 815.5,622.5C 815.833,623.5 816.167,624.5 816.5,625.5C 815.39,631.16 814.39,636.827 813.5,642.5C 808.509,642.126 803.509,641.792 798.5,641.5C 785.914,641.091 778.914,647.091 777.5,659.5C 778.907,672.554 786.241,678.221 799.5,676.5C 804.193,676.366 808.859,676.032 813.5,675.5C 814.887,682.421 815.553,689.421 815.5,696.5C 801.78,699.13 788.113,698.963 774.5,696C 753.035,687.241 744.535,671.408 749,648.5C 753.843,632.013 764.676,622.346 781.5,619.5 Z"/></g>
<g><path style="opacity:1" fill="#6980bd" d="M 431.5,695.5 C 439.984,696.493 448.651,696.826 457.5,696.5C 448.658,697.822 439.658,697.822 430.5,696.5C 430.624,695.893 430.957,695.56 431.5,695.5 Z"/></g>
<g><path style="opacity:1" fill="#6980bd" d="M 982.5,695.5 C 990.984,696.493 999.651,696.826 1008.5,696.5C 999.658,697.822 990.658,697.822 981.5,696.5C 981.624,695.893 981.957,695.56 982.5,695.5 Z"/></g>
</svg>
