<?xml version="1.0" encoding="UTF-8"?>
<!DOCTYPE svg PUBLIC "-//W3C//DTD SVG 1.1//EN" "http://www.w3.org/Graphics/SVG/1.1/DTD/svg11.dtd">
<svg xmlns="http://www.w3.org/2000/svg" version="1.1" width="1400px" height="700px" style="shape-rendering:geometricPrecision; text-rendering:geometricPrecision; image-rendering:optimizeQuality; fill-rule:evenodd; clip-rule:evenodd" xmlns:xlink="http://www.w3.org/1999/xlink">
<g><path style="opacity:0.994" fill="#373c40" d="M 422.5,4.5 C 422.333,42.8348 422.5,81.1681 423,119.5C 423.232,120.737 423.732,121.737 424.5,122.5C 427.46,128.87 432.127,133.704 438.5,137C 457.453,138.435 476.453,138.935 495.5,138.5C 495.5,154.5 495.5,170.5 495.5,186.5C 481.524,200.391 472.858,217.058 469.5,236.5C 467.96,241.065 467.293,245.898 467.5,251C 467.557,256.873 468.057,262.707 469,268.5C 469.383,269.056 469.883,269.389 470.5,269.5C 472.4,280.953 476.733,291.287 483.5,300.5C 480.003,313.819 476.503,327.153 473,340.5C 468.105,353.289 462.938,365.955 457.5,378.5C 353.499,378.333 249.499,378.5 145.5,379C 144.944,379.383 144.611,379.883 144.5,380.5C 143.542,380.953 142.708,381.619 142,382.5C 140.39,387.645 141.89,391.312 146.5,393.5C 247.333,394.333 348.333,394.833 449.5,395C 439.028,415.094 427.361,434.594 414.5,453.5C 324.668,454.167 235.001,454.833 145.5,455.5C 141.686,458.152 140.519,461.819 142,466.5C 142.383,467.056 142.883,467.389 143.5,467.5C 144.167,468.833 145.167,469.833 146.5,470.5C 230.999,471.333 315.666,471.833 400.5,472C 382.669,493.331 363.335,513.164 342.5,531.5C 276.832,531.333 211.166,531.5 145.5,532C 144.944,532.383 144.611,532.883 144.5,533.5C 143.542,533.953 142.708,534.619 142,535.5C 140.392,540.598 141.892,544.265 146.5,546.5C 204.665,547.333 262.999,547.833 321.5,548C 288.237,572.129 252.57,591.796 214.5,607C 191.663,607.168 168.996,607.668 146.5,608.5C 142.917,609.422 141.25,611.756 141.5,615.5C 141.597,619.597 143.597,622.263 147.5,623.5C 148.263,624.268 149.263,624.768 150.5,625C 132.651,628.705 114.651,631.205 96.5,632.5C 96.3333,428.833 96.5,225.166 97,21.5C 101.139,14.6941 106.639,9.1941 113.5,5C 216.499,4.5 319.499,4.33334 422.5,4.5 Z"/></g>
<g><path style="opacity:0.994" fill="#373c40" d="M 1122.5,4.5 C 1122.33,42.8348 1122.5,81.1681 1123,119.5C 1123.23,120.737 1123.73,121.737 1124.5,122.5C 1127.46,128.87 1132.13,133.704 1138.5,137C 1157.45,138.435 1176.45,138.935 1195.5,138.5C 1195.5,154.5 1195.5,170.5 1195.5,186.5C 1181.52,200.391 1172.86,217.058 1169.5,236.5C 1167.96,241.065 1167.29,245.898 1167.5,251C 1167.56,256.873 1168.06,262.707 1169,268.5C 1169.38,269.056 1169.88,269.389 1170.5,269.5C 1172.4,280.953 1176.73,291.287 1183.5,300.5C 1180,313.819 1176.5,327.153 1173,340.5C 1168.1,353.289 1162.94,365.955 1157.5,378.5C 1053.5,378.333 949.499,378.5 845.5,379C 844.944,379.383 844.611,379.883 844.5,380.5C 843.542,380.953 842.708,381.619 842,382.5C 840.39,387.645 841.89,391.312 846.5,393.5C 947.333,394.333 1048.33,394.833 1149.5,395C 1139.03,415.094 1127.36,434.594 1114.5,453.5C 1024.67,454.167 935.001,454.833 845.5,455.5C 841.686,458.152 840.519,461.819 842,466.5C 842.383,467.056 842.883,467.389 843.5,467.5C 844.167,468.833 845.167,469.833 846.5,470.5C 930.999,471.333 1015.67,471.833 1100.5,472C 1082.67,493.331 1063.34,513.164 1042.5,531.5C 976.832,531.333 911.166,531.5 845.5,532C 844.944,532.383 844.611,532.883 844.5,533.5C 843.542,533.953 842.708,534.619 842,535.5C 840.392,540.598 841.892,544.265 846.5,546.5C 904.665,547.333 962.999,547.833 1021.5,548C 988.237,572.129 952.57,591.796 914.5,607C 891.663,607.168 868.996,607.668 846.5,608.5C 842.917,609.422 841.25,611.756 841.5,615.5C 841.597,619.597 843.597,622.263 847.5,623.5C 848.263,624.268 849.263,624.768 850.5,625C 832.651,628.705 814.651,631.205 796.5,632.5C 796.333,428.833 796.5,225.166 797,21.5C 801.139,14.6941 806.639,9.1941 813.5,5C 916.499,4.5 1019.5,4.33334 1122.5,4.5 Z"/></g>
<g><path style="opacity:1" fill="#1f232f" d="M 520.5,101.5 C 532.527,113.194 544.527,124.861 556.5,136.5C 555.711,136.783 555.044,137.283 554.5,138C 534.836,138.5 515.169,138.667 495.5,138.5C 476.453,138.935 457.453,138.435 438.5,137C 432.127,133.704 427.46,128.87 424.5,122.5C 423.197,84.1808 423.197,45.8475 424.5,7.5C 453.97,37.4698 483.636,67.3032 513.5,97C 515.443,99.1102 517.776,100.61 520.5,101.5 Z"/></g>
<g><path style="opacity:1" fill="#1f232f" d="M 1220.5,101.5 C 1232.53,113.194 1244.53,124.861 1256.5,136.5C 1255.71,136.783 1255.04,137.283 1254.5,138C 1234.84,138.5 1215.17,138.667 1195.5,138.5C 1176.45,138.935 1157.45,138.435 1138.5,137C 1132.13,133.704 1127.46,128.87 1124.5,122.5C 1123.2,84.1808 1123.2,45.8475 1124.5,7.5C 1153.97,37.4698 1183.64,67.3032 1213.5,97C 1215.44,99.1102 1217.78,100.61 1220.5,101.5 Z"/></g>
<g><path style="opacity:0.641" fill="#252932" d="M 422.5,4.5 C 455.741,36.0737 488.408,68.407 520.5,101.5C 517.776,100.61 515.443,99.1102 513.5,97C 483.636,67.3032 453.97,37.4698 424.5,7.5C 423.197,45.8475 423.197,84.1808 424.5,122.5C 423.732,121.737 423.232,120.737 423,119.5C 422.5,81.1681 422.333,42.8348 422.5,4.5 Z"/></g>
<g><path style="opacity:0.641" fill="#252932" d="M 1122.5,4.5 C 1155.74,36.0737 1188.41,68.407 1220.5,101.5C 1217.78,100.61 1215.44,99.1102 1213.5,97C 1183.64,67.3032 1153.97,37.4698 1124.5,7.5C 1123.2,45.8475 1123.2,84.1808 1124.5,122.5C 1123.73,121.737 1123.23,120.737 1123,119.5C 1122.5,81.1681 1122.33,42.8348 1122.5,4.5 Z"/></g>
<g><path style="opacity:1" fill="#0d0d0d" d="M 283.5,146.5 C 282.669,135.341 282.169,124.007 282,112.5C 279.921,106.753 276.088,102.586 270.5,100C 245.5,99.3333 220.5,99.3333 195.5,100C 189.912,102.586 186.079,106.753 184,112.5C 184.148,123.879 183.315,134.879 181.5,145.5C 166.494,122.033 165.66,98.0329 179,73.5C 203.572,41.8523 233.405,35.6856 268.5,55C 292.439,71.7955 301.273,94.6289 295,123.5C 292.91,127.434 291.41,131.601 290.5,136C 288.265,139.659 285.931,143.159 283.5,146.5 Z"/></g>
<g><path style="opacity:1" fill="#0d0d0d" d="M 983.5,146.5 C 982.669,135.341 982.169,124.007 982,112.5C 979.921,106.753 976.088,102.586 970.5,100C 945.5,99.3333 920.5,99.3333 895.5,100C 889.912,102.586 886.079,106.753 884,112.5C 884.148,123.879 883.315,134.879 881.5,145.5C 866.494,122.033 865.66,98.0329 879,73.5C 903.572,41.8523 933.405,35.6856 968.5,55C 992.439,71.7955 1001.27,94.6289 995,123.5C 992.91,127.434 991.41,131.601 990.5,136C 988.265,139.659 985.931,143.159 983.5,146.5 Z"/></g>
<g><path style="opacity:1" fill="#352d1d" d="M 283.5,146.5 C 280.01,159.807 273.177,171.14 263,180.5C 262.761,181.788 263.261,182.788 264.5,183.5C 258.255,184.19 252.255,186.023 246.5,189C 237.167,191 227.833,191 218.5,189C 214.361,188.35 210.694,186.683 207.5,184C 205.527,183.505 203.527,183.338 201.5,183.5C 201.918,182.778 202.584,182.278 203.5,182C 192.044,172.104 184.711,159.937 181.5,145.5C 183.315,134.879 184.148,123.879 184,112.5C 186.079,106.753 189.912,102.586 195.5,100C 220.5,99.3333 245.5,99.3333 270.5,100C 276.088,102.586 279.921,106.753 282,112.5C 282.169,124.007 282.669,135.341 283.5,146.5 Z"/></g>
<g><path style="opacity:1" fill="#352d1d" d="M 983.5,146.5 C 980.01,159.807 973.177,171.14 963,180.5C 962.761,181.788 963.261,182.788 964.5,183.5C 958.255,184.19 952.255,186.023 946.5,189C 937.167,191 927.833,191 918.5,189C 914.361,188.35 910.694,186.683 907.5,184C 905.527,183.505 903.527,183.338 901.5,183.5C 901.918,182.778 902.584,182.278 903.5,182C 892.044,172.104 884.711,159.937 881.5,145.5C 883.315,134.879 884.148,123.879 884,112.5C 886.079,106.753 889.912,102.586 895.5,100C 920.5,99.3333 945.5,99.3333 970.5,100C 976.088,102.586 979.921,106.753 982,112.5C 982.169,124.007 982.669,135.341 983.5,146.5 Z"/></g>
<g><path style="opacity:0.99" fill="#2a2d2f" d="M 556.5,136.5 C 557.469,144.748 557.802,153.082 557.5,161.5C 556.711,161.783 556.044,162.283 555.5,163C 539.028,163.285 523.695,167.618 509.5,176C 504.673,179.332 500.007,182.832 495.5,186.5C 495.5,170.5 495.5,154.5 495.5,138.5C 515.169,138.667 534.836,138.5 554.5,138C 555.044,137.283 555.711,136.783 556.5,136.5 Z"/></g>
<g><path style="opacity:0.99" fill="#2a2d2f" d="M 1256.5,136.5 C 1257.47,144.748 1257.8,153.082 1257.5,161.5C 1256.71,161.783 1256.04,162.283 1255.5,163C 1239.03,163.285 1223.7,167.618 1209.5,176C 1204.67,179.332 1200.01,182.832 1195.5,186.5C 1195.5,170.5 1195.5,154.5 1195.5,138.5C 1215.17,138.667 1234.84,138.5 1254.5,138C 1255.04,137.283 1255.71,136.783 1256.5,136.5 Z"/></g>
<g><path style="opacity:0.995" fill="#0c101f" d="M 557.5,161.5 C 598.131,165.412 625.964,186.412 641,224.5C 651.418,270.638 636.585,305.804 596.5,330C 585.218,335.294 573.385,338.461 561,339.5C 559.319,339.608 558.152,340.275 557.5,341.5C 556.596,340.791 556.263,339.791 556.5,338.5C 525.545,338.192 501.212,325.525 483.5,300.5C 476.733,291.287 472.4,280.953 470.5,269.5C 469.568,258.538 469.235,247.538 469.5,236.5C 472.858,217.058 481.524,200.391 495.5,186.5C 500.007,182.832 504.673,179.332 509.5,176C 523.695,167.618 539.028,163.285 555.5,163C 556.044,162.283 556.711,161.783 557.5,161.5 Z"/></g>
<g><path style="opacity:0.995" fill="#0c101f" d="M 1257.5,161.5 C 1298.13,165.412 1325.96,186.412 1341,224.5C 1351.42,270.638 1336.58,305.804 1296.5,330C 1285.22,335.294 1273.38,338.461 1261,339.5C 1259.32,339.608 1258.15,340.275 1257.5,341.5C 1256.6,340.791 1256.26,339.791 1256.5,338.5C 1225.55,338.192 1201.21,325.525 1183.5,300.5C 1176.73,291.287 1172.4,280.953 1170.5,269.5C 1169.57,258.538 1169.23,247.538 1169.5,236.5C 1172.86,217.058 1181.52,200.391 1195.5,186.5C 1200.01,182.832 1204.67,179.332 1209.5,176C 1223.7,167.618 1239.03,163.285 1255.5,163C 1256.04,162.283 1256.71,161.783 1257.5,161.5 Z"/></g>
<g><path style="opacity:1" fill="#341600" d="M 201.5,183.5 C 203.527,183.338 205.527,183.505 207.5,184C 210.694,186.683 214.361,188.35 218.5,189C 227.833,191 237.167,191 246.5,189C 252.255,186.023 258.255,184.19 264.5,183.5C 272.594,184.888 279.927,187.888 286.5,192.5C 299.029,215.952 298.196,238.952 284,261.5C 272.075,277.213 256.242,285.713 236.5,287C 210.16,287.833 183.827,287.667 157.5,286.5C 157.229,283.953 156.229,281.953 154.5,280.5C 152.984,273.771 151.15,267.104 149,260.5C 144.982,226.7 158.149,202.2 188.5,187C 192.706,185.223 197.039,184.056 201.5,183.5 Z"/></g>
<g><path style="opacity:1" fill="#341600" d="M 901.5,183.5 C 903.527,183.338 905.527,183.505 907.5,184C 910.694,186.683 914.361,188.35 918.5,189C 927.833,191 937.167,191 946.5,189C 952.255,186.023 958.255,184.19 964.5,183.5C 972.594,184.888 979.927,187.888 986.5,192.5C 999.029,215.952 998.196,238.952 984,261.5C 972.075,277.213 956.242,285.713 936.5,287C 910.16,287.833 883.827,287.667 857.5,286.5C 857.229,283.953 856.229,281.953 854.5,280.5C 852.984,273.771 851.15,267.104 849,260.5C 844.982,226.7 858.149,202.2 888.5,187C 892.706,185.223 897.039,184.056 901.5,183.5 Z"/></g>
<g><path style="opacity:1" fill="#2b1400" d="M 286.5,192.5 C 302.758,201.994 312.925,215.994 317,234.5C 317.667,243.167 317.667,251.833 317,260.5C 314.562,267.253 312.896,274.253 312,281.5C 310.016,287.451 308.016,293.451 306,299.5C 303.953,303.048 301.12,305.715 297.5,307.5C 295.518,307.995 293.518,308.495 291.5,309C 251.144,309.81 210.811,309.644 170.5,308.5C 166.298,307.137 163.131,304.47 161,300.5C 158.331,293.993 156.164,287.326 154.5,280.5C 156.229,281.953 157.229,283.953 157.5,286.5C 183.827,287.667 210.16,287.833 236.5,287C 256.242,285.713 272.075,277.213 284,261.5C 298.196,238.952 299.029,215.952 286.5,192.5 Z"/></g>
<g><path style="opacity:1" fill="#2b1400" d="M 986.5,192.5 C 1002.76,201.994 1012.92,215.994 1017,234.5C 1017.67,243.167 1017.67,251.833 1017,260.5C 1014.56,267.253 1012.9,274.253 1012,281.5C 1010.02,287.451 1008.02,293.451 1006,299.5C 1003.95,303.048 1001.12,305.715 997.5,307.5C 995.518,307.995 993.518,308.495 991.5,309C 951.144,309.81 910.811,309.644 870.5,308.5C 866.298,307.137 863.131,304.47 861,300.5C 858.331,293.993 856.164,287.326 854.5,280.5C 856.229,281.953 857.229,283.953 857.5,286.5C 883.827,287.667 910.16,287.833 936.5,287C 956.242,285.713 972.075,277.213 984,261.5C 998.196,238.952 999.029,215.952 986.5,192.5 Z"/></g>
<g><path style="opacity:1" fill="#363b3f" d="M 578.5,224.5 C 587.111,223.924 590.278,227.59 588,235.5C 574.167,249.333 560.333,263.167 546.5,277C 544.5,277.667 542.5,277.667 540.5,277C 535,271.5 529.5,266 524,260.5C 520.252,252.278 522.752,248.445 531.5,249C 535.389,252.857 539.556,256.357 544,259.5C 555.675,247.992 567.175,236.325 578.5,224.5 Z"/></g>
<g><path style="opacity:1" fill="#363b3f" d="M 1278.5,224.5 C 1287.11,223.924 1290.28,227.59 1288,235.5C 1274.17,249.333 1260.33,263.167 1246.5,277C 1244.5,277.667 1242.5,277.667 1240.5,277C 1235,271.5 1229.5,266 1224,260.5C 1220.25,252.278 1222.75,248.445 1231.5,249C 1235.39,252.857 1239.56,256.357 1244,259.5C 1255.67,247.992 1267.17,236.325 1278.5,224.5 Z"/></g>
<g><path style="opacity:1" fill="#1b1f2a" d="M 469.5,236.5 C 469.235,247.538 469.568,258.538 470.5,269.5C 469.883,269.389 469.383,269.056 469,268.5C 468.057,262.707 467.557,256.873 467.5,251C 467.293,245.898 467.96,241.065 469.5,236.5 Z"/></g>
<g><path style="opacity:1" fill="#1b1f2a" d="M 1169.5,236.5 C 1169.23,247.538 1169.57,258.538 1170.5,269.5C 1169.88,269.389 1169.38,269.056 1169,268.5C 1168.06,262.707 1167.56,256.873 1167.5,251C 1167.29,245.898 1167.96,241.065 1169.5,236.5 Z"/></g>
<g><path style="opacity:0.993" fill="#292c2e" d="M 483.5,300.5 C 501.212,325.525 525.545,338.192 556.5,338.5C 556.263,339.791 556.596,340.791 557.5,341.5C 557.667,451.167 557.5,560.834 557,670.5C 556.217,681.729 550.717,689.729 540.5,694.5C 398.168,695.667 255.835,695.833 113.5,695C 106.639,690.806 101.139,685.306 97,678.5C 96.5001,663.17 96.3334,647.837 96.5,632.5C 114.651,631.205 132.651,628.705 150.5,625C 149.263,624.768 148.263,624.268 147.5,623.5C 222.167,623.667 296.834,623.5 371.5,623C 378.583,619.175 379.25,614.508 373.5,609C 297.834,608.5 222.167,608.333 146.5,608.5C 168.996,607.668 191.663,607.168 214.5,607C 252.57,591.796 288.237,572.129 321.5,548C 262.999,547.833 204.665,547.333 146.5,546.5C 266.834,546.667 387.167,546.5 507.5,546C 511.465,543.274 512.465,539.607 510.5,535C 509.87,533.69 508.87,532.856 507.5,532.5C 452.669,531.501 397.669,531.168 342.5,531.5C 363.335,513.164 382.669,493.331 400.5,472C 315.666,471.833 230.999,471.333 146.5,470.5C 267.001,470.833 387.334,470.5 507.5,469.5C 514.124,464.946 514.124,460.446 507.5,456C 386.834,455.5 266.167,455.333 145.5,455.5C 235.001,454.833 324.668,454.167 414.5,453.5C 427.361,434.594 439.028,415.094 449.5,395C 348.333,394.833 247.333,394.333 146.5,393.5C 266.834,393.667 387.167,393.5 507.5,393C 511.696,390.019 512.529,386.186 510,381.5C 509.292,380.619 508.458,379.953 507.5,379.5C 491.008,378.503 474.342,378.17 457.5,378.5C 462.938,365.955 468.105,353.289 473,340.5C 476.503,327.153 480.003,313.819 483.5,300.5 Z"/></g>
<g><path style="opacity:0.993" fill="#292c2e" d="M 1183.5,300.5 C 1201.21,325.525 1225.55,338.192 1256.5,338.5C 1256.26,339.791 1256.6,340.791 1257.5,341.5C 1257.67,451.167 1257.5,560.834 1257,670.5C 1256.22,681.729 1250.72,689.729 1240.5,694.5C 1098.17,695.667 955.835,695.833 813.5,695C 806.639,690.806 801.139,685.306 797,678.5C 796.5,663.17 796.333,647.837 796.5,632.5C 814.651,631.205 832.651,628.705 850.5,625C 849.263,624.768 848.263,624.268 847.5,623.5C 922.167,623.667 996.834,623.5 1071.5,623C 1078.58,619.175 1079.25,614.508 1073.5,609C 997.834,608.5 922.167,608.333 846.5,608.5C 868.996,607.668 891.663,607.168 914.5,607C 952.57,591.796 988.237,572.129 1021.5,548C 962.999,547.833 904.665,547.333 846.5,546.5C 966.834,546.667 1087.17,546.5 1207.5,546C 1211.46,543.274 1212.46,539.607 1210.5,535C 1209.87,533.69 1208.87,532.856 1207.5,532.5C 1152.67,531.501 1097.67,531.168 1042.5,531.5C 1063.34,513.164 1082.67,493.331 1100.5,472C 1015.67,471.833 930.999,471.333 846.5,470.5C 967.001,470.833 1087.33,470.5 1207.5,469.5C 1214.12,464.946 1214.12,460.446 1207.5,456C 1086.83,455.5 966.167,455.333 845.5,455.5C 935.001,454.833 1024.67,454.167 1114.5,453.5C 1127.36,434.594 1139.03,415.094 1149.5,395C 1048.33,394.833 947.333,394.333 846.5,393.5C 966.834,393.667 1087.17,393.5 1207.5,393C 1211.7,390.019 1212.53,386.186 1210,381.5C 1209.29,380.619 1208.46,379.953 1207.5,379.5C 1191.01,378.503 1174.34,378.17 1157.5,378.5C 1162.94,365.955 1168.1,353.289 1173,340.5C 1176.5,327.153 1180,313.819 1183.5,300.5 Z"/></g>
<g><path style="opacity:1" fill="#312419" d="M 297.5,307.5 C 296.319,309.067 294.653,309.901 292.5,310C 252.833,310.667 213.167,310.667 173.5,310C 172.263,309.768 171.263,309.268 170.5,308.5C 210.811,309.644 251.144,309.81 291.5,309C 293.518,308.495 295.518,307.995 297.5,307.5 Z"/></g>
<g><path style="opacity:1" fill="#312419" d="M 997.5,307.5 C 996.319,309.067 994.653,309.901 992.5,310C 952.833,310.667 913.167,310.667 873.5,310C 872.263,309.768 871.263,309.268 870.5,308.5C 910.811,309.644 951.144,309.81 991.5,309C 993.518,308.495 995.518,307.995 997.5,307.5 Z"/></g>
<g><path style="opacity:1" fill="#171819" d="M 457.5,378.5 C 474.342,378.17 491.008,378.503 507.5,379.5C 386.46,379.17 265.46,379.504 144.5,380.5C 144.611,379.883 144.944,379.383 145.5,379C 249.499,378.5 353.499,378.333 457.5,378.5 Z"/></g>
<g><path style="opacity:1" fill="#171819" d="M 1157.5,378.5 C 1174.34,378.17 1191.01,378.503 1207.5,379.5C 1086.46,379.17 965.46,379.504 844.5,380.5C 844.611,379.883 844.944,379.383 845.5,379C 949.499,378.5 1053.5,378.333 1157.5,378.5 Z"/></g>
<g><path style="opacity:1" fill="#0d0d0d" d="M 507.5,379.5 C 508.458,379.953 509.292,380.619 510,381.5C 512.529,386.186 511.696,390.019 507.5,393C 387.167,393.5 266.834,393.667 146.5,393.5C 141.89,391.312 140.39,387.645 142,382.5C 142.708,381.619 143.542,380.953 144.5,380.5C 265.46,379.504 386.46,379.17 507.5,379.5 Z"/></g>
<g><path style="opacity:1" fill="#0d0d0d" d="M 1207.5,379.5 C 1208.46,379.953 1209.29,380.619 1210,381.5C 1212.53,386.186 1211.7,390.019 1207.5,393C 1087.17,393.5 966.834,393.667 846.5,393.5C 841.89,391.312 840.39,387.645 842,382.5C 842.708,381.619 843.542,380.953 844.5,380.5C 965.46,379.504 1086.46,379.17 1207.5,379.5 Z"/></g>
<g><path style="opacity:1" fill="#0d0d0d" d="M 145.5,455.5 C 266.167,455.333 386.834,455.5 507.5,456C 514.124,460.446 514.124,464.946 507.5,469.5C 387.166,469.667 266.833,469.5 146.5,469C 145.756,467.961 144.756,467.461 143.5,467.5C 142.883,467.389 142.383,467.056 142,466.5C 140.519,461.819 141.686,458.152 145.5,455.5 Z"/></g>
<g><path style="opacity:1" fill="#0d0d0d" d="M 845.5,455.5 C 966.167,455.333 1086.83,455.5 1207.5,456C 1214.12,460.446 1214.12,464.946 1207.5,469.5C 1087.17,469.667 966.833,469.5 846.5,469C 845.756,467.961 844.756,467.461 843.5,467.5C 842.883,467.389 842.383,467.056 842,466.5C 840.519,461.819 841.686,458.152 845.5,455.5 Z"/></g>
<g><path style="opacity:1" fill="#18191a" d="M 143.5,467.5 C 144.756,467.461 145.756,467.961 146.5,469C 266.833,469.5 387.166,469.667 507.5,469.5C 387.334,470.5 267.001,470.833 146.5,470.5C 145.167,469.833 144.167,468.833 143.5,467.5 Z"/></g>
<g><path style="opacity:1" fill="#18191a" d="M 843.5,467.5 C 844.756,467.461 845.756,467.961 846.5,469C 966.833,469.5 1087.17,469.667 1207.5,469.5C 1087.33,470.5 967.001,470.833 846.5,470.5C 845.167,469.833 844.167,468.833 843.5,467.5 Z"/></g>
<g><path style="opacity:1" fill="#18191a" d="M 342.5,531.5 C 397.669,531.168 452.669,531.501 507.5,532.5C 386.46,532.17 265.46,532.504 144.5,533.5C 144.611,532.883 144.944,532.383 145.5,532C 211.166,531.5 276.832,531.333 342.5,531.5 Z"/></g>
<g><path style="opacity:1" fill="#18191a" d="M 1042.5,531.5 C 1097.67,531.168 1152.67,531.501 1207.5,532.5C 1086.46,532.17 965.46,532.504 844.5,533.5C 844.611,532.883 844.944,532.383 845.5,532C 911.166,531.5 976.832,531.333 1042.5,531.5 Z"/></g>
<g><path style="opacity:1" fill="#0d0d0d" d="M 507.5,532.5 C 508.87,532.856 509.87,533.69 510.5,535C 512.465,539.607 511.465,543.274 507.5,546C 387.167,546.5 266.834,546.667 146.5,546.5C 141.892,544.265 140.392,540.598 142,535.5C 142.708,534.619 143.542,533.953 144.5,533.5C 265.46,532.504 386.46,532.17 507.5,532.5 Z"/></g>
<g><path style="opacity:1" fill="#0d0d0d" d="M 1207.5,532.5 C 1208.87,532.856 1209.87,533.69 1210.5,535C 1212.46,539.607 1211.46,543.274 1207.5,546C 1087.17,546.5 966.834,546.667 846.5,546.5C 841.892,544.265 840.392,540.598 842,535.5C 842.708,534.619 843.542,533.953 844.5,533.5C 965.46,532.504 1086.46,532.17 1207.5,532.5 Z"/></g>
<g><path style="opacity:1" fill="#0e0e0e" d="M 146.5,608.5 C 222.167,608.333 297.834,608.5 373.5,609C 379.25,614.508 378.583,619.175 371.5,623C 296.834,623.5 222.167,623.667 147.5,623.5C 143.597,622.263 141.597,619.597 141.5,615.5C 141.25,611.756 142.917,609.422 146.5,608.5 Z"/></g>
<g><path style="opacity:1" fill="#0e0e0e" d="M 846.5,608.5 C 922.167,608.333 997.834,608.5 1073.5,609C 1079.25,614.508 1078.58,619.175 1071.5,623C 996.834,623.5 922.167,623.667 847.5,623.5C 843.597,622.263 841.597,619.597 841.5,615.5C 841.25,611.756 842.917,609.422 846.5,608.5 Z"/></g>
</svg>
