<?xml version="1.0" encoding="UTF-8"?>
<!DOCTYPE svg PUBLIC "-//W3C//DTD SVG 1.1//EN" "http://www.w3.org/Graphics/SVG/1.1/DTD/svg11.dtd">
<svg xmlns="http://www.w3.org/2000/svg" version="1.1" width="1400px" height="700px" style="shape-rendering:geometricPrecision; text-rendering:geometricPrecision; image-rendering:optimizeQuality; fill-rule:evenodd; clip-rule:evenodd" xmlns:xlink="http://www.w3.org/1999/xlink">
<g><path style="opacity:0.999" fill="#e7f0f7" d="M 422.5,4.5 C 422.168,42.6703 422.501,80.6703 423.5,118.5C 425.634,127.303 430.967,133.303 439.5,136.5C 439.611,137.117 439.944,137.617 440.5,138C 458.83,138.5 477.164,138.667 495.5,138.5C 495.5,154.833 495.5,171.167 495.5,187.5C 469.09,214.551 461.923,246.217 474,282.5C 477.392,288.389 480.559,294.389 483.5,300.5C 477.902,327.573 469.236,353.573 457.5,378.5C 353.499,378.333 249.499,378.5 145.5,379C 141.101,382.72 140.434,386.887 143.5,391.5C 144.5,392.167 145.5,392.833 146.5,393.5C 247.333,394.333 348.333,394.833 449.5,395C 439.509,415.479 427.842,434.979 414.5,453.5C 324.668,454.167 235.001,454.833 145.5,455.5C 144.449,456.222 143.782,457.222 143.5,458.5C 141.8,462.546 142.466,466.213 145.5,469.5C 230.161,471.331 315.161,472.165 400.5,472C 382.669,493.331 363.335,513.164 342.5,531.5C 276.832,531.333 211.166,531.5 145.5,532C 144.619,532.708 143.953,533.542 143.5,534.5C 141.524,539.353 142.524,543.353 146.5,546.5C 204.665,547.333 262.999,547.833 321.5,548C 289.343,571.244 255.01,590.577 218.5,606C 194.704,607.115 171.038,607.949 147.5,608.5C 145.973,608.427 144.973,609.094 144.5,610.5C 143.883,610.611 143.383,610.944 143,611.5C 142.333,614.167 142.333,616.833 143,619.5C 143.759,621.063 144.926,622.063 146.5,622.5C 147.347,623.966 148.68,624.8 150.5,625C 132.712,628.995 114.712,631.495 96.5,632.5C 96.3333,428.833 96.5,225.166 97,21.5C 101.139,14.6941 106.639,9.1941 113.5,5C 216.499,4.5 319.499,4.33334 422.5,4.5 Z"/></g>
<g><path style="opacity:0.999" fill="#e7f0f7" d="M 1122.5,4.5 C 1122.17,42.6703 1122.5,80.6703 1123.5,118.5C 1125.63,127.303 1130.97,133.303 1139.5,136.5C 1139.61,137.117 1139.94,137.617 1140.5,138C 1158.83,138.5 1177.16,138.667 1195.5,138.5C 1195.5,154.833 1195.5,171.167 1195.5,187.5C 1169.09,214.551 1161.92,246.217 1174,282.5C 1177.39,288.389 1180.56,294.389 1183.5,300.5C 1177.9,327.573 1169.24,353.573 1157.5,378.5C 1053.5,378.333 949.499,378.5 845.5,379C 841.101,382.72 840.434,386.887 843.5,391.5C 844.5,392.167 845.5,392.833 846.5,393.5C 947.333,394.333 1048.33,394.833 1149.5,395C 1139.51,415.479 1127.84,434.979 1114.5,453.5C 1024.67,454.167 935.001,454.833 845.5,455.5C 844.449,456.222 843.782,457.222 843.5,458.5C 841.8,462.546 842.466,466.213 845.5,469.5C 930.161,471.331 1015.16,472.165 1100.5,472C 1082.67,493.331 1063.34,513.164 1042.5,531.5C 976.832,531.333 911.166,531.5 845.5,532C 844.619,532.708 843.953,533.542 843.5,534.5C 841.524,539.353 842.524,543.353 846.5,546.5C 904.665,547.333 962.999,547.833 1021.5,548C 989.343,571.244 955.01,590.577 918.5,606C 894.704,607.115 871.038,607.949 847.5,608.5C 845.973,608.427 844.973,609.094 844.5,610.5C 843.883,610.611 843.383,610.944 843,611.5C 842.333,614.167 842.333,616.833 843,619.5C 843.759,621.063 844.926,622.063 846.5,622.5C 847.347,623.966 848.68,624.8 850.5,625C 832.712,628.995 814.712,631.495 796.5,632.5C 796.333,428.833 796.5,225.166 797,21.5C 801.139,14.6941 806.639,9.1941 813.5,5C 916.499,4.5 1019.5,4.33334 1122.5,4.5 Z"/></g>
<g><path style="opacity:1" fill="#acbadf" d="M 439.5,136.5 C 430.967,133.303 425.634,127.303 423.5,118.5C 423.167,81.494 423.5,44.494 424.5,7.5C 467.808,50.2056 510.808,93.3722 553.5,137C 515.459,137.821 477.459,137.654 439.5,136.5 Z"/></g>
<g><path style="opacity:1" fill="#acbadf" d="M 1139.5,136.5 C 1130.97,133.303 1125.63,127.303 1123.5,118.5C 1123.17,81.494 1123.5,44.494 1124.5,7.5C 1167.81,50.2056 1210.81,93.3722 1253.5,137C 1215.46,137.821 1177.46,137.654 1139.5,136.5 Z"/></g>
<g><path style="opacity:1" fill="#464646" d="M 284.5,144.5 C 283.67,134.008 283.17,123.341 283,112.5C 282.768,111.263 282.268,110.263 281.5,109.5C 277.821,103.654 272.488,100.32 265.5,99.5C 242.337,98.3369 219.004,98.1703 195.5,99C 194.944,99.3826 194.611,99.8826 194.5,100.5C 189.398,102.998 185.898,106.998 184,112.5C 183.83,123.674 183.33,134.674 182.5,145.5C 176.929,138.023 173.263,129.69 171.5,120.5C 170.218,111.169 170.218,101.836 171.5,92.5C 178.556,69.2782 193.556,53.7782 216.5,46C 249.761,40.6212 274.595,52.4546 291,81.5C 299.886,103.78 297.719,124.78 284.5,144.5 Z"/></g>
<g><path style="opacity:1" fill="#464646" d="M 984.5,144.5 C 983.67,134.008 983.17,123.341 983,112.5C 982.768,111.263 982.268,110.263 981.5,109.5C 977.821,103.654 972.488,100.32 965.5,99.5C 942.337,98.3369 919.004,98.1703 895.5,99C 894.944,99.3826 894.611,99.8826 894.5,100.5C 889.398,102.998 885.898,106.998 884,112.5C 883.83,123.674 883.33,134.674 882.5,145.5C 876.929,138.023 873.263,129.69 871.5,120.5C 870.218,111.169 870.218,101.836 871.5,92.5C 878.556,69.2782 893.556,53.7782 916.5,46C 949.761,40.6212 974.595,52.4546 991,81.5C 999.886,103.78 997.719,124.78 984.5,144.5 Z"/></g>
<g><path style="opacity:1" fill="#7e786a" d="M 265.5,99.5 C 241.788,99.1867 218.122,99.52 194.5,100.5C 194.611,99.8826 194.944,99.3826 195.5,99C 219.004,98.1703 242.337,98.3369 265.5,99.5 Z"/></g>
<g><path style="opacity:1" fill="#7e786a" d="M 965.5,99.5 C 941.788,99.1867 918.122,99.52 894.5,100.5C 894.611,99.8826 894.944,99.3826 895.5,99C 919.004,98.1703 942.337,98.3369 965.5,99.5 Z"/></g>
<g><path style="opacity:1" fill="#ead7ad" d="M 265.5,99.5 C 272.488,100.32 277.821,103.654 281.5,109.5C 282.087,121.982 282.754,134.316 283.5,146.5C 281.273,150.258 279.94,154.425 279.5,159C 275.366,168.469 269.032,176.136 260.5,182C 263.457,182.279 266.123,183.113 268.5,184.5C 264.854,183.717 261.188,183.55 257.5,184C 243.555,192.194 228.889,193.527 213.5,188C 210.582,183.946 206.582,182.446 201.5,183.5C 201.918,182.778 202.584,182.278 203.5,182C 192.42,171.986 185.42,159.82 182.5,145.5C 183.33,134.674 183.83,123.674 184,112.5C 185.898,106.998 189.398,102.998 194.5,100.5C 218.122,99.52 241.788,99.1867 265.5,99.5 Z"/></g>
<g><path style="opacity:1" fill="#ead7ad" d="M 965.5,99.5 C 972.488,100.32 977.821,103.654 981.5,109.5C 982.087,121.982 982.754,134.316 983.5,146.5C 981.273,150.258 979.94,154.425 979.5,159C 975.366,168.469 969.032,176.136 960.5,182C 963.457,182.279 966.123,183.113 968.5,184.5C 964.854,183.717 961.188,183.55 957.5,184C 943.555,192.194 928.889,193.527 913.5,188C 910.582,183.946 906.582,182.446 901.5,183.5C 901.918,182.778 902.584,182.278 903.5,182C 892.42,171.986 885.42,159.82 882.5,145.5C 883.33,134.674 883.83,123.674 884,112.5C 885.898,106.998 889.398,102.998 894.5,100.5C 918.122,99.52 941.788,99.1867 965.5,99.5 Z"/></g>
<g><path style="opacity:1" fill="#84888a" d="M 171.5,92.5 C 170.218,101.836 170.218,111.169 171.5,120.5C 168.877,111.171 168.877,101.838 171.5,92.5 Z"/></g>
<g><path style="opacity:1" fill="#84888a" d="M 871.5,92.5 C 870.218,101.836 870.218,111.169 871.5,120.5C 868.877,111.171 868.877,101.838 871.5,92.5 Z"/></g>
<g><path style="opacity:1" fill="#7b7466" d="M 281.5,109.5 C 282.268,110.263 282.768,111.263 283,112.5C 283.17,123.341 283.67,134.008 284.5,144.5C 284.167,145.167 283.833,145.833 283.5,146.5C 282.754,134.316 282.087,121.982 281.5,109.5 Z"/></g>
<g><path style="opacity:1" fill="#7b7466" d="M 981.5,109.5 C 982.268,110.263 982.768,111.263 983,112.5C 983.17,123.341 983.67,134.008 984.5,144.5C 984.167,145.167 983.833,145.833 983.5,146.5C 982.754,134.316 982.087,121.982 981.5,109.5 Z"/></g>
<g><path style="opacity:1" fill="#becae2" d="M 422.5,4.5 C 423.675,4.28099 424.675,4.61432 425.5,5.5C 468.881,49.548 512.548,93.2147 556.5,136.5C 536.4,138.47 516.066,139.137 495.5,138.5C 477.164,138.667 458.83,138.5 440.5,138C 439.944,137.617 439.611,137.117 439.5,136.5C 477.459,137.654 515.459,137.821 553.5,137C 510.808,93.3722 467.808,50.2056 424.5,7.5C 423.5,44.494 423.167,81.494 423.5,118.5C 422.501,80.6703 422.168,42.6703 422.5,4.5 Z"/></g>
<g><path style="opacity:1" fill="#becae2" d="M 1122.5,4.5 C 1123.68,4.28099 1124.68,4.61432 1125.5,5.5C 1168.88,49.548 1212.55,93.2147 1256.5,136.5C 1236.4,138.47 1216.07,139.137 1195.5,138.5C 1177.16,138.667 1158.83,138.5 1140.5,138C 1139.94,137.617 1139.61,137.117 1139.5,136.5C 1177.46,137.654 1215.46,137.821 1253.5,137C 1210.81,93.3722 1167.81,50.2056 1124.5,7.5C 1123.5,44.494 1123.17,81.494 1123.5,118.5C 1122.5,80.6703 1122.17,42.6703 1122.5,4.5 Z"/></g>
<g><path style="opacity:0.999" fill="#ccd4da" d="M 556.5,136.5 C 557.469,144.748 557.802,153.082 557.5,161.5C 543.589,163.403 529.922,166.903 516.5,172C 508.778,176.227 501.778,181.393 495.5,187.5C 495.5,171.167 495.5,154.833 495.5,138.5C 516.066,139.137 536.4,138.47 556.5,136.5 Z"/></g>
<g><path style="opacity:0.999" fill="#ccd4da" d="M 1256.5,136.5 C 1257.47,144.748 1257.8,153.082 1257.5,161.5C 1243.59,163.403 1229.92,166.903 1216.5,172C 1208.78,176.227 1201.78,181.393 1195.5,187.5C 1195.5,171.167 1195.5,154.833 1195.5,138.5C 1216.07,139.137 1236.4,138.47 1256.5,136.5 Z"/></g>
<g><path style="opacity:0.997" fill="#475da9" d="M 557.5,161.5 C 598.131,165.412 625.964,186.412 641,224.5C 651.418,270.638 636.585,305.804 596.5,330C 590.673,332.919 584.673,335.252 578.5,337C 571.331,337.993 564.331,339.159 557.5,340.5C 550.044,338.73 542.377,337.23 534.5,336C 513.444,330.127 496.444,318.294 483.5,300.5C 480.559,294.389 477.392,288.389 474,282.5C 461.923,246.217 469.09,214.551 495.5,187.5C 501.778,181.393 508.778,176.227 516.5,172C 529.922,166.903 543.589,163.403 557.5,161.5 Z"/></g>
<g><path style="opacity:0.997" fill="#475da9" d="M 1257.5,161.5 C 1298.13,165.412 1325.96,186.412 1341,224.5C 1351.42,270.638 1336.58,305.804 1296.5,330C 1290.67,332.919 1284.67,335.252 1278.5,337C 1271.33,337.993 1264.33,339.159 1257.5,340.5C 1250.04,338.73 1242.38,337.23 1234.5,336C 1213.44,330.127 1196.44,318.294 1183.5,300.5C 1180.56,294.389 1177.39,288.389 1174,282.5C 1161.92,246.217 1169.09,214.551 1195.5,187.5C 1201.78,181.393 1208.78,176.227 1216.5,172C 1229.92,166.903 1243.59,163.403 1257.5,161.5 Z"/></g>
<g><path style="opacity:1" fill="#f68721" d="M 201.5,183.5 C 206.582,182.446 210.582,183.946 213.5,188C 228.889,193.527 243.555,192.194 257.5,184C 261.188,183.55 264.854,183.717 268.5,184.5C 274.773,186.589 280.773,189.256 286.5,192.5C 300.678,219.642 298.011,244.975 278.5,268.5C 269.07,277.382 258.07,283.382 245.5,286.5C 216.174,287.5 186.841,287.833 157.5,287.5C 152.349,274.423 149.349,260.756 148.5,246.5C 151.276,213.052 168.942,192.052 201.5,183.5 Z"/></g>
<g><path style="opacity:1" fill="#f68721" d="M 901.5,183.5 C 906.582,182.446 910.582,183.946 913.5,188C 928.889,193.527 943.555,192.194 957.5,184C 961.188,183.55 964.854,183.717 968.5,184.5C 974.773,186.589 980.773,189.256 986.5,192.5C 1000.68,219.642 998.011,244.975 978.5,268.5C 969.07,277.382 958.07,283.382 945.5,286.5C 916.174,287.5 886.841,287.833 857.5,287.5C 852.349,274.423 849.349,260.756 848.5,246.5C 851.276,213.052 868.942,192.052 901.5,183.5 Z"/></g>
<g><path style="opacity:1" fill="#da771e" d="M 286.5,192.5 C 302.405,202.32 312.405,216.32 316.5,234.5C 316.721,243.866 316.387,253.199 315.5,262.5C 312.907,274.624 309.74,286.624 306,298.5C 302.525,303.984 297.692,307.651 291.5,309.5C 251.143,309.81 210.809,309.477 170.5,308.5C 162.376,303.932 158.043,296.932 157.5,287.5C 186.841,287.833 216.174,287.5 245.5,286.5C 258.07,283.382 269.07,277.382 278.5,268.5C 298.011,244.975 300.678,219.642 286.5,192.5 Z"/></g>
<g><path style="opacity:1" fill="#da771e" d="M 986.5,192.5 C 1002.41,202.32 1012.41,216.32 1016.5,234.5C 1016.72,243.866 1016.39,253.199 1015.5,262.5C 1012.91,274.624 1009.74,286.624 1006,298.5C 1002.52,303.984 997.692,307.651 991.5,309.5C 951.143,309.81 910.809,309.477 870.5,308.5C 862.376,303.932 858.043,296.932 857.5,287.5C 886.841,287.833 916.174,287.5 945.5,286.5C 958.07,283.382 969.07,277.382 978.5,268.5C 998.011,244.975 1000.68,219.642 986.5,192.5 Z"/></g>
<g><path style="opacity:1" fill="#e3ecf5" d="M 580.5,224.5 C 589.303,224.479 591.803,228.479 588,236.5C 574.833,249.667 561.667,262.833 548.5,276C 545.634,277.457 542.634,277.79 539.5,277C 533.301,271.136 527.468,264.969 522,258.5C 521.348,250.652 524.848,247.652 532.5,249.5C 535.985,252.484 539.318,255.651 542.5,259C 543.167,259.667 543.833,259.667 544.5,259C 556.116,246.879 568.116,235.379 580.5,224.5 Z"/></g>
<g><path style="opacity:1" fill="#e3ecf5" d="M 1280.5,224.5 C 1289.3,224.479 1291.8,228.479 1288,236.5C 1274.83,249.667 1261.67,262.833 1248.5,276C 1245.63,277.457 1242.63,277.79 1239.5,277C 1233.3,271.136 1227.47,264.969 1222,258.5C 1221.35,250.652 1224.85,247.652 1232.5,249.5C 1235.98,252.484 1239.32,255.651 1242.5,259C 1243.17,259.667 1243.83,259.667 1244.5,259C 1256.12,246.879 1268.12,235.379 1280.5,224.5 Z"/></g>
<g><path style="opacity:1" fill="#df9e63" d="M 316.5,234.5 C 317.657,242.99 317.824,251.657 317,260.5C 316.722,261.416 316.222,262.082 315.5,262.5C 316.387,253.199 316.721,243.866 316.5,234.5 Z"/></g>
<g><path style="opacity:1" fill="#df9e63" d="M 1016.5,234.5 C 1017.66,242.99 1017.82,251.657 1017,260.5C 1016.72,261.416 1016.22,262.082 1015.5,262.5C 1016.39,253.199 1016.72,243.866 1016.5,234.5 Z"/></g>
<g><path style="opacity:0.996" fill="#ccd4da" d="M 483.5,300.5 C 496.444,318.294 513.444,330.127 534.5,336C 542.377,337.23 550.044,338.73 557.5,340.5C 557.667,450.501 557.5,560.501 557,670.5C 556.217,681.729 550.717,689.729 540.5,694.5C 398.168,695.667 255.835,695.833 113.5,695C 106.639,690.806 101.139,685.306 97,678.5C 96.5001,663.17 96.3334,647.837 96.5,632.5C 114.712,631.495 132.712,628.995 150.5,625C 148.68,624.8 147.347,623.966 146.5,622.5C 222.167,622.667 297.834,622.5 373.5,622C 379.111,617.214 378.777,613.048 372.5,609.5C 297.669,608.501 222.669,608.167 147.5,608.5C 171.038,607.949 194.704,607.115 218.5,606C 255.01,590.577 289.343,571.244 321.5,548C 262.999,547.833 204.665,547.333 146.5,546.5C 266.5,546.667 386.5,546.5 506.5,546C 511.143,543.928 512.643,540.428 511,535.5C 509.855,534.364 508.688,533.364 507.5,532.5C 452.669,531.501 397.669,531.168 342.5,531.5C 363.335,513.164 382.669,493.331 400.5,472C 315.161,472.165 230.161,471.331 145.5,469.5C 266.167,469.667 386.834,469.5 507.5,469C 511.378,466.437 512.378,462.937 510.5,458.5C 509.482,457.807 508.482,457.141 507.5,456.5C 387.001,455.5 266.334,455.167 145.5,455.5C 235.001,454.833 324.668,454.167 414.5,453.5C 427.842,434.979 439.509,415.479 449.5,395C 348.333,394.833 247.333,394.333 146.5,393.5C 267.001,393.833 387.334,393.5 507.5,392.5C 511.252,390.206 512.419,386.872 511,382.5C 509.729,381.117 508.229,380.117 506.5,379.5C 490.342,378.504 474.009,378.17 457.5,378.5C 469.236,353.573 477.902,327.573 483.5,300.5 Z"/></g>
<g><path style="opacity:0.996" fill="#ccd4da" d="M 1183.5,300.5 C 1196.44,318.294 1213.44,330.127 1234.5,336C 1242.38,337.23 1250.04,338.73 1257.5,340.5C 1257.67,450.501 1257.5,560.501 1257,670.5C 1256.22,681.729 1250.72,689.729 1240.5,694.5C 1098.17,695.667 955.835,695.833 813.5,695C 806.639,690.806 801.139,685.306 797,678.5C 796.5,663.17 796.333,647.837 796.5,632.5C 814.712,631.495 832.712,628.995 850.5,625C 848.68,624.8 847.347,623.966 846.5,622.5C 922.167,622.667 997.834,622.5 1073.5,622C 1079.11,617.214 1078.78,613.048 1072.5,609.5C 997.669,608.501 922.669,608.167 847.5,608.5C 871.038,607.949 894.704,607.115 918.5,606C 955.01,590.577 989.343,571.244 1021.5,548C 962.999,547.833 904.665,547.333 846.5,546.5C 966.5,546.667 1086.5,546.5 1206.5,546C 1211.14,543.928 1212.64,540.428 1211,535.5C 1209.85,534.364 1208.69,533.364 1207.5,532.5C 1152.67,531.501 1097.67,531.168 1042.5,531.5C 1063.34,513.164 1082.67,493.331 1100.5,472C 1015.16,472.165 930.161,471.331 845.5,469.5C 966.167,469.667 1086.83,469.5 1207.5,469C 1211.38,466.437 1212.38,462.937 1210.5,458.5C 1209.48,457.807 1208.48,457.141 1207.5,456.5C 1087,455.5 966.334,455.167 845.5,455.5C 935.001,454.833 1024.67,454.167 1114.5,453.5C 1127.84,434.979 1139.51,415.479 1149.5,395C 1048.33,394.833 947.333,394.333 846.5,393.5C 967.001,393.833 1087.33,393.5 1207.5,392.5C 1211.25,390.206 1212.42,386.872 1211,382.5C 1209.73,381.117 1208.23,380.117 1206.5,379.5C 1190.34,378.504 1174.01,378.17 1157.5,378.5C 1169.24,353.573 1177.9,327.573 1183.5,300.5 Z"/></g>
<g><path style="opacity:1" fill="#e3bd9b" d="M 170.5,308.5 C 210.809,309.477 251.143,309.81 291.5,309.5C 252.335,310.665 213.002,310.831 173.5,310C 172.263,309.768 171.263,309.268 170.5,308.5 Z"/></g>
<g><path style="opacity:1" fill="#e3bd9b" d="M 870.5,308.5 C 910.809,309.477 951.143,309.81 991.5,309.5C 952.335,310.665 913.002,310.831 873.5,310C 872.263,309.768 871.263,309.268 870.5,308.5 Z"/></g>
<g><path style="opacity:1" fill="#898d90" d="M 457.5,378.5 C 474.009,378.17 490.342,378.504 506.5,379.5C 386.5,379.333 266.5,379.5 146.5,380C 142.581,382.689 141.581,386.189 143.5,390.5C 143.5,390.833 143.5,391.167 143.5,391.5C 140.434,386.887 141.101,382.72 145.5,379C 249.499,378.5 353.499,378.333 457.5,378.5 Z"/></g>
<g><path style="opacity:1" fill="#898d90" d="M 1157.5,378.5 C 1174.01,378.17 1190.34,378.504 1206.5,379.5C 1086.5,379.333 966.5,379.5 846.5,380C 842.581,382.689 841.581,386.189 843.5,390.5C 843.5,390.833 843.5,391.167 843.5,391.5C 840.434,386.887 841.101,382.72 845.5,379C 949.499,378.5 1053.5,378.333 1157.5,378.5 Z"/></g>
<g><path style="opacity:1" fill="#464646" d="M 506.5,379.5 C 508.229,380.117 509.729,381.117 511,382.5C 512.419,386.872 511.252,390.206 507.5,392.5C 387.166,392.667 266.833,392.5 146.5,392C 145.756,390.961 144.756,390.461 143.5,390.5C 141.581,386.189 142.581,382.689 146.5,380C 266.5,379.5 386.5,379.333 506.5,379.5 Z"/></g>
<g><path style="opacity:1" fill="#464646" d="M 1206.5,379.5 C 1208.23,380.117 1209.73,381.117 1211,382.5C 1212.42,386.872 1211.25,390.206 1207.5,392.5C 1087.17,392.667 966.833,392.5 846.5,392C 845.756,390.961 844.756,390.461 843.5,390.5C 841.581,386.189 842.581,382.689 846.5,380C 966.5,379.5 1086.5,379.333 1206.5,379.5 Z"/></g>
<g><path style="opacity:1" fill="#646668" d="M 143.5,391.5 C 143.5,391.167 143.5,390.833 143.5,390.5C 144.756,390.461 145.756,390.961 146.5,392C 266.833,392.5 387.166,392.667 507.5,392.5C 387.334,393.5 267.001,393.833 146.5,393.5C 145.5,392.833 144.5,392.167 143.5,391.5 Z"/></g>
<g><path style="opacity:1" fill="#646668" d="M 843.5,391.5 C 843.5,391.167 843.5,390.833 843.5,390.5C 844.756,390.461 845.756,390.961 846.5,392C 966.833,392.5 1087.17,392.667 1207.5,392.5C 1087.33,393.5 967.001,393.833 846.5,393.5C 845.5,392.833 844.5,392.167 843.5,391.5 Z"/></g>
<g><path style="opacity:1" fill="#595a5b" d="M 145.5,455.5 C 266.334,455.167 387.001,455.5 507.5,456.5C 387.5,456.333 267.5,456.5 147.5,457C 146.099,457.41 144.766,457.91 143.5,458.5C 143.782,457.222 144.449,456.222 145.5,455.5 Z"/></g>
<g><path style="opacity:1" fill="#595a5b" d="M 845.5,455.5 C 966.334,455.167 1087,455.5 1207.5,456.5C 1087.5,456.333 967.5,456.5 847.5,457C 846.099,457.41 844.766,457.91 843.5,458.5C 843.782,457.222 844.449,456.222 845.5,455.5 Z"/></g>
<g><path style="opacity:1" fill="#464646" d="M 507.5,456.5 C 508.482,457.141 509.482,457.807 510.5,458.5C 512.378,462.937 511.378,466.437 507.5,469C 386.834,469.5 266.167,469.667 145.5,469.5C 142.466,466.213 141.8,462.546 143.5,458.5C 144.766,457.91 146.099,457.41 147.5,457C 267.5,456.5 387.5,456.333 507.5,456.5 Z"/></g>
<g><path style="opacity:1" fill="#464646" d="M 1207.5,456.5 C 1208.48,457.141 1209.48,457.807 1210.5,458.5C 1212.38,462.937 1211.38,466.437 1207.5,469C 1086.83,469.5 966.167,469.667 845.5,469.5C 842.466,466.213 841.8,462.546 843.5,458.5C 844.766,457.91 846.099,457.41 847.5,457C 967.5,456.5 1087.5,456.333 1207.5,456.5 Z"/></g>
<g><path style="opacity:1" fill="#909497" d="M 342.5,531.5 C 397.669,531.168 452.669,531.501 507.5,532.5C 387.166,532.333 266.833,532.5 146.5,533C 145.756,534.039 144.756,534.539 143.5,534.5C 143.953,533.542 144.619,532.708 145.5,532C 211.166,531.5 276.832,531.333 342.5,531.5 Z"/></g>
<g><path style="opacity:1" fill="#909497" d="M 1042.5,531.5 C 1097.67,531.168 1152.67,531.501 1207.5,532.5C 1087.17,532.333 966.833,532.5 846.5,533C 845.756,534.039 844.756,534.539 843.5,534.5C 843.953,533.542 844.619,532.708 845.5,532C 911.166,531.5 976.832,531.333 1042.5,531.5 Z"/></g>
<g><path style="opacity:1" fill="#484849" d="M 507.5,532.5 C 508.688,533.364 509.855,534.364 511,535.5C 512.643,540.428 511.143,543.928 506.5,546C 386.5,546.5 266.5,546.667 146.5,546.5C 142.524,543.353 141.524,539.353 143.5,534.5C 144.756,534.539 145.756,534.039 146.5,533C 266.833,532.5 387.166,532.333 507.5,532.5 Z"/></g>
<g><path style="opacity:1" fill="#484849" d="M 1207.5,532.5 C 1208.69,533.364 1209.85,534.364 1211,535.5C 1212.64,540.428 1211.14,543.928 1206.5,546C 1086.5,546.5 966.5,546.667 846.5,546.5C 842.524,543.353 841.524,539.353 843.5,534.5C 844.756,534.539 845.756,534.039 846.5,533C 966.833,532.5 1087.17,532.333 1207.5,532.5 Z"/></g>
<g><path style="opacity:1" fill="#626465" d="M 147.5,608.5 C 222.669,608.167 297.669,608.501 372.5,609.5C 296.459,609.173 220.459,609.506 144.5,610.5C 144.973,609.094 145.973,608.427 147.5,608.5 Z"/></g>
<g><path style="opacity:1" fill="#626465" d="M 847.5,608.5 C 922.669,608.167 997.669,608.501 1072.5,609.5C 996.459,609.173 920.459,609.506 844.5,610.5C 844.973,609.094 845.973,608.427 847.5,608.5 Z"/></g>
<g><path style="opacity:1" fill="#464646" d="M 372.5,609.5 C 378.777,613.048 379.111,617.214 373.5,622C 297.834,622.5 222.167,622.667 146.5,622.5C 144.926,622.063 143.759,621.063 143,619.5C 142.333,616.833 142.333,614.167 143,611.5C 143.383,610.944 143.883,610.611 144.5,610.5C 220.459,609.506 296.459,609.173 372.5,609.5 Z"/></g>
<g><path style="opacity:1" fill="#464646" d="M 1072.5,609.5 C 1078.78,613.048 1079.11,617.214 1073.5,622C 997.834,622.5 922.167,622.667 846.5,622.5C 844.926,622.063 843.759,621.063 843,619.5C 842.333,616.833 842.333,614.167 843,611.5C 843.383,610.944 843.883,610.611 844.5,610.5C 920.459,609.506 996.459,609.173 1072.5,609.5 Z"/></g>
</svg>
