<?xml version="1.0" encoding="UTF-8"?>
<!DOCTYPE svg PUBLIC "-//W3C//DTD SVG 1.1//EN" "http://www.w3.org/Graphics/SVG/1.1/DTD/svg11.dtd">
<svg xmlns="http://www.w3.org/2000/svg" version="1.1" width="698px" height="417px" style="shape-rendering:geometricPrecision; text-rendering:geometricPrecision; image-rendering:optimizeQuality; fill-rule:evenodd; clip-rule:evenodd" xmlns:xlink="http://www.w3.org/1999/xlink">
<g><path style="opacity:0.998" fill="#981619" d="M 300.5,342.5 C 209.235,341.836 117.901,341.169 26.5,340.5C 28.0916,338.775 27.7583,337.775 25.5,337.5C 31.652,309.889 37.652,282.222 43.5,254.5C 121.362,253.178 199.029,251.845 276.5,250.5C 286.587,228.661 296.92,206.994 307.5,185.5C 308.397,186.598 309.23,186.598 310,185.5C 316.928,171.14 323.761,156.64 330.5,142C 317.071,100.439 303.571,58.9394 290,17.5C 289.502,15.4556 288.335,14.1223 286.5,13.5C 286.5,12.5 286.5,11.5 286.5,10.5C 291.179,10.3342 295.845,10.5008 300.5,11C 314.618,53.3613 328.785,95.528 343,137.5C 343.167,139.333 343.333,141.167 343.5,143C 330.229,209.191 316.395,275.358 302,341.5C 301.617,342.056 301.117,342.389 300.5,342.5 Z M 57.5,262.5 C 60.1667,262.5 62.8333,262.5 65.5,262.5C 65.5,263.5 65.5,264.5 65.5,265.5C 59.153,264.897 55.4863,267.73 54.5,274C 55.6109,277.892 58.2775,279.559 62.5,279C 61.6634,280.011 61.33,281.178 61.5,282.5C 50.7231,282.276 47.5564,277.276 52,267.5C 53.7297,265.598 55.563,263.931 57.5,262.5 Z M 71.5,262.5 C 76.8746,262.172 82.2079,262.505 87.5,263.5C 86.7401,269.238 85.5735,274.904 84,280.5C 82.951,282.107 81.451,282.773 79.5,282.5C 80.0706,277.744 81.0706,273.077 82.5,268.5C 80.3369,266.28 77.8369,265.947 75,267.5C 74.145,272.525 73.3116,277.525 72.5,282.5C 70.8333,282.5 69.1667,282.5 67.5,282.5C 68.7609,275.818 70.0942,269.151 71.5,262.5 Z M 94.5,262.5 C 98.8461,262.334 103.179,262.501 107.5,263C 110.399,269.709 108.232,274.209 101,276.5C 96.2875,275.369 94.1208,277.369 94.5,282.5C 93.1667,282.5 91.8333,282.5 90.5,282.5C 91.6711,275.793 93.0045,269.126 94.5,262.5 Z M 120.5,262.5 C 123.167,262.5 125.833,262.5 128.5,262.5C 129.057,269.185 129.724,275.852 130.5,282.5C 128.833,282.5 127.167,282.5 125.5,282.5C 125.414,277.007 122.747,275.34 117.5,277.5C 116.643,278.736 115.977,280.069 115.5,281.5C 114.277,282.614 112.944,282.781 111.5,282C 114.64,275.554 117.64,269.054 120.5,262.5 Z M 139.5,262.5 C 144.099,262.2 148.599,262.533 153,263.5C 153.667,265.167 153.667,266.833 153,268.5C 148.516,270.713 148.349,273.213 152.5,276C 152.003,279.002 150.337,281.002 147.5,282C 143.5,282.667 139.5,282.667 135.5,282C 136.388,275.397 137.722,268.897 139.5,262.5 Z M 161.5,262.5 C 165.884,262.174 170.217,262.508 174.5,263.5C 174.291,264.086 173.957,264.586 173.5,265C 170.833,265.333 168.167,265.667 165.5,266C 164.62,267.356 164.286,268.856 164.5,270.5C 167.247,270.187 169.914,270.52 172.5,271.5C 172.038,273.291 170.871,274.291 169,274.5C 164.325,272.851 162.492,274.351 163.5,279C 166.099,279.769 168.599,279.602 171,278.5C 171.492,279.549 171.326,280.549 170.5,281.5C 166.217,282.492 161.884,282.826 157.5,282.5C 158.743,275.79 160.076,269.123 161.5,262.5 Z M 181.5,262.5 C 186.167,262.5 190.833,262.5 195.5,262.5C 194.286,270.186 192.953,277.852 191.5,285.5C 190.167,286.833 188.833,286.833 187.5,285.5C 188.641,284.575 188.641,283.741 187.5,283C 184.773,282.182 182.106,282.348 179.5,283.5C 178.543,286.15 176.876,286.817 174.5,285.5C 174.838,281.612 176.338,278.278 179,275.5C 179.418,271.066 180.251,266.733 181.5,262.5 Z M 203.5,262.5 C 208.511,262.334 213.511,262.501 218.5,263C 216.021,269.207 214.354,275.707 213.5,282.5C 212.167,282.5 210.833,282.5 209.5,282.5C 210.377,277.199 211.044,271.865 211.5,266.5C 209.533,266.261 207.699,266.594 206,267.5C 206.01,273.887 203.51,278.887 198.5,282.5C 198.167,281.667 197.833,280.833 197.5,280C 198.652,277.842 199.819,275.675 201,273.5C 201.236,269.656 202.07,265.989 203.5,262.5 Z M 234.5,277.5 C 236.484,273.816 236.651,270.149 235,266.5C 232.744,269.856 231.244,273.523 230.5,277.5C 229.053,278.622 228.053,280.122 227.5,282C 224.773,282.818 222.106,282.652 219.5,281.5C 221.317,275.611 222.817,269.611 224,263.5C 225.183,262.269 226.349,262.269 227.5,263.5C 226.868,267.589 225.868,271.589 224.5,275.5C 224.808,276.308 225.308,276.975 226,277.5C 228.883,272.902 231.383,268.069 233.5,263C 236.167,262.333 238.833,262.333 241.5,263C 239.477,269.307 238.144,275.807 237.5,282.5C 236.127,282.657 234.793,282.49 233.5,282C 234.38,280.644 234.714,279.144 234.5,277.5 Z M 247.5,262.5 C 251.846,262.334 256.179,262.501 260.5,263C 261.516,263.519 262.182,264.353 262.5,265.5C 261.682,268.295 260.015,270.462 257.5,272C 261.65,275.584 261.316,278.75 256.5,281.5C 252.205,282.661 247.871,282.828 243.5,282C 245.685,275.702 247.019,269.202 247.5,262.5 Z M 273.5,262.5 C 276.167,262.5 278.833,262.5 281.5,262.5C 282.079,268.852 282.745,275.185 283.5,281.5C 281.955,282.452 280.288,282.785 278.5,282.5C 278.864,277.341 276.53,275.508 271.5,277C 270.128,278.242 269.128,279.742 268.5,281.5C 267.167,282.833 265.833,282.833 264.5,281.5C 267.792,275.251 270.792,268.918 273.5,262.5 Z M 294.5,262.5 C 298.833,262.5 303.167,262.5 307.5,262.5C 306.489,269.282 305.156,275.949 303.5,282.5C 302.167,282.5 300.833,282.5 299.5,282.5C 299.833,279.833 300.167,277.167 300.5,274.5C 295.62,274.212 293.12,276.545 293,281.5C 291.644,282.38 290.144,282.714 288.5,282.5C 288.343,281.127 288.51,279.793 289,278.5C 290.435,276.626 291.602,274.626 292.5,272.5C 289.689,268.419 290.355,265.085 294.5,262.5 Z M 107.5,293.5 C 127.649,294.683 132.482,304.017 122,321.5C 113.908,329.416 104.408,331.583 93.5,328C 86.9257,324.392 84.759,318.892 87,311.5C 90.0198,300.971 96.8532,294.971 107.5,293.5 Z M 156.5,293.5 C 160.645,293.33 164.645,293.997 168.5,295.5C 167.652,297.409 167.318,299.409 167.5,301.5C 161.311,299.622 155.645,300.622 150.5,304.5C 143.507,317.661 147.34,323.327 162,321.5C 162.5,321.833 163,322.167 163.5,322.5C 162.013,328.409 158.18,330.742 152,329.5C 137.548,329.593 131.882,322.593 135,308.5C 139.761,299.883 146.928,294.883 156.5,293.5 Z M 195.5,293.5 C 199.645,293.33 203.645,293.997 207.5,295.5C 206.877,297.711 205.877,299.711 204.5,301.5C 199.686,300.162 195.019,300.662 190.5,303C 184.884,308.377 184.217,314.21 188.5,320.5C 192.352,322.648 196.352,322.982 200.5,321.5C 201.057,323.718 201.057,326.051 200.5,328.5C 193.015,330.168 185.681,329.668 178.5,327C 173.108,321.837 171.608,315.67 174,308.5C 178.693,299.907 185.86,294.907 195.5,293.5 Z M 45.5,294.5 C 55.1724,294.334 64.8391,294.5 74.5,295C 76.0664,295.608 77.3998,296.442 78.5,297.5C 81.6068,307.78 77.9402,314.613 67.5,318C 62.5111,318.499 57.5111,318.666 52.5,318.5C 51.8333,321.833 51.1667,325.167 50.5,328.5C 46.4454,328.824 42.4454,328.491 38.5,327.5C 40.7429,316.454 43.0763,305.454 45.5,294.5 Z M 240.5,315.5 C 242.237,311.458 243.237,307.124 243.5,302.5C 242.5,302.5 241.5,302.5 240.5,302.5C 239.546,305.143 238.546,307.81 237.5,310.5C 234.768,316.419 231.768,322.252 228.5,328C 222.252,328.188 216.085,328.688 210,329.5C 211.64,318.508 213.64,307.508 216,296.5C 219.149,294.638 222.649,293.971 226.5,294.5C 225.493,301.708 224.16,308.875 222.5,316C 222.833,317.167 223.167,318.333 223.5,319.5C 227.959,311.416 232.293,303.249 236.5,295C 242.825,294.5 249.158,294.334 255.5,294.5C 253.417,306.245 250.917,317.912 248,329.5C 244.943,328.549 241.777,328.216 238.5,328.5C 239.585,324.24 240.252,319.906 240.5,315.5 Z M 272.5,294.5 C 282.19,294.168 291.856,294.502 301.5,295.5C 298.838,306.152 296.338,316.818 294,327.5C 289.921,328.629 285.755,328.796 281.5,328C 282.488,324.255 283.155,320.422 283.5,316.5C 277.698,315.006 273.864,317.006 272,322.5C 271.187,324.436 270.687,326.436 270.5,328.5C 266.5,328.5 262.5,328.5 258.5,328.5C 259.246,323.777 261.246,319.611 264.5,316C 266.025,314.991 267.692,314.491 269.5,314.5C 269.78,311.612 268.447,310.112 265.5,310C 264.5,308.333 263.5,306.667 262.5,305C 264.017,299.652 267.351,296.152 272.5,294.5 Z"/></g>
<g><path style="opacity:0.998" fill="#981619" d="M 649.5,342.5 C 558.235,341.836 466.901,341.169 375.5,340.5C 377.092,338.775 376.758,337.775 374.5,337.5C 380.652,309.889 386.652,282.222 392.5,254.5C 470.362,253.178 548.029,251.845 625.5,250.5C 635.587,228.661 645.92,206.994 656.5,185.5C 657.397,186.598 658.23,186.598 659,185.5C 665.928,171.14 672.761,156.64 679.5,142C 666.071,100.439 652.571,58.9394 639,17.5C 638.502,15.4556 637.335,14.1223 635.5,13.5C 635.5,12.5 635.5,11.5 635.5,10.5C 640.179,10.3342 644.845,10.5008 649.5,11C 663.618,53.3613 677.785,95.528 692,137.5C 692.167,139.333 692.333,141.167 692.5,143C 679.229,209.191 665.395,275.358 651,341.5C 650.617,342.056 650.117,342.389 649.5,342.5 Z M 406.5,262.5 C 409.167,262.5 411.833,262.5 414.5,262.5C 414.5,263.5 414.5,264.5 414.5,265.5C 408.153,264.897 404.486,267.73 403.5,274C 404.611,277.892 407.278,279.559 411.5,279C 410.663,280.011 410.33,281.178 410.5,282.5C 399.723,282.276 396.556,277.276 401,267.5C 402.73,265.598 404.563,263.931 406.5,262.5 Z M 420.5,262.5 C 425.875,262.172 431.208,262.505 436.5,263.5C 435.74,269.238 434.573,274.904 433,280.5C 431.951,282.107 430.451,282.773 428.5,282.5C 429.071,277.744 430.071,273.077 431.5,268.5C 429.337,266.28 426.837,265.947 424,267.5C 423.145,272.525 422.312,277.525 421.5,282.5C 419.833,282.5 418.167,282.5 416.5,282.5C 417.761,275.818 419.094,269.151 420.5,262.5 Z M 443.5,262.5 C 447.846,262.334 452.179,262.501 456.5,263C 459.399,269.709 457.232,274.209 450,276.5C 445.287,275.369 443.121,277.369 443.5,282.5C 442.167,282.5 440.833,282.5 439.5,282.5C 440.671,275.793 442.004,269.126 443.5,262.5 Z M 469.5,262.5 C 472.167,262.5 474.833,262.5 477.5,262.5C 478.057,269.185 478.724,275.852 479.5,282.5C 477.833,282.5 476.167,282.5 474.5,282.5C 474.414,277.007 471.747,275.34 466.5,277.5C 465.643,278.736 464.977,280.069 464.5,281.5C 463.277,282.614 461.944,282.781 460.5,282C 463.64,275.554 466.64,269.054 469.5,262.5 Z M 488.5,262.5 C 493.099,262.2 497.599,262.533 502,263.5C 502.667,265.167 502.667,266.833 502,268.5C 497.516,270.713 497.349,273.213 501.5,276C 501.003,279.002 499.337,281.002 496.5,282C 492.5,282.667 488.5,282.667 484.5,282C 485.388,275.397 486.722,268.897 488.5,262.5 Z M 510.5,262.5 C 514.884,262.174 519.217,262.508 523.5,263.5C 523.291,264.086 522.957,264.586 522.5,265C 519.833,265.333 517.167,265.667 514.5,266C 513.62,267.356 513.286,268.856 513.5,270.5C 516.247,270.187 518.914,270.52 521.5,271.5C 521.038,273.291 519.871,274.291 518,274.5C 513.325,272.851 511.492,274.351 512.5,279C 515.099,279.769 517.599,279.602 520,278.5C 520.492,279.549 520.326,280.549 519.5,281.5C 515.217,282.492 510.884,282.826 506.5,282.5C 507.743,275.79 509.076,269.123 510.5,262.5 Z M 530.5,262.5 C 535.167,262.5 539.833,262.5 544.5,262.5C 543.286,270.186 541.953,277.852 540.5,285.5C 539.167,286.833 537.833,286.833 536.5,285.5C 537.641,284.575 537.641,283.741 536.5,283C 533.773,282.182 531.106,282.348 528.5,283.5C 527.543,286.15 525.876,286.817 523.5,285.5C 523.838,281.612 525.338,278.278 528,275.5C 528.418,271.066 529.251,266.733 530.5,262.5 Z M 552.5,262.5 C 557.511,262.334 562.511,262.501 567.5,263C 565.021,269.207 563.354,275.707 562.5,282.5C 561.167,282.5 559.833,282.5 558.5,282.5C 559.377,277.199 560.044,271.865 560.5,266.5C 558.533,266.261 556.699,266.594 555,267.5C 555.01,273.887 552.51,278.887 547.5,282.5C 547.167,281.667 546.833,280.833 546.5,280C 547.652,277.842 548.819,275.675 550,273.5C 550.236,269.656 551.07,265.989 552.5,262.5 Z M 583.5,277.5 C 585.484,273.816 585.651,270.149 584,266.5C 581.744,269.856 580.244,273.523 579.5,277.5C 578.053,278.622 577.053,280.122 576.5,282C 573.773,282.818 571.106,282.652 568.5,281.5C 570.317,275.611 571.817,269.611 573,263.5C 574.183,262.269 575.349,262.269 576.5,263.5C 575.868,267.589 574.868,271.589 573.5,275.5C 573.808,276.308 574.308,276.975 575,277.5C 577.883,272.902 580.383,268.069 582.5,263C 585.167,262.333 587.833,262.333 590.5,263C 588.477,269.307 587.144,275.807 586.5,282.5C 585.127,282.657 583.793,282.49 582.5,282C 583.38,280.644 583.714,279.144 583.5,277.5 Z M 596.5,262.5 C 600.846,262.334 605.179,262.501 609.5,263C 610.516,263.519 611.182,264.353 611.5,265.5C 610.682,268.295 609.015,270.462 606.5,272C 610.65,275.584 610.316,278.75 605.5,281.5C 601.205,282.661 596.871,282.828 592.5,282C 594.685,275.702 596.019,269.202 596.5,262.5 Z M 622.5,262.5 C 625.167,262.5 627.833,262.5 630.5,262.5C 631.079,268.852 631.745,275.185 632.5,281.5C 630.955,282.452 629.288,282.785 627.5,282.5C 627.864,277.341 625.53,275.508 620.5,277C 619.128,278.242 618.128,279.742 617.5,281.5C 616.167,282.833 614.833,282.833 613.5,281.5C 616.792,275.251 619.792,268.918 622.5,262.5 Z M 643.5,262.5 C 647.833,262.5 652.167,262.5 656.5,262.5C 655.489,269.282 654.156,275.949 652.5,282.5C 651.167,282.5 649.833,282.5 648.5,282.5C 648.833,279.833 649.167,277.167 649.5,274.5C 644.62,274.212 642.12,276.545 642,281.5C 640.644,282.38 639.144,282.714 637.5,282.5C 637.343,281.127 637.51,279.793 638,278.5C 639.435,276.626 640.602,274.626 641.5,272.5C 638.689,268.419 639.355,265.085 643.5,262.5 Z M 456.5,293.5 C 476.649,294.683 481.482,304.017 471,321.5C 462.908,329.416 453.408,331.583 442.5,328C 435.926,324.392 433.759,318.892 436,311.5C 439.02,300.971 445.853,294.971 456.5,293.5 Z M 505.5,293.5 C 509.645,293.33 513.645,293.997 517.5,295.5C 516.652,297.409 516.318,299.409 516.5,301.5C 510.311,299.622 504.645,300.622 499.5,304.5C 492.507,317.661 496.34,323.327 511,321.5C 511.5,321.833 512,322.167 512.5,322.5C 511.013,328.409 507.18,330.742 501,329.5C 486.548,329.593 480.882,322.593 484,308.5C 488.761,299.883 495.928,294.883 505.5,293.5 Z M 544.5,293.5 C 548.645,293.33 552.645,293.997 556.5,295.5C 555.877,297.711 554.877,299.711 553.5,301.5C 548.686,300.162 544.019,300.662 539.5,303C 533.884,308.377 533.217,314.21 537.5,320.5C 541.352,322.648 545.352,322.982 549.5,321.5C 550.057,323.718 550.057,326.051 549.5,328.5C 542.015,330.168 534.681,329.668 527.5,327C 522.108,321.837 520.608,315.67 523,308.5C 527.693,299.907 534.86,294.907 544.5,293.5 Z M 394.5,294.5 C 404.172,294.334 413.839,294.5 423.5,295C 425.066,295.608 426.4,296.442 427.5,297.5C 430.607,307.78 426.94,314.613 416.5,318C 411.511,318.499 406.511,318.666 401.5,318.5C 400.833,321.833 400.167,325.167 399.5,328.5C 395.445,328.824 391.445,328.491 387.5,327.5C 389.743,316.454 392.076,305.454 394.5,294.5 Z M 589.5,315.5 C 591.237,311.458 592.237,307.124 592.5,302.5C 591.5,302.5 590.5,302.5 589.5,302.5C 588.546,305.143 587.546,307.81 586.5,310.5C 583.768,316.419 580.768,322.252 577.5,328C 571.252,328.188 565.085,328.688 559,329.5C 560.64,318.508 562.64,307.508 565,296.5C 568.149,294.638 571.649,293.971 575.5,294.5C 574.493,301.708 573.16,308.875 571.5,316C 571.833,317.167 572.167,318.333 572.5,319.5C 576.959,311.416 581.293,303.249 585.5,295C 591.825,294.5 598.158,294.334 604.5,294.5C 602.417,306.245 599.917,317.912 597,329.5C 593.943,328.549 590.777,328.216 587.5,328.5C 588.585,324.24 589.252,319.906 589.5,315.5 Z M 621.5,294.5 C 631.19,294.168 640.856,294.502 650.5,295.5C 647.838,306.152 645.338,316.818 643,327.5C 638.921,328.629 634.755,328.796 630.5,328C 631.488,324.255 632.155,320.422 632.5,316.5C 626.698,315.006 622.864,317.006 621,322.5C 620.187,324.436 619.687,326.436 619.5,328.5C 615.5,328.5 611.5,328.5 607.5,328.5C 608.246,323.777 610.246,319.611 613.5,316C 615.025,314.991 616.692,314.491 618.5,314.5C 618.78,311.612 617.447,310.112 614.5,310C 613.5,308.333 612.5,306.667 611.5,305C 613.017,299.652 616.351,296.152 621.5,294.5 Z"/></g>
<g><path style="opacity:0.098" fill="#8d0103" d="M 286.5,13.5 C 288.335,14.1223 289.502,15.4556 290,17.5C 303.571,58.9394 317.071,100.439 330.5,142C 323.761,156.64 316.928,171.14 310,185.5C 309.23,186.598 308.397,186.598 307.5,185.5C 314.874,171.251 321.874,156.751 328.5,142C 314.677,98.9769 300.677,56.1435 286.5,13.5 Z"/></g>
<g><path style="opacity:0.098" fill="#8d0103" d="M 635.5,13.5 C 637.335,14.1223 638.502,15.4556 639,17.5C 652.571,58.9394 666.071,100.439 679.5,142C 672.761,156.64 665.928,171.14 659,185.5C 658.23,186.598 657.397,186.598 656.5,185.5C 663.874,171.251 670.874,156.751 677.5,142C 663.677,98.9769 649.677,56.1435 635.5,13.5 Z"/></g>
<g><path style="opacity:0.214" fill="#a6383b" d="M 238.5,38.5 C 215.673,39.4975 192.673,39.8308 169.5,39.5C 180.48,38.1677 191.813,37.5011 203.5,37.5C 215.24,37.51 226.907,37.8433 238.5,38.5 Z"/></g>
<g><path style="opacity:0.214" fill="#a6383b" d="M 587.5,38.5 C 564.673,39.4975 541.673,39.8308 518.5,39.5C 529.48,38.1677 540.813,37.5011 552.5,37.5C 564.24,37.51 575.907,37.8433 587.5,38.5 Z"/></g>
<g><path style="opacity:0.973" fill="#ac4547" d="M 134.5,37.5 C 141.841,37.3337 149.174,37.5003 156.5,38C 157.252,38.6708 157.586,39.5041 157.5,40.5C 156.833,40.1667 156.167,39.8333 155.5,39.5C 148.159,39.6663 140.826,39.4997 133.5,39C 134.056,38.6174 134.389,38.1174 134.5,37.5 Z"/></g>
<g><path style="opacity:0.973" fill="#ac4547" d="M 483.5,37.5 C 490.841,37.3337 498.174,37.5003 505.5,38C 506.252,38.6708 506.586,39.5041 506.5,40.5C 505.833,40.1667 505.167,39.8333 504.5,39.5C 497.159,39.6663 489.826,39.4997 482.5,39C 483.056,38.6174 483.389,38.1174 483.5,37.5 Z"/></g>
<g><path style="opacity:1" fill="#981317" d="M 134.5,37.5 C 134.389,38.1174 134.056,38.6174 133.5,39C 140.826,39.4997 148.159,39.6663 155.5,39.5C 155.5,57.5 155.5,75.5 155.5,93.5C 129.272,90.2675 113.605,101.434 108.5,127C 108.324,129.359 108.991,129.859 110.5,128.5C 108.082,161.916 123.582,177.582 157,175.5C 157.5,194.497 157.667,213.497 157.5,232.5C 100.872,235.728 68.7052,209.062 61,152.5C 57.0157,123.472 62.349,96.4724 77,71.5C 91.1881,51.82 110.355,40.4866 134.5,37.5 Z"/></g>
<g><path style="opacity:1" fill="#971317" d="M 238.5,38.5 C 263.551,42.384 278.717,56.7174 284,81.5C 287.768,101.033 287.101,120.367 282,139.5C 274.325,162.163 258.492,174.33 234.5,176C 228.175,176.5 221.842,176.666 215.5,176.5C 215.48,194.82 215.147,213.153 214.5,231.5C 199.637,232.827 184.804,232.827 170,231.5C 169.5,167.501 169.333,103.501 169.5,39.5C 192.673,39.8308 215.673,39.4975 238.5,38.5 Z M 215.5,83.5 C 223.066,82.4658 229.899,84.1324 236,88.5C 237.522,90.7409 238.855,93.0742 240,95.5C 240.667,102.833 240.667,110.167 240,117.5C 236.824,125.668 230.824,130.001 222,130.5C 220.204,129.233 218.371,129.233 216.5,130.5C 215.719,129.271 215.219,127.938 215,126.5C 214.489,112.16 214.655,97.8262 215.5,83.5 Z"/></g>
<g><path style="opacity:1" fill="#981317" d="M 483.5,37.5 C 483.389,38.1174 483.056,38.6174 482.5,39C 489.826,39.4997 497.159,39.6663 504.5,39.5C 504.5,57.5 504.5,75.5 504.5,93.5C 478.272,90.2675 462.605,101.434 457.5,127C 457.324,129.359 457.991,129.859 459.5,128.5C 457.082,161.916 472.582,177.582 506,175.5C 506.5,194.497 506.667,213.497 506.5,232.5C 449.872,235.728 417.705,209.062 410,152.5C 406.016,123.472 411.349,96.4724 426,71.5C 440.188,51.82 459.355,40.4866 483.5,37.5 Z"/></g>
<g><path style="opacity:1" fill="#971317" d="M 587.5,38.5 C 612.551,42.384 627.717,56.7174 633,81.5C 636.768,101.033 636.101,120.367 631,139.5C 623.325,162.163 607.492,174.33 583.5,176C 577.175,176.5 570.842,176.666 564.5,176.5C 564.48,194.82 564.147,213.153 563.5,231.5C 548.637,232.827 533.804,232.827 519,231.5C 518.5,167.501 518.333,103.501 518.5,39.5C 541.673,39.8308 564.673,39.4975 587.5,38.5 Z M 564.5,83.5 C 572.066,82.4658 578.899,84.1324 585,88.5C 586.522,90.7409 587.855,93.0742 589,95.5C 589.667,102.833 589.667,110.167 589,117.5C 585.824,125.668 579.824,130.001 571,130.5C 569.204,129.233 567.371,129.233 565.5,130.5C 564.719,129.271 564.219,127.938 564,126.5C 563.489,112.16 563.655,97.8262 564.5,83.5 Z"/></g>
<g><path style="opacity:0.559" fill="#8c0102" d="M 155.5,39.5 C 156.167,39.8333 156.833,40.1667 157.5,40.5C 157.5,58.8333 157.5,77.1667 157.5,95.5C 145.402,93.9329 134.068,95.9329 123.5,101.5C 115.743,108.886 111.41,117.886 110.5,128.5C 108.991,129.859 108.324,129.359 108.5,127C 113.605,101.434 129.272,90.2675 155.5,93.5C 155.5,75.5 155.5,57.5 155.5,39.5 Z"/></g>
<g><path style="opacity:0.559" fill="#8c0102" d="M 504.5,39.5 C 505.167,39.8333 505.833,40.1667 506.5,40.5C 506.5,58.8333 506.5,77.1667 506.5,95.5C 494.402,93.9329 483.068,95.9329 472.5,101.5C 464.743,108.886 460.41,117.886 459.5,128.5C 457.991,129.859 457.324,129.359 457.5,127C 462.605,101.434 478.272,90.2675 504.5,93.5C 504.5,75.5 504.5,57.5 504.5,39.5 Z"/></g>
<g><path style="opacity:0.924" fill="#a43236" d="M 276.5,250.5 C 199.029,251.845 121.362,253.178 43.5,254.5C 43.33,253.178 43.6634,252.011 44.5,251C 121.833,250.5 199.166,250.333 276.5,250.5 Z"/></g>
<g><path style="opacity:0.924" fill="#a43236" d="M 625.5,250.5 C 548.029,251.845 470.362,253.178 392.5,254.5C 392.33,253.178 392.663,252.011 393.5,251C 470.833,250.5 548.166,250.333 625.5,250.5 Z"/></g>
<g><path style="opacity:0.965" fill="#9b1f20" d="M 143.5,264.5 C 148.667,263.492 150.334,265.325 148.5,270C 146.527,270.495 144.527,270.662 142.5,270.5C 142.833,268.5 143.167,266.5 143.5,264.5 Z"/></g>
<g><path style="opacity:0.987" fill="#9c1e20" d="M 297.5,264.5 C 299.167,264.5 300.833,264.5 302.5,264.5C 303.691,270.472 301.524,272.805 296,271.5C 295.833,270.667 295.667,269.833 295.5,269C 296.074,267.393 296.74,265.893 297.5,264.5 Z"/></g>
<g><path style="opacity:0.965" fill="#9b1f20" d="M 492.5,264.5 C 497.667,263.492 499.334,265.325 497.5,270C 495.527,270.495 493.527,270.662 491.5,270.5C 491.833,268.5 492.167,266.5 492.5,264.5 Z"/></g>
<g><path style="opacity:0.987" fill="#9c1e20" d="M 646.5,264.5 C 648.167,264.5 649.833,264.5 651.5,264.5C 652.691,270.472 650.524,272.805 645,271.5C 644.833,270.667 644.667,269.833 644.5,269C 645.074,267.393 645.74,265.893 646.5,264.5 Z"/></g>
<g><path style="opacity:0.977" fill="#99181a" d="M 98.5,264.5 C 103.709,264.369 105.375,266.703 103.5,271.5C 102.059,272.304 100.559,272.971 99,273.5C 97.5,273.333 96.6667,272.5 96.5,271C 97.2741,268.846 97.9408,266.679 98.5,264.5 Z"/></g>
<g><path style="opacity:0.977" fill="#99181a" d="M 447.5,264.5 C 452.709,264.369 454.375,266.703 452.5,271.5C 451.059,272.304 449.559,272.971 448,273.5C 446.5,273.333 445.667,272.5 445.5,271C 446.274,268.846 446.941,266.679 447.5,264.5 Z"/></g>
<g><path style="opacity:0.539" fill="#9d2326" d="M 184.5,266.5 C 186.5,266.5 188.5,266.5 190.5,266.5C 190.19,270.546 189.19,274.379 187.5,278C 185.044,278.946 183.044,278.446 181.5,276.5C 182.755,273.208 183.755,269.875 184.5,266.5 Z"/></g>
<g><path style="opacity:0.792" fill="#981517" d="M 251.5,264.5 C 256.376,263.404 258.043,265.071 256.5,269.5C 254.604,270.466 252.604,270.799 250.5,270.5C 250.517,268.435 250.85,266.435 251.5,264.5 Z"/></g>
<g><path style="opacity:0.539" fill="#9d2326" d="M 533.5,266.5 C 535.5,266.5 537.5,266.5 539.5,266.5C 539.19,270.546 538.19,274.379 536.5,278C 534.044,278.946 532.044,278.446 530.5,276.5C 531.755,273.208 532.755,269.875 533.5,266.5 Z"/></g>
<g><path style="opacity:0.792" fill="#981517" d="M 600.5,264.5 C 605.376,263.404 607.043,265.071 605.5,269.5C 603.604,270.466 601.604,270.799 599.5,270.5C 599.517,268.435 599.85,266.435 600.5,264.5 Z"/></g>
<g><path style="opacity:0.998" fill="#9e2626" d="M 275.5,265.5 C 276.5,265.5 277.5,265.5 278.5,265.5C 278.5,268.5 278.5,271.5 278.5,274.5C 276.533,274.739 274.699,274.406 273,273.5C 272.933,270.613 273.767,267.946 275.5,265.5 Z"/></g>
<g><path style="opacity:0.998" fill="#9e2626" d="M 624.5,265.5 C 625.5,265.5 626.5,265.5 627.5,265.5C 627.5,268.5 627.5,271.5 627.5,274.5C 625.533,274.739 623.699,274.406 622,273.5C 621.933,270.613 622.767,267.946 624.5,265.5 Z"/></g>
<g><path style="opacity:0.055" fill="#9c2123" d="M 122.5,265.5 C 125.135,267.429 125.968,270.095 125,273.5C 123.301,274.406 121.467,274.739 119.5,274.5C 119.647,271.208 120.647,268.208 122.5,265.5 Z"/></g>
<g><path style="opacity:0.055" fill="#9c2123" d="M 471.5,265.5 C 474.135,267.429 474.968,270.095 474,273.5C 472.301,274.406 470.467,274.739 468.5,274.5C 468.647,271.208 469.647,268.208 471.5,265.5 Z"/></g>
<g><path style="opacity:0.573" fill="#a5383c" d="M 234.5,277.5 C 233.71,276.391 233.21,275.058 233,273.5C 232.8,275.32 231.966,276.653 230.5,277.5C 231.244,273.523 232.744,269.856 235,266.5C 236.651,270.149 236.484,273.816 234.5,277.5 Z"/></g>
<g><path style="opacity:0.573" fill="#a5383c" d="M 583.5,277.5 C 582.71,276.391 582.21,275.058 582,273.5C 581.8,275.32 580.966,276.653 579.5,277.5C 580.244,273.523 581.744,269.856 584,266.5C 585.651,270.149 585.484,273.816 583.5,277.5 Z"/></g>
<g><path style="opacity:0.859" fill="#a22527" d="M 141.5,272.5 C 146.52,271.905 148.186,273.905 146.5,278.5C 143.761,281.464 141.761,281.131 140.5,277.5C 141.046,275.865 141.38,274.199 141.5,272.5 Z"/></g>
<g><path style="opacity:1" fill="#9e1e22" d="M 250.5,272.5 C 255.975,272.44 257.309,274.606 254.5,279C 251.262,281.478 249.262,280.811 248.5,277C 248.519,275.167 249.185,273.667 250.5,272.5 Z"/></g>
<g><path style="opacity:0.859" fill="#a22527" d="M 490.5,272.5 C 495.52,271.905 497.186,273.905 495.5,278.5C 492.761,281.464 490.761,281.131 489.5,277.5C 490.046,275.865 490.38,274.199 490.5,272.5 Z"/></g>
<g><path style="opacity:1" fill="#9e1e22" d="M 599.5,272.5 C 604.975,272.44 606.309,274.606 603.5,279C 600.262,281.478 598.262,280.811 597.5,277C 597.519,275.167 598.185,273.667 599.5,272.5 Z"/></g>
<g><path style="opacity:0.739" fill="#a33638" d="M 78.5,297.5 C 77.3998,296.442 76.0664,295.608 74.5,295C 64.8391,294.5 55.1724,294.334 45.5,294.5C 44.9569,294.44 44.6236,294.107 44.5,293.5C 54.1495,292.335 63.8161,292.168 73.5,293C 75.1667,293.833 76.8333,294.667 78.5,295.5C 79.7733,296.257 79.7733,296.923 78.5,297.5 Z"/></g>
<g><path style="opacity:0.739" fill="#a33638" d="M 427.5,297.5 C 426.4,296.442 425.066,295.608 423.5,295C 413.839,294.5 404.172,294.334 394.5,294.5C 393.957,294.44 393.624,294.107 393.5,293.5C 403.149,292.335 412.816,292.168 422.5,293C 424.167,293.833 425.833,294.667 427.5,295.5C 428.773,296.257 428.773,296.923 427.5,297.5 Z"/></g>
<g><path style="opacity:1" fill="#9c2121" d="M 56.5,300.5 C 59.5719,300.183 62.5719,300.516 65.5,301.5C 68.9275,306.708 67.5941,310.208 61.5,312C 59.1667,312.667 56.8333,312.667 54.5,312C 54.2429,308.152 54.9096,304.318 56.5,300.5 Z"/></g>
<g><path style="opacity:0.999" fill="#99171a" d="M 105.5,300.5 C 111.374,299.34 114.374,301.674 114.5,307.5C 114.23,313.117 112.23,317.951 108.5,322C 105.773,322.818 103.106,322.652 100.5,321.5C 98.2644,313.446 99.9311,306.446 105.5,300.5 Z"/></g>
<g><path style="opacity:0.998" fill="#98181b" d="M 277.5,300.5 C 281.375,300.085 285.042,300.585 288.5,302C 287.009,304.621 286.342,307.455 286.5,310.5C 282.894,310.789 279.394,310.456 276,309.5C 274.058,306.141 274.558,303.141 277.5,300.5 Z"/></g>
<g><path style="opacity:1" fill="#9c2121" d="M 405.5,300.5 C 408.572,300.183 411.572,300.516 414.5,301.5C 417.927,306.708 416.594,310.208 410.5,312C 408.167,312.667 405.833,312.667 403.5,312C 403.243,308.152 403.91,304.318 405.5,300.5 Z"/></g>
<g><path style="opacity:0.999" fill="#99171a" d="M 454.5,300.5 C 460.374,299.34 463.374,301.674 463.5,307.5C 463.23,313.117 461.23,317.951 457.5,322C 454.773,322.818 452.106,322.652 449.5,321.5C 447.264,313.446 448.931,306.446 454.5,300.5 Z"/></g>
<g><path style="opacity:0.998" fill="#98181b" d="M 626.5,300.5 C 630.375,300.085 634.042,300.585 637.5,302C 636.009,304.621 635.342,307.455 635.5,310.5C 631.894,310.789 628.394,310.456 625,309.5C 623.058,306.141 623.558,303.141 626.5,300.5 Z"/></g>
<g><path style="opacity:0.592" fill="#a63638" d="M 240.5,315.5 C 240.293,313.396 240.126,311.063 240,308.5C 239.333,309.833 238.667,311.167 238,312.5C 237.536,311.906 237.369,311.239 237.5,310.5C 238.546,307.81 239.546,305.143 240.5,302.5C 241.5,302.5 242.5,302.5 243.5,302.5C 243.237,307.124 242.237,311.458 240.5,315.5 Z"/></g>
<g><path style="opacity:0.592" fill="#a63638" d="M 589.5,315.5 C 589.293,313.396 589.126,311.063 589,308.5C 588.333,309.833 587.667,311.167 587,312.5C 586.536,311.906 586.369,311.239 586.5,310.5C 587.546,307.81 588.546,305.143 589.5,302.5C 590.5,302.5 591.5,302.5 592.5,302.5C 592.237,307.124 591.237,311.458 589.5,315.5 Z"/></g>
<g><path style="opacity:0.731" fill="#a93a3b" d="M 25.5,337.5 C 27.7583,337.775 28.0916,338.775 26.5,340.5C 117.901,341.169 209.235,341.836 300.5,342.5C 209.002,343.499 117.335,343.833 25.5,343.5C 25.5,341.5 25.5,339.5 25.5,337.5 Z"/></g>
<g><path style="opacity:0.731" fill="#a93a3b" d="M 374.5,337.5 C 376.758,337.775 377.092,338.775 375.5,340.5C 466.901,341.169 558.235,341.836 649.5,342.5C 558.002,343.499 466.335,343.833 374.5,343.5C 374.5,341.5 374.5,339.5 374.5,337.5 Z"/></g>
<g><path style="opacity:1" fill="#981618" d="M 46.5,351.5 C 47.6378,354.304 47.8045,357.304 47,360.5C 45.7533,365.438 44.5866,370.438 43.5,375.5C 39.8936,375.789 36.3936,375.456 33,374.5C 33.3716,369.468 34.2049,364.468 35.5,359.5C 34.1779,359.33 33.0113,359.663 32,360.5C 31.0904,365.692 29.9237,370.692 28.5,375.5C 28.3893,374.883 28.056,374.383 27.5,374C 24.8333,373.667 22.1667,373.333 19.5,373C 21.3955,366.251 23.0622,359.417 24.5,352.5C 32.0191,352.825 39.3524,352.492 46.5,351.5 Z"/></g>
<g><path style="opacity:0.999" fill="#991a1c" d="M 91.5,351.5 C 100.167,351.5 108.833,351.5 117.5,351.5C 117.167,354.167 116.833,356.833 116.5,359.5C 113.833,359.5 111.167,359.5 108.5,359.5C 107.379,364.516 106.212,369.516 105,374.5C 101.606,375.456 98.1064,375.789 94.5,375.5C 94.756,370.167 95.756,365.001 97.5,360C 95.1902,359.503 92.8568,359.337 90.5,359.5C 90.2786,356.721 90.612,354.054 91.5,351.5 Z"/></g>
<g><path style="opacity:0.999" fill="#99191b" d="M 183.5,351.5 C 184.725,352.152 185.392,353.319 185.5,355C 184.206,361.872 182.872,368.705 181.5,375.5C 178.167,375.5 174.833,375.5 171.5,375.5C 171.671,372.203 171.005,371.869 169.5,374.5C 164.833,375.833 160.167,375.833 155.5,374.5C 155.291,373.914 154.957,373.414 154.5,373C 155.965,367.223 157.298,361.39 158.5,355.5C 160.048,355.179 160.715,354.179 160.5,352.5C 162.833,352.5 165.167,352.5 167.5,352.5C 166.84,357.341 166.006,362.341 165,367.5C 167.372,362.588 169.872,357.755 172.5,353C 176.356,352.823 180.023,352.323 183.5,351.5 Z"/></g>
<g><path style="opacity:0.999" fill="#99181b" d="M 200.5,351.5 C 205.544,351.173 210.544,351.506 215.5,352.5C 220.475,357.801 220.809,363.468 216.5,369.5C 214.597,371.905 212.264,373.739 209.5,375C 193.363,377.869 188.196,371.702 194,356.5C 196.071,354.563 198.238,352.896 200.5,351.5 Z M 205.5,358.5 C 206.725,359.152 207.392,360.319 207.5,362C 207.954,365.293 206.62,367.126 203.5,367.5C 203.065,364.162 203.732,361.162 205.5,358.5 Z"/></g>
<g><path style="opacity:0.997" fill="#9a1b1c" d="M 228.5,351.5 C 237.167,351.5 245.833,351.5 254.5,351.5C 255.48,358.38 252.48,361.047 245.5,359.5C 244.5,364.835 243.5,370.168 242.5,375.5C 238.833,375.5 235.167,375.5 231.5,375.5C 232.073,370.058 233.073,364.724 234.5,359.5C 232.167,359.5 229.833,359.5 227.5,359.5C 227.833,356.833 228.167,354.167 228.5,351.5 Z"/></g>
<g><path style="opacity:1" fill="#981618" d="M 395.5,351.5 C 396.638,354.304 396.805,357.304 396,360.5C 394.753,365.438 393.587,370.438 392.5,375.5C 388.894,375.789 385.394,375.456 382,374.5C 382.372,369.468 383.205,364.468 384.5,359.5C 383.178,359.33 382.011,359.663 381,360.5C 380.09,365.692 378.924,370.692 377.5,375.5C 377.389,374.883 377.056,374.383 376.5,374C 373.833,373.667 371.167,373.333 368.5,373C 370.396,366.251 372.062,359.417 373.5,352.5C 381.019,352.825 388.352,352.492 395.5,351.5 Z"/></g>
<g><path style="opacity:0.999" fill="#991a1c" d="M 440.5,351.5 C 449.167,351.5 457.833,351.5 466.5,351.5C 466.167,354.167 465.833,356.833 465.5,359.5C 462.833,359.5 460.167,359.5 457.5,359.5C 456.379,364.516 455.212,369.516 454,374.5C 450.606,375.456 447.106,375.789 443.5,375.5C 443.756,370.167 444.756,365.001 446.5,360C 444.19,359.503 441.857,359.337 439.5,359.5C 439.279,356.721 439.612,354.054 440.5,351.5 Z"/></g>
<g><path style="opacity:0.999" fill="#99191b" d="M 532.5,351.5 C 533.725,352.152 534.392,353.319 534.5,355C 533.206,361.872 531.872,368.705 530.5,375.5C 527.167,375.5 523.833,375.5 520.5,375.5C 520.671,372.203 520.005,371.869 518.5,374.5C 513.833,375.833 509.167,375.833 504.5,374.5C 504.291,373.914 503.957,373.414 503.5,373C 504.965,367.223 506.298,361.39 507.5,355.5C 509.048,355.179 509.715,354.179 509.5,352.5C 511.833,352.5 514.167,352.5 516.5,352.5C 515.84,357.341 515.006,362.341 514,367.5C 516.372,362.588 518.872,357.755 521.5,353C 525.356,352.823 529.023,352.323 532.5,351.5 Z"/></g>
<g><path style="opacity:0.999" fill="#99181b" d="M 549.5,351.5 C 554.544,351.173 559.544,351.506 564.5,352.5C 569.475,357.801 569.809,363.468 565.5,369.5C 563.597,371.905 561.264,373.739 558.5,375C 542.363,377.869 537.196,371.702 543,356.5C 545.071,354.563 547.238,352.896 549.5,351.5 Z M 554.5,358.5 C 555.725,359.152 556.392,360.319 556.5,362C 556.954,365.293 555.62,367.126 552.5,367.5C 552.065,364.162 552.732,361.162 554.5,358.5 Z"/></g>
<g><path style="opacity:0.997" fill="#9a1b1c" d="M 577.5,351.5 C 586.167,351.5 594.833,351.5 603.5,351.5C 604.48,358.38 601.48,361.047 594.5,359.5C 593.5,364.835 592.5,370.168 591.5,375.5C 587.833,375.5 584.167,375.5 580.5,375.5C 581.073,370.058 582.073,364.724 583.5,359.5C 581.167,359.5 578.833,359.5 576.5,359.5C 576.833,356.833 577.167,354.167 577.5,351.5 Z"/></g>
<g><path style="opacity:0.999" fill="#9a1b1d" d="M 63.5,351.5 C 68.43,351.197 73.2633,351.531 78,352.5C 78.4693,358.392 79.3026,364.225 80.5,370C 80.4555,371.764 80.1222,373.431 79.5,375C 76.5,375.667 73.5,375.667 70.5,375C 67.7691,369.269 64.7691,369.103 61.5,374.5C 57.6828,375.915 54.0161,375.748 50.5,374C 54.705,366.423 59.0383,358.923 63.5,351.5 Z"/></g>
<g><path style="opacity:0.999" fill="#9a1c1d" d="M 125.5,351.5 C 132.532,351.17 139.532,351.503 146.5,352.5C 151.325,360.078 149.325,365.578 140.5,369C 137.854,369.497 135.187,369.664 132.5,369.5C 132.643,371.262 132.309,372.929 131.5,374.5C 127.893,375.489 124.226,375.823 120.5,375.5C 121.916,367.421 123.582,359.421 125.5,351.5 Z M 134.5,358.5 C 135.5,358.5 136.5,358.5 137.5,358.5C 137.5,359.5 137.5,360.5 137.5,361.5C 136.5,361.5 135.5,361.5 134.5,361.5C 134.5,360.5 134.5,359.5 134.5,358.5 Z"/></g>
<g><path style="opacity:1" fill="#9a181b" d="M 281.5,371.5 C 273.918,372.672 266.584,374.005 259.5,375.5C 258.844,374.378 258.511,373.045 258.5,371.5C 259.623,364.755 260.956,358.089 262.5,351.5C 266.167,351.5 269.833,351.5 273.5,351.5C 273.167,353.5 272.833,355.5 272.5,357.5C 278.489,356.065 282.655,358.065 285,363.5C 286.028,359.527 286.861,355.527 287.5,351.5C 291.167,351.5 294.833,351.5 298.5,351.5C 297.318,359.242 295.818,366.909 294,374.5C 290.591,375.622 287.091,375.789 283.5,375C 283.038,373.278 282.872,371.445 283,369.5C 282.722,370.416 282.222,371.082 281.5,371.5 Z M 270.5,364.5 C 273.595,365.119 273.929,366.119 271.5,367.5C 270.614,366.675 270.281,365.675 270.5,364.5 Z"/></g>
<g><path style="opacity:0.999" fill="#9a1b1d" d="M 412.5,351.5 C 417.43,351.197 422.263,351.531 427,352.5C 427.469,358.392 428.303,364.225 429.5,370C 429.456,371.764 429.122,373.431 428.5,375C 425.5,375.667 422.5,375.667 419.5,375C 416.769,369.269 413.769,369.103 410.5,374.5C 406.683,375.915 403.016,375.748 399.5,374C 403.705,366.423 408.038,358.923 412.5,351.5 Z"/></g>
<g><path style="opacity:0.999" fill="#9a1c1d" d="M 474.5,351.5 C 481.532,351.17 488.532,351.503 495.5,352.5C 500.325,360.078 498.325,365.578 489.5,369C 486.854,369.497 484.187,369.664 481.5,369.5C 481.643,371.262 481.309,372.929 480.5,374.5C 476.893,375.489 473.226,375.823 469.5,375.5C 470.916,367.421 472.582,359.421 474.5,351.5 Z M 483.5,358.5 C 484.5,358.5 485.5,358.5 486.5,358.5C 486.5,359.5 486.5,360.5 486.5,361.5C 485.5,361.5 484.5,361.5 483.5,361.5C 483.5,360.5 483.5,359.5 483.5,358.5 Z"/></g>
<g><path style="opacity:1" fill="#9a181b" d="M 630.5,371.5 C 622.918,372.672 615.584,374.005 608.5,375.5C 607.844,374.378 607.511,373.045 607.5,371.5C 608.623,364.755 609.956,358.089 611.5,351.5C 615.167,351.5 618.833,351.5 622.5,351.5C 622.167,353.5 621.833,355.5 621.5,357.5C 627.489,356.065 631.655,358.065 634,363.5C 635.028,359.527 635.861,355.527 636.5,351.5C 640.167,351.5 643.833,351.5 647.5,351.5C 646.318,359.242 644.818,366.909 643,374.5C 639.591,375.622 636.091,375.789 632.5,375C 632.038,373.278 631.872,371.445 632,369.5C 631.722,370.416 631.222,371.082 630.5,371.5 Z M 619.5,364.5 C 622.595,365.119 622.929,366.119 620.5,367.5C 619.614,366.675 619.281,365.675 619.5,364.5 Z"/></g>
<g><path style="opacity:0.392" fill="#a33133" d="M 183.5,351.5 C 180.023,352.323 176.356,352.823 172.5,353C 169.872,357.755 167.372,362.588 165,367.5C 166.006,362.341 166.84,357.341 167.5,352.5C 165.167,352.5 162.833,352.5 160.5,352.5C 160.715,354.179 160.048,355.179 158.5,355.5C 159.234,354.292 159.567,352.959 159.5,351.5C 163.351,350.971 166.851,351.638 170,353.5C 174.178,351.601 178.678,350.935 183.5,351.5 Z"/></g>
<g><path style="opacity:0.392" fill="#a33133" d="M 532.5,351.5 C 529.023,352.323 525.356,352.823 521.5,353C 518.872,357.755 516.372,362.588 514,367.5C 515.006,362.341 515.84,357.341 516.5,352.5C 514.167,352.5 511.833,352.5 509.5,352.5C 509.715,354.179 509.048,355.179 507.5,355.5C 508.234,354.292 508.567,352.959 508.5,351.5C 512.351,350.971 515.851,351.638 519,353.5C 523.178,351.601 527.678,350.935 532.5,351.5 Z"/></g>
<g><path style="opacity:0.118" fill="#a22e30" d="M 46.5,351.5 C 39.3524,352.492 32.0191,352.825 24.5,352.5C 23.0622,359.417 21.3955,366.251 19.5,373C 22.1667,373.333 24.8333,373.667 27.5,374C 28.056,374.383 28.3893,374.883 28.5,375.5C 25.4816,375.665 22.4816,375.498 19.5,375C 18.9781,374.439 18.6448,373.772 18.5,373C 19.7921,366.123 21.2921,359.29 23,352.5C 30.747,351.518 38.5803,351.185 46.5,351.5 Z"/></g>
<g><path style="opacity:0.118" fill="#a22e30" d="M 395.5,351.5 C 388.352,352.492 381.019,352.825 373.5,352.5C 372.062,359.417 370.396,366.251 368.5,373C 371.167,373.333 373.833,373.667 376.5,374C 377.056,374.383 377.389,374.883 377.5,375.5C 374.482,375.665 371.482,375.498 368.5,375C 367.978,374.439 367.645,373.772 367.5,373C 368.792,366.123 370.292,359.29 372,352.5C 379.747,351.518 387.58,351.185 395.5,351.5 Z"/></g>
<g><path style="opacity:0.116" fill="#a6393b" d="M 281.5,371.5 C 280.251,373.136 278.584,374.303 276.5,375C 270.843,375.499 265.176,375.666 259.5,375.5C 266.584,374.005 273.918,372.672 281.5,371.5 Z"/></g>
<g><path style="opacity:0.116" fill="#a6393b" d="M 630.5,371.5 C 629.251,373.136 627.584,374.303 625.5,375C 619.843,375.499 614.176,375.666 608.5,375.5C 615.584,374.005 622.918,372.672 630.5,371.5 Z"/></g>
<g><path style="opacity:1" fill="#982b2a" d="M 265.5,381.5 C 271.823,382.421 278.323,383.087 285,383.5C 287.295,383.453 289.129,382.787 290.5,381.5C 291.88,381.962 292.547,382.962 292.5,384.5C 291.176,388.54 290.176,392.54 289.5,396.5C 289.077,395.735 288.743,394.902 288.5,394C 289.361,390.863 290.027,387.697 290.5,384.5C 199.596,384.832 108.763,384.499 18,383.5C 15.3309,394.506 12.8309,405.506 10.5,416.5C 10.1667,416.5 9.83333,416.5 9.5,416.5C 11.5026,405.486 13.6692,394.486 16,383.5C 16.5,383 17,382.5 17.5,382C 100.166,381.5 182.833,381.333 265.5,381.5 Z"/></g>
<g><path style="opacity:0.375" fill="#933b3c" d="M 265.5,381.5 C 273.833,381.5 282.167,381.5 290.5,381.5C 289.129,382.787 287.295,383.453 285,383.5C 278.323,383.087 271.823,382.421 265.5,381.5 Z"/></g>
<g><path style="opacity:1" fill="#982b2a" d="M 614.5,381.5 C 620.823,382.421 627.323,383.087 634,383.5C 636.295,383.453 638.129,382.787 639.5,381.5C 640.88,381.962 641.547,382.962 641.5,384.5C 640.176,388.54 639.176,392.54 638.5,396.5C 638.077,395.735 637.743,394.902 637.5,394C 638.361,390.863 639.027,387.697 639.5,384.5C 548.596,384.832 457.763,384.499 367,383.5C 364.331,394.506 361.831,405.506 359.5,416.5C 359.167,416.5 358.833,416.5 358.5,416.5C 360.503,405.486 362.669,394.486 365,383.5C 365.5,383 366,382.5 366.5,382C 449.166,381.5 531.833,381.333 614.5,381.5 Z"/></g>
<g><path style="opacity:0.375" fill="#933b3c" d="M 614.5,381.5 C 622.833,381.5 631.167,381.5 639.5,381.5C 638.129,382.787 636.295,383.453 634,383.5C 627.323,383.087 620.823,382.421 614.5,381.5 Z"/></g>
<g><path style="opacity:0.999" fill="#98161a" d="M 289.5,396.5 C 288.148,403.189 286.814,409.856 285.5,416.5C 193.833,416.5 102.167,416.5 10.5,416.5C 12.8309,405.506 15.3309,394.506 18,383.5C 108.763,384.499 199.596,384.832 290.5,384.5C 290.027,387.697 289.361,390.863 288.5,394C 288.743,394.902 289.077,395.735 289.5,396.5 Z M 25.5,392.5 C 25.5,391.5 25.5,390.5 25.5,389.5C 29.5138,389.334 33.5138,389.501 37.5,390C 41.5859,393.508 41.0859,396.342 36,398.5C 35.5172,399.448 35.3505,400.448 35.5,401.5C 37.3588,401.461 38.6921,402.294 39.5,404C 38.5,407 36.5,409 33.5,410C 29.5138,410.499 25.5138,410.666 21.5,410.5C 21.238,409.022 21.5713,407.689 22.5,406.5C 26.5393,408.283 30.0393,407.616 33,404.5C 33.6877,403.668 33.521,403.002 32.5,402.5C 30.6721,401.205 28.6721,400.205 26.5,399.5C 28.4648,398.708 30.4648,398.041 32.5,397.5C 33.4519,395.955 33.7852,394.288 33.5,392.5C 30.8333,392.5 28.1667,392.5 25.5,392.5 Z M 57.5,389.5 C 61.1667,389.5 64.8333,389.5 68.5,389.5C 69.8267,396.419 70.8267,403.419 71.5,410.5C 69.076,410.808 66.7427,410.474 64.5,409.5C 63.7542,408.264 63.4208,406.93 63.5,405.5C 60.4816,405.335 57.4816,405.502 54.5,406C 53.4299,410.206 50.7633,411.539 46.5,410C 50.5359,403.291 54.2026,396.457 57.5,389.5 Z M 102.5,389.5 C 109.167,389.5 115.833,389.5 122.5,389.5C 121.489,396.568 120.156,403.568 118.5,410.5C 116.5,410.5 114.5,410.5 112.5,410.5C 113.267,406.695 113.933,402.861 114.5,399C 114.333,397.5 114.167,396 114,394.5C 111.408,393.018 109.075,393.352 107,395.5C 105.683,400.431 104.85,405.431 104.5,410.5C 102.143,410.663 99.8098,410.497 97.5,410C 99.0953,403.119 100.762,396.286 102.5,389.5 Z M 133.5,389.5 C 138.844,389.334 144.177,389.501 149.5,390C 153.07,391.703 154.236,394.537 153,398.5C 151.773,400.726 149.939,402.226 147.5,403C 144.11,403.246 140.777,403.746 137.5,404.5C 136.682,406.108 136.015,407.775 135.5,409.5C 133.5,410.833 131.5,410.833 129.5,409.5C 131.055,402.847 132.388,396.18 133.5,389.5 Z M 170.5,389.5 C 174.106,389.211 177.606,389.544 181,390.5C 181.838,397.18 182.672,403.847 183.5,410.5C 181.5,410.5 179.5,410.5 177.5,410.5C 178.091,406.259 176.258,404.593 172,405.5C 168.507,404.78 166.34,406.113 165.5,409.5C 163.5,410.833 161.5,410.833 159.5,409.5C 163.551,402.985 167.217,396.318 170.5,389.5 Z M 197.5,389.5 C 202.844,389.334 208.177,389.501 213.5,390C 216.806,391.537 217.306,393.704 215,396.5C 213.229,397.304 211.729,398.471 210.5,400C 215.93,403.675 215.596,407.008 209.5,410C 204.177,410.499 198.844,410.666 193.5,410.5C 194.429,403.383 195.762,396.383 197.5,389.5 Z M 228.5,389.5 C 234.833,389.5 241.167,389.5 247.5,389.5C 246.93,394.25 245.93,398.917 244.5,403.5C 244.909,407.07 244.909,410.736 244.5,414.5C 242.5,414.5 240.5,414.5 238.5,414.5C 238.5,413.167 238.5,411.833 238.5,410.5C 235.15,410.335 231.817,410.502 228.5,411C 227.197,414.044 224.864,415.211 221.5,414.5C 221.181,409.748 222.681,405.748 226,402.5C 227.314,398.246 228.147,393.913 228.5,389.5 Z M 256.5,390.5 C 258.693,389.203 261.027,389.203 263.5,390.5C 264.423,393.447 265.089,396.447 265.5,399.5C 267.143,399.52 268.476,398.853 269.5,397.5C 270.824,395.172 272.157,392.839 273.5,390.5C 275.421,389.359 277.421,389.192 279.5,390C 275.043,396.414 270.709,402.914 266.5,409.5C 264.579,410.641 262.579,410.808 260.5,410C 262.396,408.192 262.896,406.025 262,403.5C 260.109,399.067 258.276,394.734 256.5,390.5 Z"/></g>
<g><path style="opacity:0.999" fill="#98161a" d="M 638.5,396.5 C 637.148,403.189 635.814,409.856 634.5,416.5C 542.833,416.5 451.167,416.5 359.5,416.5C 361.831,405.506 364.331,394.506 367,383.5C 457.763,384.499 548.596,384.832 639.5,384.5C 639.027,387.697 638.361,390.863 637.5,394C 637.743,394.902 638.077,395.735 638.5,396.5 Z M 374.5,392.5 C 374.5,391.5 374.5,390.5 374.5,389.5C 378.514,389.334 382.514,389.501 386.5,390C 390.586,393.508 390.086,396.342 385,398.5C 384.517,399.448 384.351,400.448 384.5,401.5C 386.359,401.461 387.692,402.294 388.5,404C 387.5,407 385.5,409 382.5,410C 378.514,410.499 374.514,410.666 370.5,410.5C 370.238,409.022 370.571,407.689 371.5,406.5C 375.539,408.283 379.039,407.616 382,404.5C 382.688,403.668 382.521,403.002 381.5,402.5C 379.672,401.205 377.672,400.205 375.5,399.5C 377.465,398.708 379.465,398.041 381.5,397.5C 382.452,395.955 382.785,394.288 382.5,392.5C 379.833,392.5 377.167,392.5 374.5,392.5 Z M 406.5,389.5 C 410.167,389.5 413.833,389.5 417.5,389.5C 418.827,396.419 419.827,403.419 420.5,410.5C 418.076,410.808 415.743,410.474 413.5,409.5C 412.754,408.264 412.421,406.93 412.5,405.5C 409.482,405.335 406.482,405.502 403.5,406C 402.43,410.206 399.763,411.539 395.5,410C 399.536,403.291 403.203,396.457 406.5,389.5 Z M 451.5,389.5 C 458.167,389.5 464.833,389.5 471.5,389.5C 470.489,396.568 469.156,403.568 467.5,410.5C 465.5,410.5 463.5,410.5 461.5,410.5C 462.267,406.695 462.933,402.861 463.5,399C 463.333,397.5 463.167,396 463,394.5C 460.408,393.018 458.075,393.352 456,395.5C 454.683,400.431 453.85,405.431 453.5,410.5C 451.143,410.663 448.81,410.497 446.5,410C 448.095,403.119 449.762,396.286 451.5,389.5 Z M 482.5,389.5 C 487.844,389.334 493.177,389.501 498.5,390C 502.07,391.703 503.236,394.537 502,398.5C 500.773,400.726 498.939,402.226 496.5,403C 493.11,403.246 489.777,403.746 486.5,404.5C 485.682,406.108 485.015,407.775 484.5,409.5C 482.5,410.833 480.5,410.833 478.5,409.5C 480.055,402.847 481.388,396.18 482.5,389.5 Z M 519.5,389.5 C 523.106,389.211 526.606,389.544 530,390.5C 530.838,397.18 531.672,403.847 532.5,410.5C 530.5,410.5 528.5,410.5 526.5,410.5C 527.091,406.259 525.258,404.593 521,405.5C 517.507,404.78 515.34,406.113 514.5,409.5C 512.5,410.833 510.5,410.833 508.5,409.5C 512.551,402.985 516.217,396.318 519.5,389.5 Z M 546.5,389.5 C 551.844,389.334 557.177,389.501 562.5,390C 565.806,391.537 566.306,393.704 564,396.5C 562.229,397.304 560.729,398.471 559.5,400C 564.93,403.675 564.596,407.008 558.5,410C 553.177,410.499 547.844,410.666 542.5,410.5C 543.429,403.383 544.762,396.383 546.5,389.5 Z M 577.5,389.5 C 583.833,389.5 590.167,389.5 596.5,389.5C 595.93,394.25 594.93,398.917 593.5,403.5C 593.909,407.07 593.909,410.736 593.5,414.5C 591.5,414.5 589.5,414.5 587.5,414.5C 587.5,413.167 587.5,411.833 587.5,410.5C 584.15,410.335 580.817,410.502 577.5,411C 576.197,414.044 573.864,415.211 570.5,414.5C 570.181,409.748 571.681,405.748 575,402.5C 576.314,398.246 577.147,393.913 577.5,389.5 Z M 605.5,390.5 C 607.693,389.203 610.027,389.203 612.5,390.5C 613.423,393.447 614.089,396.447 614.5,399.5C 616.143,399.52 617.476,398.853 618.5,397.5C 619.824,395.172 621.157,392.839 622.5,390.5C 624.421,389.359 626.421,389.192 628.5,390C 624.043,396.414 619.709,402.914 615.5,409.5C 613.579,410.641 611.579,410.808 609.5,410C 611.396,408.192 611.896,406.025 611,403.5C 609.109,399.067 607.276,394.734 605.5,390.5 Z"/></g>
<g><path style="opacity:1" fill="#9c1c1e" d="M 139.5,392.5 C 143.271,391.774 145.937,393.107 147.5,396.5C 145.021,400.637 141.688,401.47 137.5,399C 138.23,396.846 138.897,394.679 139.5,392.5 Z"/></g>
<g><path style="opacity:1" fill="#9c1c1e" d="M 488.5,392.5 C 492.271,391.774 494.937,393.107 496.5,396.5C 494.021,400.637 490.688,401.47 486.5,399C 487.23,396.846 487.897,394.679 488.5,392.5 Z"/></g>
<g><path style="opacity:1" fill="#9c2123" d="M 233.5,393.5 C 235.527,393.338 237.527,393.505 239.5,394C 240.348,397.338 240.015,400.671 238.5,404C 236.696,406.298 234.363,406.965 231.5,406C 230.978,405.439 230.645,404.772 230.5,404C 232.049,400.633 233.049,397.133 233.5,393.5 Z"/></g>
<g><path style="opacity:1" fill="#9c2123" d="M 582.5,393.5 C 584.527,393.338 586.527,393.505 588.5,394C 589.348,397.338 589.015,400.671 587.5,404C 585.696,406.298 583.363,406.965 580.5,406C 579.978,405.439 579.645,404.772 579.5,404C 581.049,400.633 582.049,397.133 582.5,393.5 Z"/></g>
<g><path style="opacity:0.239" fill="#9d2124" d="M 202.5,391.5 C 209.235,390.371 210.902,392.538 207.5,398C 205.527,398.495 203.527,398.662 201.5,398.5C 201.448,396.097 201.781,393.764 202.5,391.5 Z"/></g>
<g><path style="opacity:0.239" fill="#9d2124" d="M 551.5,391.5 C 558.235,390.371 559.902,392.538 556.5,398C 554.527,398.495 552.527,398.662 550.5,398.5C 550.448,396.097 550.781,393.764 551.5,391.5 Z"/></g>
<g><path style="opacity:0.992" fill="#9f2224" d="M 173.5,392.5 C 174.496,392.414 175.329,392.748 176,393.5C 176.667,396.167 176.667,398.833 176,401.5C 174.274,402.576 172.441,402.743 170.5,402C 169.978,401.439 169.645,400.772 169.5,400C 170.743,397.425 172.076,394.925 173.5,392.5 Z"/></g>
<g><path style="opacity:0.992" fill="#9f2224" d="M 522.5,392.5 C 523.496,392.414 524.329,392.748 525,393.5C 525.667,396.167 525.667,398.833 525,401.5C 523.274,402.576 521.441,402.743 519.5,402C 518.978,401.439 518.645,400.772 518.5,400C 519.743,397.425 521.076,394.925 522.5,392.5 Z"/></g>
<g><path style="opacity:0.176" fill="#a72828" d="M 61.5,392.5 C 62.1174,392.611 62.6174,392.944 63,393.5C 63.498,396.482 63.6646,399.482 63.5,402.5C 61.5,402.5 59.5,402.5 57.5,402.5C 57.4084,398.593 58.7417,395.26 61.5,392.5 Z"/></g>
<g><path style="opacity:0.176" fill="#a72828" d="M 410.5,392.5 C 411.117,392.611 411.617,392.944 412,393.5C 412.498,396.482 412.665,399.482 412.5,402.5C 410.5,402.5 408.5,402.5 406.5,402.5C 406.408,398.593 407.742,395.26 410.5,392.5 Z"/></g>
<g><path style="opacity:0.369" fill="#a2272b" d="M 201.5,400.5 C 206.675,399.507 208.509,401.507 207,406.5C 204.619,407.435 202.119,407.768 199.5,407.5C 199.166,404.812 199.832,402.479 201.5,400.5 Z"/></g>
<g><path style="opacity:0.369" fill="#a2272b" d="M 550.5,400.5 C 555.675,399.507 557.509,401.507 556,406.5C 553.619,407.435 551.119,407.768 548.5,407.5C 548.166,404.812 548.832,402.479 550.5,400.5 Z"/></g>
</svg>
