<svg width="38" height="38" viewBox="0 0 38 38" fill="none" xmlns="http://www.w3.org/2000/svg">
<g id="User Interface / Hyperlink">
<path id="Vector" d="M15.8333 27.7875L13.0308 30.5108C12.296 31.2457 11.2993 31.6586 10.26 31.6586C9.22074 31.6586 8.22404 31.2457 7.48917 30.5108C6.7543 29.776 6.34146 28.7793 6.34146 27.74C6.34146 26.7007 6.7543 25.704 7.48917 24.9692L14.6775 17.765C15.3831 17.0572 16.3337 16.6476 17.3328 16.6211C18.3319 16.5946 19.3029 16.9531 20.045 17.6225L20.235 17.7808C20.5353 18.0748 20.94 18.2374 21.3601 18.233C21.7803 18.2285 22.1815 18.0573 22.4754 17.7571C22.7694 17.4568 22.932 17.0521 22.9276 16.632C22.9231 16.2118 22.7519 15.8106 22.4517 15.5167C22.3623 15.4011 22.2672 15.2902 22.1667 15.1842C20.8151 14.0083 19.067 13.39 17.2767 13.4547C15.4863 13.5194 13.7874 14.2621 12.5242 15.5325L5.24084 22.7367C4.00324 24.0838 3.3339 25.8569 3.37262 27.6858C3.41134 29.5147 4.15512 31.2579 5.44862 32.5514C6.74213 33.8449 8.48535 34.5887 10.3142 34.6274C12.1431 34.6661 13.9162 33.9968 15.2633 32.7592L18.0025 30.0833C18.273 29.7883 18.4216 29.4018 18.4186 29.0015C18.4156 28.6013 18.2611 28.217 17.9862 27.9261C17.7113 27.6351 17.3365 27.4591 16.937 27.4334C16.5376 27.4077 16.1433 27.5342 15.8333 27.7875ZM32.7592 5.24084C31.4272 3.91719 29.6257 3.17426 27.7479 3.17426C25.8701 3.17426 24.0686 3.91719 22.7367 5.24084L19.9975 7.91667C19.727 8.21173 19.5784 8.59827 19.5814 8.99851C19.5844 9.39876 19.7389 9.78301 20.0138 10.0739C20.2887 10.3649 20.6636 10.5409 21.063 10.5666C21.4624 10.5923 21.8568 10.4658 22.1667 10.2125L24.9058 7.48917C25.6407 6.7543 26.6374 6.34146 27.6767 6.34146C28.7159 6.34146 29.7126 6.7543 30.4475 7.48917C31.1824 8.22404 31.5952 9.22074 31.5952 10.26C31.5952 11.2993 31.1824 12.296 30.4475 13.0308L23.2592 20.235C22.5536 20.9429 21.603 21.3524 20.6039 21.3789C19.6048 21.4054 18.6338 21.0469 17.8917 20.3775L17.7017 20.2192C17.4014 19.9252 16.9967 19.7626 16.5765 19.767C16.1564 19.7715 15.7552 19.9427 15.4613 20.2429C15.1673 20.5432 15.0047 20.9479 15.0091 21.3681C15.0136 21.7882 15.1848 22.1894 15.485 22.4833C15.6 22.601 15.7216 22.712 15.8492 22.8158C17.2024 23.9882 18.9497 24.6041 20.739 24.5395C22.5283 24.4749 24.2266 23.7345 25.4917 22.4675L32.6958 15.2633C34.0279 13.9398 34.7823 12.143 34.7941 10.2652C34.806 8.38735 34.0744 6.58112 32.7592 5.24084Z" fill="#A4A4A4"/>
</g>
</svg>
