<svg width="39" height="38" viewBox="0 0 39 38" fill="none" xmlns="http://www.w3.org/2000/svg">
<g id="User Interface / House">
<path id="Vector" d="M32.1667 12.6667L22.6667 4.33834C21.7958 3.55941 20.6684 3.12878 19.5 3.12878C18.3316 3.12878 17.2042 3.55941 16.3333 4.33834L6.83333 12.6667C6.33042 13.1165 5.92909 13.6682 5.65608 14.2852C5.38307 14.9022 5.24464 15.5703 5.25 16.245V30.0833C5.25 31.3431 5.75044 32.5513 6.64124 33.4421C7.53204 34.3329 8.74022 34.8333 10 34.8333H29C30.2598 34.8333 31.468 34.3329 32.3588 33.4421C33.2496 32.5513 33.75 31.3431 33.75 30.0833V16.2292C33.7531 15.5572 33.6136 14.8921 33.3407 14.278C33.0677 13.6639 32.6676 13.1147 32.1667 12.6667ZM22.6667 31.6667H16.3333V23.75C16.3333 23.3301 16.5001 22.9274 16.7971 22.6304C17.094 22.3335 17.4967 22.1667 17.9167 22.1667H21.0833C21.5033 22.1667 21.906 22.3335 22.2029 22.6304C22.4999 22.9274 22.6667 23.3301 22.6667 23.75V31.6667ZM30.5833 30.0833C30.5833 30.5033 30.4165 30.906 30.1196 31.2029C29.8227 31.4999 29.4199 31.6667 29 31.6667H25.8333V23.75C25.8333 22.4902 25.3329 21.282 24.4421 20.3913C23.5513 19.5005 22.3431 19 21.0833 19H17.9167C16.6569 19 15.4487 19.5005 14.5579 20.3913C13.6671 21.282 13.1667 22.4902 13.1667 23.75V31.6667H10C9.58007 31.6667 9.17735 31.4999 8.88041 31.2029C8.58348 30.906 8.41667 30.5033 8.41667 30.0833V16.2292C8.41695 16.0044 8.46511 15.7822 8.55793 15.5774C8.65075 15.3727 8.78611 15.1901 8.955 15.0417L18.455 6.72918C18.7439 6.47534 19.1154 6.33535 19.5 6.33535C19.8846 6.33535 20.2561 6.47534 20.545 6.72918L30.045 15.0417C30.2139 15.1901 30.3492 15.3727 30.4421 15.5774C30.5349 15.7822 30.583 16.0044 30.5833 16.2292V30.0833Z" fill="#A4A4A4"/>
</g>
</svg>
