<svg width="39" height="38" viewBox="0 0 39 38" fill="none" xmlns="http://www.w3.org/2000/svg">
<g id="Education / medal">
<path id="Vector" d="M19.5 1.58331C17.3204 1.58605 15.1901 2.23135 13.3753 3.43852C11.5606 4.64569 10.1421 6.36113 9.29718 8.37028C8.45229 10.3794 8.21854 12.5931 8.62517 14.7344C9.0318 16.8757 10.0608 18.8496 11.5833 20.4091V34.8333C11.5842 35.1032 11.654 35.3684 11.7861 35.6038C11.9183 35.8391 12.1084 36.0368 12.3384 36.1779C12.5684 36.3191 12.8307 36.3992 13.1004 36.4105C13.3701 36.4218 13.6382 36.3639 13.8792 36.2425L19.5 33.44L25.1208 36.2425C25.3414 36.3555 25.5855 36.4152 25.8333 36.4166C26.1298 36.4176 26.4205 36.3353 26.6725 36.1791C26.9007 36.0365 27.0888 35.8381 27.219 35.6026C27.3492 35.3672 27.4172 35.1024 27.4167 34.8333V20.4091C28.9393 18.8496 29.9682 16.8757 30.3749 14.7344C30.7815 12.5931 30.5477 10.3794 29.7028 8.37028C28.858 6.36113 27.4394 4.64569 25.6247 3.43852C23.81 2.23135 21.6796 1.58605 19.5 1.58331ZM24.25 32.2683L20.2125 30.2575C19.9915 30.1461 19.7475 30.0881 19.5 30.0881C19.2525 30.0881 19.0085 30.1461 18.7875 30.2575L14.75 32.2683V22.6733C15.7521 23.1465 16.8196 23.4667 17.9167 23.6233V25.3333C17.9167 25.7532 18.0835 26.156 18.3804 26.4529C18.6774 26.7498 19.0801 26.9166 19.5 26.9166C19.9199 26.9166 20.3227 26.7498 20.6196 26.4529C20.9165 26.156 21.0833 25.7532 21.0833 25.3333V23.6233C22.1805 23.4667 23.2479 23.1465 24.25 22.6733V32.2683ZM19.5 20.5833C17.9342 20.5833 16.4036 20.119 15.1017 19.2491C13.7999 18.3792 12.7852 17.1428 12.186 15.6962C11.5868 14.2496 11.43 12.6579 11.7355 11.1222C12.0409 9.5865 12.7949 8.17588 13.9021 7.06872C15.0093 5.96155 16.4199 5.20756 17.9555 4.9021C19.4912 4.59663 21.083 4.75341 22.5296 5.3526C23.9762 5.95179 25.2126 6.96649 26.0825 8.26838C26.9524 9.57027 27.4167 11.1009 27.4167 12.6666C27.4167 14.7663 26.5826 16.7799 25.0979 18.2646C23.6133 19.7492 21.5996 20.5833 19.5 20.5833Z" fill="#A4A4A4"/>
</g>
</svg>
