<svg width="38" height="38" viewBox="0 0 38 38" fill="none" xmlns="http://www.w3.org/2000/svg">
<g id="User Interface / Thunder">
<path id="Vector" d="M31.4609 13.6166C31.3429 13.3454 31.1513 13.1127 30.9079 12.9448C30.6644 12.7769 30.3788 12.6805 30.0834 12.6666H22.8317L24.8425 5.16164C24.9066 4.92679 24.9156 4.68034 24.8689 4.44143C24.8222 4.20253 24.7211 3.97761 24.5734 3.78414C24.4259 3.59253 24.2364 3.43725 24.0196 3.33022C23.8028 3.22318 23.5643 3.16722 23.3225 3.16664H12.2392C11.8817 3.15439 11.5307 3.26354 11.2432 3.47629C10.9556 3.68905 10.7486 3.99288 10.6559 4.33831L6.41253 20.1716C6.34849 20.4065 6.33946 20.6529 6.38614 20.8918C6.43282 21.1307 6.53396 21.3557 6.6817 21.5491C6.83082 21.7429 7.02279 21.8994 7.24255 22.0066C7.4623 22.1137 7.70389 22.1685 7.94836 22.1666H14.0759L11.21 32.8383C11.1161 33.1824 11.1412 33.5482 11.2811 33.8763C11.4211 34.2044 11.6677 34.4756 11.981 34.646C12.2944 34.8164 12.6561 34.8761 13.0076 34.8152C13.3591 34.7544 13.6797 34.5766 13.9175 34.3108L31.1759 15.3108C31.3814 15.0858 31.5176 14.8062 31.5681 14.5057C31.6187 14.2052 31.5814 13.8965 31.4609 13.6166ZM15.96 27.36L17.6542 21.0266C17.7182 20.7918 17.7273 20.5453 17.6806 20.3064C17.6339 20.0675 17.5328 19.8426 17.385 19.6491C17.2375 19.4575 17.0481 19.3023 16.8313 19.1952C16.6145 19.0882 16.376 19.0322 16.1342 19.0316H10.0542L13.4425 6.33331H21.2484L19.2375 13.8383C19.173 14.0775 19.1654 14.3285 19.2155 14.5711C19.2656 14.8137 19.3719 15.0412 19.5259 15.2352C19.68 15.4293 19.8773 15.5845 20.1022 15.6883C20.3271 15.7922 20.5733 15.8419 20.8209 15.8333H26.4734L15.96 27.36Z" fill="#A4A4A4"/>
</g>
</svg>
