<svg width="36" height="36" viewBox="0 0 36 36" fill="none" xmlns="http://www.w3.org/2000/svg">
<path d="M23.565 12.435C23.4256 12.2944 23.2597 12.1828 23.0769 12.1067C22.8941 12.0305 22.698 11.9913 22.5 11.9913C22.302 11.9913 22.1059 12.0305 21.9231 12.1067C21.7403 12.1828 21.5744 12.2944 21.435 12.435L18 15.885L14.565 12.435C14.2825 12.1525 13.8994 11.9939 13.5 11.9939C13.1005 11.9939 12.7175 12.1525 12.435 12.435C12.1525 12.7175 11.9939 13.1005 11.9939 13.5C11.9939 13.8994 12.1525 14.2825 12.435 14.565L15.885 18L12.435 21.435C12.2944 21.5744 12.1828 21.7403 12.1067 21.9231C12.0305 22.1059 11.9913 22.302 11.9913 22.5C11.9913 22.698 12.0305 22.8941 12.1067 23.0769C12.1828 23.2597 12.2944 23.4256 12.435 23.565C12.5744 23.7056 12.7403 23.8172 12.9231 23.8933C13.1059 23.9695 13.302 24.0087 13.5 24.0087C13.698 24.0087 13.8941 23.9695 14.0769 23.8933C14.2597 23.8172 14.4256 23.7056 14.565 23.565L18 20.115L21.435 23.565C21.5744 23.7056 21.7403 23.8172 21.9231 23.8933C22.1059 23.9695 22.302 24.0087 22.5 24.0087C22.698 24.0087 22.8941 23.9695 23.0769 23.8933C23.2597 23.8172 23.4256 23.7056 23.565 23.565C23.7056 23.4256 23.8172 23.2597 23.8933 23.0769C23.9695 22.8941 24.0087 22.698 24.0087 22.5C24.0087 22.302 23.9695 22.1059 23.8933 21.9231C23.8172 21.7403 23.7056 21.5744 23.565 21.435L20.115 18L23.565 14.565C23.7056 14.4256 23.8172 14.2597 23.8933 14.0769C23.9695 13.8941 24.0087 13.698 24.0087 13.5C24.0087 13.302 23.9695 13.1059 23.8933 12.9231C23.8172 12.7403 23.7056 12.5744 23.565 12.435ZM28.605 7.395C27.2213 5.96234 25.5661 4.81961 23.7361 4.03348C21.906 3.24734 19.9377 2.83355 17.946 2.81624C15.9543 2.79893 13.9791 3.17846 12.1357 3.93267C10.2922 4.68689 8.61746 5.80068 7.20907 7.20907C5.80068 8.61746 4.68689 10.2922 3.93267 12.1357C3.17846 13.9791 2.79893 15.9543 2.81624 17.946C2.83355 19.9377 3.24734 21.906 4.03348 23.7361C4.81961 25.5661 5.96234 27.2213 7.395 28.605C8.7787 30.0377 10.4339 31.1804 12.2639 31.9665C14.094 32.7527 16.0623 33.1664 18.054 33.1838C20.0457 33.2011 22.0209 32.8215 23.8643 32.0673C25.7078 31.3131 27.3825 30.1993 28.7909 28.7909C30.1993 27.3825 31.3131 25.7078 32.0673 23.8643C32.8215 22.0209 33.2011 20.0457 33.1838 18.054C33.1664 16.0623 32.7527 14.094 31.9665 12.2639C31.1804 10.4339 30.0377 8.7787 28.605 7.395ZM26.49 26.49C24.5281 28.4541 21.9458 29.6772 19.1832 29.951C16.4206 30.2247 13.6485 29.5321 11.3393 27.9912C9.03005 26.4502 7.32653 24.1563 6.51896 21.5002C5.71138 18.8441 5.8497 15.9902 6.91037 13.4247C7.97103 10.8591 9.88841 8.74072 12.3358 7.43034C14.7833 6.11996 17.6093 5.69869 20.3325 6.23831C23.0557 6.77792 25.5076 8.24503 27.2704 10.3897C29.0332 12.5343 29.9978 15.2239 30 18C30.0054 19.5769 29.6979 21.1393 29.0954 22.5966C28.4929 24.0539 27.6073 25.3772 26.49 26.49Z" fill="#8B8B8B"/>
</svg>
